SourceSerifPro-Italic_2.ufo
<glyph name="exclam" format="1">
	<unicode hex="0021"/>
	<advance width="290"/>
	<outline>
		<contour>
			<point x="148" y="-15" type="curve" smooth="yes"/>
			<point x="185" y="-15"/>
			<point x="218" y="16"/>
			<point x="218" y="53" type="curve" smooth="yes"/>
			<point x="218" y="85"/>
			<point x="196" y="112"/>
			<point x="162" y="112" type="curve" smooth="yes"/>
			<point x="125" y="112"/>
			<point x="92" y="81"/>
			<point x="92" y="43" type="curve" smooth="yes"/>
			<point x="92" y="9"/>
			<point x="117" y="-15"/>
		</contour>
		<contour>
			<point x="159" y="198" type="line"/>
			<point x="205" y="198" type="line"/>
			<point x="242" y="337" type="line" smooth="yes"/>
			<point x="291" y="522"/>
			<point x="317" y="615"/>
			<point x="317" y="645" type="curve" smooth="yes"/>
			<point x="317" y="673"/>
			<point x="304" y="685"/>
			<point x="281" y="685" type="curve" smooth="yes"/>
			<point x="255" y="685"/>
			<point x="235" y="673"/>
			<point x="223" y="624" type="curve" smooth="yes"/>
			<point x="214" y="586"/>
			<point x="207" y="515"/>
			<point x="180" y="337" type="curve" smooth="yes"/>
		</contour>
	</outline>
</glyph>
<glyph name="ampersand" format="1">
	<unicode hex="0026"/>
	<advance width="739"/>
	<outline>
		<contour>
			<point x="347" y="155" type="curve"/>
			<point x="394" y="155"/>
			<point x="424" y="186"/>
			<point x="426" y="218" type="curve" smooth="yes"/>
			<point x="426" y="236"/>
			<point x="423" y="250"/>
			<point x="410" y="273" type="curve" smooth="yes"/>
			<point x="390" y="310" type="line"/>
			<point x="359" y="270" type="line"/>
			<point x="393" y="288"/>
			<point x="470" y="294"/>
			<point x="546" y="307" type="curve" smooth="yes"/>
			<point x="607" y="320"/>
			<point x="658" y="327"/>
			<point x="698" y="349" type="curve" smooth="yes"/>
			<point x="738" y="371"/>
			<point x="758" y="419"/>
			<point x="758" y="458" type="curve" smooth="yes"/>
			<point x="758" y="508"/>
			<point x="736" y="556"/>
			<point x="680" y="556" type="curve" smooth="yes"/>
			<point x="629" y="556"/>
			<point x="592" y="526"/>
			<point x="592" y="483" type="curve" smooth="yes"/>
			<point x="592" y="445"/>
			<point x="613" y="420"/>
			<point x="635" y="406" type="curve" smooth="yes"/>
			<point x="673" y="382" type="line"/>
			<point x="715" y="429" type="line"/>
			<point x="673" y="398"/>
			<point x="590" y="383"/>
			<point x="523" y="369" type="curve" smooth="yes"/>
			<point x="483" y="361"/>
			<point x="421" y="353"/>
			<point x="385" y="345" type="curve" smooth="yes"/>
			<point x="308" y="327"/>
			<point x="277" y="298"/>
			<point x="274" y="240" type="curve" smooth="yes"/>
			<point x="271" y="188"/>
			<point x="305" y="155"/>
		</contour>
		<contour>
			<point x="261" y="420" type="curve"/>
			<point x="374" y="467" type="line"/>
			<point x="339" y="491"/>
			<point x="325" y="528"/>
			<point x="325" y="564" type="curve" smooth="yes"/>
			<point x="325" y="629"/>
			<point x="367" y="685"/>
			<point x="423" y="685" type="curve" smooth="yes"/>
			<point x="450" y="685"/>
			<point x="512" y="682"/>
			<point x="533" y="677" type="curve"/>
			<point x="405" y="718" type="line"/>
			<point x="442" y="621" type="line" smooth="yes"/>
			<point x="458" y="580"/>
			<point x="486" y="567"/>
			<point x="511" y="567" type="curve" smooth="yes"/>
			<point x="541" y="567"/>
			<point x="570" y="582"/>
			<point x="575" y="609" type="curve"/>
			<point x="561" y="689"/>
			<point x="515" y="731"/>
			<point x="408" y="731" type="curve" smooth="yes"/>
			<point x="288" y="731"/>
			<point x="194" y="663"/>
			<point x="194" y="553" type="curve" smooth="yes"/>
			<point x="194" y="497"/>
			<point x="219" y="453"/>
		</contour>
		<contour>
			<point x="19" y="204" type="curve" smooth="yes"/>
			<point x="19" y="69"/>
			<point x="128" y="-16"/>
			<point x="279" y="-16" type="curve" smooth="yes"/>
			<point x="457" y="-16"/>
			<point x="587" y="87"/>
			<point x="587" y="207" type="curve" smooth="yes"/>
			<point x="587" y="273"/>
			<point x="564" y="303"/>
			<point x="543" y="335" type="curve"/>
			<point x="486" y="324" type="line"/>
			<point x="507" y="290"/>
			<point x="515" y="271"/>
			<point x="515" y="223" type="curve" smooth="yes"/>
			<point x="515" y="180"/>
			<point x="470" y="117"/>
			<point x="345" y="117" type="curve" smooth="yes"/>
			<point x="254" y="117"/>
			<point x="169" y="175"/>
			<point x="169" y="295" type="curve" smooth="yes"/>
			<point x="169" y="371"/>
			<point x="217" y="406"/>
			<point x="266" y="446" type="curve"/>
			<point x="242" y="437" type="line"/>
			<point x="260" y="412"/>
			<point x="309" y="370"/>
			<point x="367" y="370" type="curve" smooth="yes"/>
			<point x="417" y="370"/>
			<point x="452" y="397"/>
			<point x="457" y="443" type="curve"/>
			<point x="451" y="473"/>
			<point x="405" y="503"/>
			<point x="341" y="503" type="curve" smooth="yes"/>
			<point x="240" y="503"/>
			<point x="19" y="407"/>
		</contour>
	</outline>
</glyph>
<glyph name="quotesingle" format="1">
	<unicode hex="0027"/>
	<advance width="257"/>
	<outline>
		<contour>
			<point x="233" y="725" type="curve" smooth="yes"/>
			<point x="179" y="731"/>
			<point x="140" y="703"/>
			<point x="129" y="643" type="curve" smooth="yes"/>
			<point x="119" y="593"/>
			<point x="127" y="531"/>
			<point x="129" y="506" type="curve" smooth="yes"/>
			<point x="137" y="385" type="line"/>
			<point x="198" y="379" type="line"/>
			<point x="252" y="494" type="line" smooth="yes"/>
			<point x="264" y="519"/>
			<point x="294" y="576"/>
			<point x="303" y="626" type="curve" smooth="yes"/>
			<point x="315" y="686"/>
			<point x="287" y="720"/>
		</contour>
	</outline>
</glyph>
<glyph name="asterisk" format="1">
	<unicode hex="002A"/>
	<advance width="427"/>
	<outline>
		<contour>
			<point x="264" y="728" type="curve" smooth="yes"/>
			<point x="228" y="722"/>
			<point x="216" y="690"/>
			<point x="222" y="661" type="curve" smooth="yes"/>
			<point x="225" y="643"/>
			<point x="235" y="618"/>
			<point x="257" y="580" type="curve" smooth="yes"/>
			<point x="270" y="558" type="line"/>
			<point x="248" y="570" type="line" smooth="yes"/>
			<point x="200" y="596"/>
			<point x="171" y="608"/>
			<point x="142" y="603" type="curve" smooth="yes"/>
			<point x="119" y="599"/>
			<point x="93" y="577"/>
			<point x="100" y="540" type="curve" smooth="yes"/>
			<point x="107" y="497"/>
			<point x="145" y="486"/>
			<point x="239" y="506" type="curve" smooth="yes"/>
			<point x="263" y="512" type="line"/>
			<point x="244" y="494" type="line" smooth="yes"/>
			<point x="195" y="449"/>
			<point x="174" y="419"/>
			<point x="180" y="386" type="curve" smooth="yes"/>
			<point x="183" y="365"/>
			<point x="209" y="339"/>
			<point x="241" y="344" type="curve" smooth="yes"/>
			<point x="275" y="350"/>
			<point x="293" y="379"/>
			<point x="302" y="466" type="curve" smooth="yes"/>
			<point x="304" y="492" type="line"/>
			<point x="316" y="468" type="line" smooth="yes"/>
			<point x="348" y="402"/>
			<point x="373" y="367"/>
			<point x="414" y="374" type="curve" smooth="yes"/>
			<point x="444" y="379"/>
			<point x="462" y="411"/>
			<point x="457" y="434" type="curve" smooth="yes"/>
			<point x="452" y="463"/>
			<point x="434" y="481"/>
			<point x="361" y="515" type="curve" smooth="yes"/>
			<point x="337" y="525" type="line"/>
			<point x="363" y="528" type="line" smooth="yes"/>
			<point x="451" y="541"/>
			<point x="489" y="564"/>
			<point x="482" y="606" type="curve" smooth="yes"/>
			<point x="475" y="644"/>
			<point x="445" y="656"/>
			<point x="420" y="651" type="curve" smooth="yes"/>
			<point x="401" y="648"/>
			<point x="376" y="633"/>
			<point x="332" y="585" type="curve" smooth="yes"/>
			<point x="316" y="566" type="line"/>
			<point x="320" y="591" type="line" smooth="yes"/>
			<point x="327" y="631"/>
			<point x="331" y="657"/>
			<point x="327" y="679" type="curve" smooth="yes"/>
			<point x="322" y="709"/>
			<point x="300" y="735"/>
		</contour>
	</outline>
</glyph>
<glyph name="plus" format="1">
	<unicode hex="002B"/>
	<advance width="550"/>
	<outline>
		<contour>
			<point x="223" y="70" type="line"/>
			<point x="327" y="70" type="line"/>
			<point x="327" y="565" type="line"/>
			<point x="223" y="565" type="line"/>
		</contour>
		<contour>
			<point x="520" y="270" type="line"/>
			<point x="520" y="370" type="line"/>
			<point x="30" y="370" type="line"/>
			<point x="30" y="270" type="line"/>
		</contour>
	</outline>
</glyph>
<glyph name="comma" format="1">
	<unicode hex="002C"/>
	<advance width="300"/>
	<outline>
		<contour>
			<point x="-30" y="-180" type="line"/>
			<point x="98" y="-158"/>
			<point x="224" y="-41"/>
			<point x="224" y="91" type="curve" smooth="yes"/>
			<point x="224" y="110"/>
			<point x="223" y="123"/>
			<point x="219" y="140" type="curve"/>
			<point x="197" y="165"/>
			<point x="171" y="177"/>
			<point x="135" y="177" type="curve" smooth="yes"/>
			<point x="76" y="177"/>
			<point x="33" y="130"/>
			<point x="33" y="84" type="curve" smooth="yes"/>
			<point x="33" y="47"/>
			<point x="52" y="31"/>
			<point x="86" y="8" type="curve" smooth="yes"/>
			<point x="149" y="-35" type="line"/>
			<point x="126" y="2" type="line"/>
			<point x="83" y="-61"/>
			<point x="41" y="-100"/>
			<point x="-44" y="-135" type="curve"/>
		</contour>
	</outline>
</glyph>
<glyph name="period" format="1">
	<unicode hex="002E"/>
	<advance width="300"/>
	<outline>
		<contour>
			<point x="150" y="-16" type="curve" smooth="yes"/>
			<point x="205" y="-16"/>
			<point x="248" y="27"/>
			<point x="248" y="80" type="curve" smooth="yes"/>
			<point x="248" y="134"/>
			<point x="205" y="179"/>
			<point x="150" y="179" type="curve" smooth="yes"/>
			<point x="95" y="179"/>
			<point x="52" y="134"/>
			<point x="52" y="80" type="curve" smooth="yes"/>
			<point x="52" y="27"/>
			<point x="95" y="-16"/>
		</contour>
	</outline>
</glyph>
<glyph name="slash" format="1">
	<unicode hex="002F"/>
	<advance width="317"/>
	<outline>
		<contour>
			<point x="-7" y="-160" type="line"/>
			<point x="47" y="-160" type="line"/>
			<point x="436" y="710" type="line"/>
			<point x="382" y="710" type="line"/>
		</contour>
	</outline>
</glyph>
<glyph name="one" format="1">
	<unicode hex="0031"/>
	<advance width="560"/>
	<outline>
		<contour>
			<point x="190" y="580" type="line"/>
			<point x="181" y="535" type="line"/>
			<point x="273" y="535" type="line"/>
			<point x="164" y="0" type="line"/>
			<point x="328" y="0" type="line"/>
			<point x="340" y="67"/>
			<point x="353" y="138"/>
			<point x="367" y="206" type="curve" smooth="yes"/>
			<point x="424" y="485" type="line"/>
			<point x="457" y="626" type="line"/>
			<point x="446" y="636" type="line"/>
		</contour>
		<contour>
			<point x="299" y="71" type="line"/>
			<point x="222" y="71" type="line"/>
			<point x="76" y="51" type="line"/>
			<point x="65" y="0" type="line"/>
			<point x="427" y="0" type="line"/>
			<point x="438" y="51" type="line"/>
		</contour>
	</outline>
</glyph>
<glyph name="four" format="1">
	<unicode hex="0034"/>
	<advance width="560"/>
	<outline>
		<contour>
			<point x="31" y="157" type="line"/>
			<point x="534" y="157" type="line"/>
			<point x="554" y="268" type="line"/>
			<point x="123" y="268" type="line"/>
			<point x="93" y="212" type="line"/>
			<point x="434" y="586" type="line"/>
			<point x="355" y="553" type="line"/>
			<point x="254" y="0" type="line"/>
			<point x="390" y="0" type="line"/>
			<point x="509" y="652" type="line"/>
			<point x="419" y="652" type="line"/>
			<point x="51" y="247" type="line"/>
		</contour>
		<contour>
			<point x="156" y="0" type="line"/>
			<point x="493" y="0" type="line"/>
			<point x="502" y="52" type="line"/>
			<point x="381" y="72" type="line"/>
			<point x="298" y="72" type="line"/>
			<point x="165" y="52" type="line"/>
		</contour>
	</outline>
</glyph>
<glyph name="less" format="1">
	<unicode hex="003C"/>
	<advance width="550"/>
	<outline>
		<contour>
			<point x="30" y="278" type="line"/>
			<point x="461" y="65" type="line"/>
			<point x="510" y="165" type="line"/>
			<point x="85" y="361" type="line"/>
			<point x="85" y="281" type="line"/>
			<point x="510" y="477" type="line"/>
			<point x="461" y="577" type="line"/>
			<point x="30" y="364" type="line"/>
		</contour>
	</outline>
</glyph>
<glyph name="question" format="1">
	<unicode hex="003F"/>
	<advance width="460"/>
	<outline>
		<contour>
			<point x="288" y="645" type="curve" smooth="yes"/>
			<point x="347" y="645"/>
			<point x="395" y="613"/>
			<point x="395" y="548" type="curve" smooth="yes"/>
			<point x="395" y="494"/>
			<point x="376" y="457"/>
			<point x="280" y="416" type="curve" smooth="yes"/>
			<point x="143" y="357"/>
			<point x="100" y="315"/>
			<point x="101" y="251" type="curve" smooth="yes"/>
			<point x="102" y="197"/>
			<point x="135" y="169"/>
			<point x="202" y="169" type="curve" smooth="yes"/>
			<point x="262" y="169"/>
			<point x="310" y="191"/>
			<point x="337" y="218" type="curve"/>
			<point x="318" y="248" type="line"/>
			<point x="289" y="230"/>
			<point x="259" y="219"/>
			<point x="235" y="219" type="curve" smooth="yes"/>
			<point x="199" y="219"/>
			<point x="180" y="238"/>
			<point x="180" y="265" type="curve" smooth="yes"/>
			<point x="180" y="309"/>
			<point x="199" y="338"/>
			<point x="304" y="382" type="curve" smooth="yes"/>
			<point x="417" y="428"/>
			<point x="478" y="477"/>
			<point x="478" y="556" type="curve" smooth="yes"/>
			<point x="478" y="649"/>
			<point x="392" y="685"/>
			<point x="310" y="685" type="curve" smooth="yes"/>
			<point x="215" y="685"/>
			<point x="147" y="636"/>
			<point x="138" y="600" type="curve"/>
			<point x="138" y="578"/>
			<point x="156" y="562"/>
			<point x="178" y="562" type="curve" smooth="yes"/>
			<point x="198" y="562"/>
			<point x="211" y="567"/>
			<point x="229" y="587" type="curve" smooth="yes"/>
			<point x="246" y="604"/>
			<point x="258" y="627"/>
			<point x="277" y="663" type="curve"/>
			<point x="208" y="641" type="line"/>
			<point x="228" y="643"/>
			<point x="254" y="645"/>
		</contour>
		<contour>
			<point x="139" y="-14" type="curve" smooth="yes"/>
			<point x="174" y="-14"/>
			<point x="211" y="13"/>
			<point x="211" y="61" type="curve" smooth="yes"/>
			<point x="211" y="90"/>
			<point x="200" y="112"/>
			<point x="161" y="112" type="curve" smooth="yes"/>
			<point x="127" y="112"/>
			<point x="90" y="83"/>
			<point x="90" y="34" type="curve" smooth="yes"/>
			<point x="90" y="8"/>
			<point x="105" y="-14"/>
		</contour>
	</outline>
</glyph>
<glyph name="C" format="1">
	<unicode hex="0043"/>
	<advance width="605"/>
	<outline>
		<contour>
			<point x="348" y="-20" type="curve" smooth="yes"/>
			<point x="435" y="-20"/>
			<point x="504" y="2"/>
			<point x="552" y="31" type="curve"/>
			<point x="581" y="189" type="line"/>
			<point x="499" y="189" type="line"/>
			<point x="432" y="22" type="line"/>
			<point x="513" y="82" type="line"/>
			<point x="469" y="57"/>
			<point x="427" y="40"/>
			<point x="384" y="40" type="curve" smooth="yes"/>
			<point x="269" y="40"/>
			<point x="224" y="140"/>
			<point x="224" y="245" type="curve" smooth="yes"/>
			<point x="224" y="373"/>
			<point x="289" y="611"/>
			<point x="462" y="611" type="curve" smooth="yes"/>
			<point x="513" y="611"/>
			<point x="547" y="591"/>
			<point x="588" y="544" type="curve"/>
			<point x="532" y="615" type="line"/>
			<point x="532" y="463" type="line"/>
			<point x="621" y="463" type="line"/>
			<point x="647" y="621" type="line"/>
			<point x="583" y="655"/>
			<point x="524" y="672"/>
			<point x="437" y="672" type="curve" smooth="yes"/>
			<point x="199" y="672"/>
			<point x="40" y="490"/>
			<point x="40" y="268" type="curve" smooth="yes"/>
			<point x="40" y="73"/>
			<point x="165" y="-20"/>
		</contour>
	</outline>
</glyph>
<glyph name="G" format="1">
	<unicode hex="0047"/>
	<advance width="662"/>
	<outline>
		<contour>
			<point x="41" y="269" type="curve" smooth="yes"/>
			<point x="41" y="76"/>
			<point x="159" y="-18"/>
			<point x="370" y="-18" type="curve" smooth="yes"/>
			<point x="445" y="-18"/>
			<point x="497" y="-4"/>
			<point x="554" y="21" type="curve"/>
			<point x="613" y="335" type="line"/>
			<point x="439" y="335" type="line"/>
			<point x="425" y="251"/>
			<point x="408" y="166"/>
			<point x="392" y="83" type="curve" smooth="yes"/>
			<point x="376" y="1" type="line"/>
			<point x="468" y="52" type="line"/>
			<point x="434" y="43"/>
			<point x="415" y="38"/>
			<point x="389" y="38" type="curve" smooth="yes"/>
			<point x="297" y="38"/>
			<point x="225" y="134"/>
			<point x="225" y="279" type="curve" smooth="yes"/>
			<point x="225" y="470"/>
			<point x="326" y="612"/>
			<point x="471" y="612" type="curve" smooth="yes"/>
			<point x="515" y="612"/>
			<point x="552" y="599"/>
			<point x="597" y="564" type="curve"/>
			<point x="529" y="622" type="line"/>
			<point x="537" y="454" type="line"/>
			<point x="621" y="454" type="line"/>
			<point x="647" y="609" type="line"/>
			<point x="587" y="649"/>
			<point x="509" y="672"/>
			<point x="438" y="672" type="curve" smooth="yes"/>
			<point x="215" y="672"/>
			<point x="41" y="494"/>
		</contour>
		<contour>
			<point x="337" y="276" type="line"/>
			<point x="453" y="258" type="line"/>
			<point x="536" y="258" type="line"/>
			<point x="663" y="276" type="line"/>
			<point x="674" y="335" type="line"/>
			<point x="348" y="335" type="line"/>
		</contour>
		<contour>
			<point name="aboveUC" x="418" y="682" type="move"/>
		</contour>
		<contour>
			<point name="belowLC" x="357" y="-22" type="move"/>
		</contour>
	</outline>
</glyph>
<glyph name="K" format="1">
	<unicode hex="004B"/>
	<advance width="688"/>
	<outline>
		<contour>
			<point x="-12" y="0" type="line"/>
			<point x="289" y="0" type="line"/>
			<point x="301" y="59" type="line"/>
			<point x="178" y="74" type="line"/>
			<point x="146" y="74" type="line"/>
			<point x="0" y="59" type="line"/>
		</contour>
		<contour>
			<point x="58" y="0" type="line"/>
			<point x="237" y="0" type="line"/>
			<point x="254" y="103"/>
			<point x="273" y="207"/>
			<point x="293" y="311" type="curve" smooth="yes"/>
			<point x="358" y="652" type="line"/>
			<point x="178" y="652" type="line"/>
			<point x="161" y="549"/>
			<point x="143" y="445"/>
			<point x="123" y="342" type="curve" smooth="yes"/>
		</contour>
		<contour>
			<point x="100" y="593" type="line"/>
			<point x="242" y="578" type="line"/>
			<point x="274" y="578" type="line"/>
			<point x="415" y="593" type="line"/>
			<point x="427" y="652" type="line"/>
			<point x="112" y="652" type="line"/>
		</contour>
		<contour>
			<point x="178" y="140" type="line"/>
			<point x="711" y="652" type="line"/>
			<point x="635" y="652" type="line"/>
			<point x="191" y="212" type="line"/>
		</contour>
		<contour>
			<point x="457" y="0" type="line"/>
			<point x="645" y="0" type="line"/>
			<point x="445" y="426" type="line"/>
			<point x="317" y="300" type="line"/>
		</contour>
		<contour>
			<point x="376" y="0" type="line"/>
			<point x="666" y="0" type="line"/>
			<point x="678" y="59" type="line"/>
			<point x="549" y="74" type="line"/>
			<point x="524" y="74" type="line"/>
			<point x="388" y="59" type="line"/>
		</contour>
		<contour>
			<point x="508" y="593" type="line"/>
			<point x="584" y="578" type="line"/>
			<point x="616" y="578" type="line"/>
			<point x="731" y="593" type="line"/>
			<point x="743" y="652" type="line"/>
			<point x="520" y="652" type="line"/>
		</contour>
		<contour>
			<point name="aboveUC" x="465" y="682" type="move"/>
		</contour>
		<contour>
			<point name="belowLC" x="335" y="-22" type="move"/>
		</contour>
	</outline>
</glyph>
<glyph name="M" format="1">
	<unicode hex="004D"/>
	<advance width="899"/>
	<outline>
		<contour>
			<point x="-19" y="0" type="line"/>
			<point x="226" y="0" type="line"/>
			<point x="238" y="59" type="line"/>
			<point x="140" y="74" type="line"/>
			<point x="97" y="74" type="line"/>
			<point x="-7" y="59" type="line"/>
		</contour>
		<contour>
			<point x="76" y="0" type="line"/>
			<point x="134" y="0" type="line"/>
			<point x="281" y="652" type="line"/>
			<point x="226" y="652" type="line"/>
		</contour>
		<contour>
			<point x="334" y="0" type="line"/>
			<point x="393" y="0" type="line"/>
			<point x="765" y="652" type="line"/>
			<point x="696" y="652" type="line"/>
			<point x="406" y="142" type="line"/>
			<point x="473" y="167" type="line"/>
			<point x="378" y="652" type="line"/>
			<point x="150" y="652" type="line"/>
			<point x="138" y="593" type="line"/>
			<point x="271" y="580" type="line"/>
			<point x="202" y="641" type="line"/>
		</contour>
		<contour>
			<point x="508" y="0" type="line"/>
			<point x="833" y="0" type="line"/>
			<point x="845" y="59" type="line"/>
			<point x="699" y="74" type="line"/>
			<point x="667" y="74" type="line"/>
			<point x="520" y="59" type="line"/>
		</contour>
		<contour>
			<point x="586" y="0" type="line"/>
			<point x="765" y="0" type="line"/>
			<point x="778" y="103"/>
			<point x="793" y="207"/>
			<point x="809" y="311" type="curve" smooth="yes"/>
			<point x="862" y="652" type="line"/>
			<point x="731" y="652" type="line"/>
			<point x="670" y="554" type="line"/>
		</contour>
		<contour>
			<point x="746" y="578" type="line"/>
			<point x="785" y="578" type="line"/>
			<point x="935" y="593" type="line"/>
			<point x="947" y="652" type="line"/>
			<point x="760" y="652" type="line"/>
		</contour>
	</outline>
</glyph>
<glyph name="O" format="1">
	<unicode hex="004F"/>
	<advance width="672"/>
	<outline>
		<contour>
			<point x="296" y="-20" type="curve" smooth="yes"/>
			<point x="538" y="-20"/>
			<point x="683" y="188"/>
			<point x="683" y="388" type="curve" smooth="yes"/>
			<point x="683" y="569"/>
			<point x="573" y="672"/>
			<point x="420" y="672" type="curve" smooth="yes"/>
			<point x="187" y="672"/>
			<point x="38" y="463"/>
			<point x="38" y="263" type="curve" smooth="yes"/>
			<point x="38" y="65"/>
			<point x="151" y="-20"/>
		</contour>
		<contour>
			<point x="311" y="40" type="curve" smooth="yes"/>
			<point x="254" y="40"/>
			<point x="221" y="101"/>
			<point x="221" y="237" type="curve" smooth="yes"/>
			<point x="221" y="421"/>
			<point x="302" y="612"/>
			<point x="409" y="612" type="curve" smooth="yes"/>
			<point x="471" y="612"/>
			<point x="499" y="552"/>
			<point x="499" y="423" type="curve" smooth="yes"/>
			<point x="499" y="242"/>
			<point x="415" y="40"/>
		</contour>
		<contour>
			<point name="aboveUC" x="411" y="682" type="move"/>
		</contour>
		<contour>
			<point name="belowLC" x="299" y="-22" type="move"/>
		</contour>
		<contour>
			<point name="ogonek" x="413" y="0" type="move"/>
		</contour>
		<contour>
			<point name="hornLC" x="581" y="669" type="move"/>
		</contour>
	</outline>
</glyph>
<glyph name="Q" format="1">
	<unicode hex="0051"/>
	<advance width="672"/>
	<outline>
		<contour>
			<point x="438" y="-222" type="curve" smooth="yes"/>
			<point x="532" y="-222"/>
			<point x="592" y="-202"/>
			<point x="636" y="-171" type="curve"/>
			<point x="616" y="-122" type="line"/>
			<point x="583" y="-133"/>
			<point x="554" y="-138"/>
			<point x="510" y="-138" type="curve" smooth="yes"/>
			<point x="416" y="-138"/>
			<point x="367" y="-74"/>
			<point x="369" y="32" type="curve"/>
			<point x="209" y="32" type="line"/>
			<point x="209" y="-130"/>
			<point x="294" y="-222"/>
		</contour>
		<component base="O"/>
		<contour>
			<point name="aboveUC" x="411" y="682" type="move"/>
		</contour>
	</outline>
</glyph>
<glyph name="R" format="1">
	<unicode hex="0052"/>
	<advance width="676"/>
	<outline>
		<contour>
			<point x="-9" y="0" type="line"/>
			<point x="316" y="0" type="line"/>
			<point x="328" y="59" type="line"/>
			<point x="185" y="74" type="line"/>
			<point x="150" y="74" type="line"/>
			<point x="3" y="59" type="line"/>
		</contour>
		<contour>
			<point x="66" y="0" type="line"/>
			<point x="245" y="0" type="line"/>
			<point x="262" y="103"/>
			<point x="281" y="207"/>
			<point x="301" y="311" type="curve" smooth="yes"/>
			<point x="366" y="652" type="line"/>
			<point x="186" y="652" type="line"/>
			<point x="169" y="549"/>
			<point x="151" y="445"/>
			<point x="131" y="342" type="curve" smooth="yes"/>
		</contour>
		<contour>
			<point x="103" y="593" type="line"/>
			<point x="246" y="578" type="line"/>
			<point x="264" y="578" type="line"/>
			<point x="278" y="652" type="line"/>
			<point x="115" y="652" type="line"/>
		</contour>
		<contour>
			<point x="552" y="-15" type="curve" smooth="yes"/>
			<point x="587" y="-15"/>
			<point x="603" y="-13"/>
			<point x="655" y="0" type="curve"/>
			<point x="665" y="59" type="line"/>
			<point x="507" y="77" type="line"/>
			<point x="610" y="13" type="line"/>
			<point x="582" y="149" type="line" smooth="yes"/>
			<point x="559" y="263"/>
			<point x="554" y="325"/>
			<point x="372" y="346" type="curve"/>
			<point x="370" y="325" type="line"/>
			<point x="577" y="334"/>
			<point x="644" y="427"/>
			<point x="644" y="502" type="curve" smooth="yes"/>
			<point x="644" y="590"/>
			<point x="582" y="652"/>
			<point x="447" y="652" type="curve" smooth="yes"/>
			<point x="279" y="652" type="line"/>
			<point x="267" y="590" type="line"/>
			<point x="381" y="590" type="line" smooth="yes"/>
			<point x="441" y="590"/>
			<point x="475" y="561"/>
			<point x="475" y="507" type="curve" smooth="yes"/>
			<point x="475" y="436"/>
			<point x="438" y="365"/>
			<point x="335" y="362" type="curve" smooth="yes"/>
			<point x="226" y="359" type="line"/>
			<point x="214" y="299" type="line"/>
			<point x="307" y="299" type="line" smooth="yes"/>
			<point x="365" y="299"/>
			<point x="384" y="267"/>
			<point x="393" y="203" type="curve" smooth="yes"/>
			<point x="407" y="102" type="line" smooth="yes"/>
			<point x="419" y="13"/>
			<point x="461" y="-15"/>
		</contour>
		<contour>
			<point name="aboveUC" x="381" y="682" type="move"/>
		</contour>
		<contour>
			<point name="belowLC" x="376" y="-22" type="move"/>
		</contour>
	</outline>
</glyph>
<glyph name="S" format="1">
	<unicode hex="0053"/>
	<advance width="503"/>
	<outline>
		<contour>
			<point x="14" y="33" type="line"/>
			<point x="66" y="-1"/>
			<point x="136" y="-20"/>
			<point x="212" y="-20" type="curve" smooth="yes"/>
			<point x="369" y="-20"/>
			<point x="480" y="60"/>
			<point x="480" y="194" type="curve" smooth="yes"/>
			<point x="480" y="276"/>
			<point x="438" y="337"/>
			<point x="335" y="404" type="curve" smooth="yes"/>
			<point x="257" y="454"/>
			<point x="237" y="485"/>
			<point x="237" y="520" type="curve" smooth="yes"/>
			<point x="237" y="572"/>
			<point x="284" y="609"/>
			<point x="342" y="609" type="curve" smooth="yes"/>
			<point x="385" y="609"/>
			<point x="419" y="596"/>
			<point x="455" y="567" type="curve"/>
			<point x="392" y="633" type="line"/>
			<point x="405" y="478" type="line"/>
			<point x="503" y="478" type="line"/>
			<point x="516" y="619" type="line"/>
			<point x="473" y="651"/>
			<point x="395" y="672"/>
			<point x="321" y="672" type="curve" smooth="yes"/>
			<point x="175" y="672"/>
			<point x="75" y="592"/>
			<point x="75" y="464" type="curve" smooth="yes"/>
			<point x="75" y="392"/>
			<point x="107" y="323"/>
			<point x="217" y="249" type="curve" smooth="yes"/>
			<point x="293" y="198"/>
			<point x="308" y="163"/>
			<point x="308" y="129" type="curve" smooth="yes"/>
			<point x="308" y="71"/>
			<point x="266" y="43"/>
			<point x="202" y="43" type="curve" smooth="yes"/>
			<point x="165" y="43"/>
			<point x="109" y="57"/>
			<point x="70" y="76" type="curve"/>
			<point x="140" y="13" type="line"/>
			<point x="127" y="184" type="line"/>
			<point x="25" y="184" type="line"/>
		</contour>
	</outline>
</glyph>
<glyph name="U" format="1">
	<unicode hex="0055"/>
	<advance width="713"/>
	<outline>
		<contour>
			<point x="102" y="183" type="curve" smooth="yes"/>
			<point x="102" y="44"/>
			<point x="195" y="-20"/>
			<point x="341" y="-20" type="curve" smooth="yes"/>
			<point x="488" y="-20"/>
			<point x="586" y="66"/>
			<point x="622" y="260" type="curve" smooth="yes"/>
			<point x="694" y="652" type="line"/>
			<point x="625" y="652" type="line"/>
			<point x="551" y="256" type="line" smooth="yes"/>
			<point x="526" y="126"/>
			<point x="473" y="72"/>
			<point x="405" y="72" type="curve" smooth="yes"/>
			<point x="325" y="72"/>
			<point x="292" y="116"/>
			<point x="292" y="189" type="curve" smooth="yes"/>
			<point x="292" y="215"/>
			<point x="295" y="246"/>
			<point x="302" y="281" type="curve" smooth="yes"/>
			<point x="374" y="652" type="line"/>
			<point x="178" y="652" type="line"/>
			<point x="163" y="553"/>
			<point x="143" y="453"/>
			<point x="126" y="356" type="curve" smooth="yes"/>
			<point x="110" y="265" type="line" smooth="yes"/>
			<point x="105" y="235"/>
			<point x="102" y="208"/>
		</contour>
		<contour>
			<point x="103" y="593" type="line"/>
			<point x="250" y="578" type="line"/>
			<point x="281" y="578" type="line"/>
			<point x="433" y="593" type="line"/>
			<point x="444" y="652" type="line"/>
			<point x="114" y="652" type="line"/>
		</contour>
		<contour>
			<point x="532" y="593" type="line"/>
			<point x="632" y="586" type="line"/>
			<point x="663" y="586" type="line"/>
			<point x="760" y="593" type="line"/>
			<point x="771" y="652" type="line"/>
			<point x="543" y="652" type="line"/>
		</contour>
	</outline>
</glyph>
<glyph name="V" format="1">
	<unicode hex="0056"/>
	<advance width="602"/>
	<outline>
		<contour>
			<point x="60" y="593" type="line"/>
			<point x="199" y="578" type="line"/>
			<point x="240" y="578" type="line"/>
			<point x="384" y="598" type="line"/>
			<point x="395" y="652" type="line"/>
			<point x="72" y="652" type="line"/>
		</contour>
		<contour>
			<point x="211" y="0" type="line"/>
			<point x="321" y="0" type="line"/>
			<point x="654" y="652" type="line"/>
			<point x="585" y="652" type="line"/>
			<point x="335" y="140" type="line"/>
			<point x="367" y="148" type="line"/>
			<point x="293" y="652" type="line"/>
			<point x="100" y="652" type="line"/>
		</contour>
		<contour>
			<point x="481" y="598" type="line"/>
			<point x="587" y="578" type="line"/>
			<point x="600" y="578" type="line"/>
			<point x="691" y="593" type="line"/>
			<point x="703" y="652" type="line"/>
			<point x="492" y="652" type="line"/>
		</contour>
		<contour>
			<point name="aboveUC" x="460" y="682" type="move"/>
		</contour>
		<contour>
			<point name="belowLC" x="287" y="-22" type="move"/>
		</contour>
	</outline>
</glyph>
<glyph name="X" format="1">
	<unicode hex="0058"/>
	<advance width="663"/>
	<outline>
		<contour>
			<point x="-7" y="0" type="line"/>
			<point x="192" y="0" type="line"/>
			<point x="204" y="59" type="line"/>
			<point x="125" y="74" type="line"/>
			<point x="100" y="74" type="line"/>
			<point x="5" y="59" type="line"/>
		</contour>
		<contour>
			<point x="17" y="0" type="line"/>
			<point x="97" y="0" type="line"/>
			<point x="363" y="324" type="line"/>
			<point x="315" y="344" type="line"/>
		</contour>
		<contour>
			<point x="93" y="593" type="line"/>
			<point x="237" y="578" type="line"/>
			<point x="270" y="578" type="line"/>
			<point x="415" y="593" type="line"/>
			<point x="427" y="652" type="line"/>
			<point x="105" y="652" type="line"/>
		</contour>
		<contour>
			<point x="385" y="0" type="line"/>
			<point x="578" y="0" type="line"/>
			<point x="327" y="652" type="line"/>
			<point x="134" y="652" type="line"/>
		</contour>
		<contour>
			<point x="280" y="0" type="line"/>
			<point x="607" y="0" type="line"/>
			<point x="619" y="59" type="line"/>
			<point x="478" y="74" type="line"/>
			<point x="445" y="74" type="line"/>
			<point x="292" y="59" type="line"/>
		</contour>
		<contour>
			<point x="368" y="355" type="line"/>
			<point x="414" y="330" type="line"/>
			<point x="679" y="652" type="line"/>
			<point x="598" y="652" type="line"/>
		</contour>
		<contour>
			<point x="491" y="593" type="line"/>
			<point x="569" y="578" type="line"/>
			<point x="594" y="578" type="line"/>
			<point x="694" y="593" type="line"/>
			<point x="706" y="652" type="line"/>
			<point x="503" y="652" type="line"/>
		</contour>
		<contour>
			<point name="aboveUC" x="437" y="682" type="move"/>
		</contour>
		<contour>
			<point name="belowLC" x="252" y="-22" type="move"/>
		</contour>
	</outline>
</glyph>
<glyph name="Z" format="1">
	<unicode hex="005A"/>
	<advance width="567"/>
	<outline>
		<contour>
			<point x="-3" y="0" type="line"/>
			<point x="168" y="0" type="line"/>
			<point x="598" y="602" type="line"/>
			<point x="608" y="652" type="line"/>
			<point x="437" y="652" type="line"/>
			<point x="7" y="50" type="line"/>
		</contour>
		<contour>
			<point x="70" y="463" type="line"/>
			<point x="156" y="463" type="line"/>
			<point x="230" y="652" type="line"/>
			<point x="136" y="592" type="line"/>
			<point x="512" y="592" type="line"/>
			<point x="524" y="652" type="line"/>
			<point x="114" y="652" type="line"/>
		</contour>
		<contour>
			<point x="79" y="0" type="line"/>
			<point x="502" y="0" type="line"/>
			<point x="546" y="189" type="line"/>
			<point x="458" y="189" type="line"/>
			<point x="385" y="0" type="line"/>
			<point x="481" y="60" type="line"/>
			<point x="91" y="60" type="line"/>
		</contour>
	</outline>
</glyph>
<glyph name="bracketleft" format="1">
	<unicode hex="005B"/>
	<advance width="361"/>
	<outline>
		<contour>
			<point x="87" y="-159" type="line"/>
			<point x="255" y="-159" type="line"/>
			<point x="267" y="-100" type="line"/>
			<point x="122" y="-85" type="line"/>
			<point x="102" y="-85" type="line"/>
		</contour>
		<contour>
			<point x="250" y="641" type="line"/>
			<point x="270" y="641" type="line"/>
			<point x="421" y="656" type="line"/>
			<point x="433" y="715" type="line"/>
			<point x="265" y="715" type="line"/>
		</contour>
		<contour>
			<point x="85" y="158" type="line" smooth="yes"/>
			<point x="63" y="51"/>
			<point x="41" y="-56"/>
			<point x="17" y="-159" type="curve"/>
			<point x="156" y="-159" type="line"/>
			<point x="174" y="-54"/>
			<point x="196" y="53"/>
			<point x="218" y="158" type="curve" smooth="yes"/>
			<point x="266" y="398" type="line" smooth="yes"/>
			<point x="288" y="505"/>
			<point x="310" y="612"/>
			<point x="334" y="715" type="curve"/>
			<point x="195" y="715" type="line"/>
			<point x="177" y="610"/>
			<point x="155" y="503"/>
			<point x="133" y="398" type="curve" smooth="yes"/>
		</contour>
	</outline>
</glyph>
<glyph name="backslash" format="1">
	<unicode hex="005C"/>
	<advance width="317"/>
	<outline>
		<contour>
			<point x="232" y="-160" type="line"/>
			<point x="286" y="-160" type="line"/>
			<point x="197" y="710" type="line"/>
			<point x="143" y="710" type="line"/>
		</contour>
	</outline>
</glyph>
<glyph name="asciicircum" format="1">
	<unicode hex="005E"/>
	<advance width="550"/>
	<outline>
		<contour>
			<point x="76" y="228" type="line"/>
			<point x="158" y="171" type="line"/>
			<point x="341" y="447" type="line"/>
			<point x="279" y="447" type="line"/>
			<point x="462" y="171" type="line"/>
			<point x="546" y="228" type="line"/>
			<point x="356" y="514" type="line"/>
			<point x="265" y="514" type="line"/>
		</contour>
	</outline>
</glyph>
<glyph name="a" format="1">
	<unicode hex="0061"/>
	<advance width="603"/>
	<outline>
		<contour>
			<point x="403" y="-16" type="curve" smooth="yes"/>
			<point x="509" y="-16"/>
			<point x="566" y="53"/>
			<point x="609" y="134" type="curve"/>
			<point x="574" y="157" type="line"/>
			<point x="540" y="109"/>
			<point x="521" y="84"/>
			<point x="500" y="84" type="curve" smooth="yes"/>
			<point x="489" y="84"/>
			<point x="484" y="91"/>
			<point x="484" y="104" type="curve" smooth="yes"/>
			<point x="484" y="114"/>
			<point x="487" y="125"/>
			<point x="491" y="141" type="curve" smooth="yes"/>
			<point x="571" y="499" type="line"/>
			<point x="555" y="513" type="line"/>
			<point x="403" y="457" type="line"/>
			<point x="322" y="143" type="line" smooth="yes"/>
			<point x="315" y="117"/>
			<point x="309" y="95"/>
			<point x="309" y="73" type="curve" smooth="yes"/>
			<point x="309" y="14"/>
			<point x="343" y="-16"/>
		</contour>
		<contour>
			<point x="142" y="-16" type="curve" smooth="yes"/>
			<point x="209" y="-16"/>
			<point x="285" y="39"/>
			<point x="341" y="110" type="curve"/>
			<point x="336" y="140" type="line"/>
			<point x="316" y="122"/>
			<point x="285" y="100"/>
			<point x="257" y="100" type="curve" smooth="yes"/>
			<point x="224" y="100"/>
			<point x="204" y="124"/>
			<point x="204" y="188" type="curve" smooth="yes"/>
			<point x="204" y="249"/>
			<point x="232" y="354"/>
			<point x="279" y="396" type="curve" smooth="yes"/>
			<point x="289" y="405"/>
			<point x="295" y="409"/>
			<point x="313" y="409" type="curve" smooth="yes"/>
			<point x="349" y="409"/>
			<point x="373" y="401"/>
			<point x="396" y="386" type="curve"/>
			<point x="465" y="462" type="line"/>
			<point x="436" y="490"/>
			<point x="400" y="503"/>
			<point x="362" y="503" type="curve" smooth="yes"/>
			<point x="207" y="503"/>
			<point x="33" y="312"/>
			<point x="33" y="132" type="curve" smooth="yes"/>
			<point x="33" y="21"/>
			<point x="85" y="-16"/>
		</contour>
		<contour>
			<point name="aboveLC" x="382" y="520" type="move"/>
		</contour>
		<contour>
			<point name="belowLC" x="266" y="-22" type="move"/>
		</contour>
		<contour>
			<point name="ogonek" x="463" y="0" type="move"/>
		</contour>
	</outline>
</glyph>
<glyph name="b" format="1">
	<unicode hex="0062"/>
	<advance width="554"/>
	<outline>
		<contour>
			<point x="161" y="-16" type="curve" smooth="yes"/>
			<point x="389" y="-16"/>
			<point x="560" y="116"/>
			<point x="560" y="331" type="curve" smooth="yes"/>
			<point x="560" y="456"/>
			<point x="488" y="503"/>
			<point x="432" y="503" type="curve" smooth="yes"/>
			<point x="359" y="503"/>
			<point x="288" y="455"/>
			<point x="238" y="386" type="curve"/>
			<point x="242" y="359" type="line"/>
			<point x="260" y="377"/>
			<point x="288" y="387"/>
			<point x="310" y="387" type="curve" smooth="yes"/>
			<point x="354" y="387"/>
			<point x="387" y="360"/>
			<point x="387" y="305" type="curve" smooth="yes"/>
			<point x="387" y="257"/>
			<point x="374" y="188"/>
			<point x="345" y="139" type="curve" smooth="yes"/>
			<point x="312" y="86"/>
			<point x="276" y="61"/>
			<point x="235" y="61" type="curve" smooth="yes"/>
			<point x="211" y="61"/>
			<point x="198" y="70"/>
			<point x="198" y="87" type="curve" smooth="yes"/>
			<point x="198" y="114"/>
			<point x="207" y="149"/>
			<point x="220" y="203" type="curve" smooth="yes"/>
			<point x="337" y="697" type="line"/>
			<point x="320" y="711" type="line"/>
			<point x="90" y="642" type="line"/>
			<point x="83" y="601" type="line"/>
			<point x="214" y="586" type="line"/>
			<point x="147" y="621" type="line"/>
			<point x="54" y="208" type="line" smooth="yes"/>
			<point x="40" y="148"/>
			<point x="33" y="113"/>
			<point x="33" y="77" type="curve" smooth="yes"/>
			<point x="33" y="19"/>
			<point x="75" y="-16"/>
		</contour>
	</outline>
</glyph>
<glyph name="c" format="1">
	<unicode hex="0063"/>
	<advance width="504"/>
	<outline>
		<contour>
			<point x="200" y="-16" type="curve" smooth="yes"/>
			<point x="321" y="-16"/>
			<point x="427" y="65"/>
			<point x="474" y="149" type="curve"/>
			<point x="442" y="174" type="line"/>
			<point x="397" y="123"/>
			<point x="354" y="101"/>
			<point x="304" y="101" type="curve" smooth="yes"/>
			<point x="243" y="101"/>
			<point x="204" y="134"/>
			<point x="204" y="200" type="curve" smooth="yes"/>
			<point x="204" y="297"/>
			<point x="256" y="406"/>
			<point x="370" y="459" type="curve"/>
			<point x="320" y="461" type="line"/>
			<point x="357" y="384" type="line" smooth="yes"/>
			<point x="372" y="353"/>
			<point x="391" y="325"/>
			<point x="431" y="325" type="curve" smooth="yes"/>
			<point x="485" y="325"/>
			<point x="514" y="371"/>
			<point x="516" y="402" type="curve"/>
			<point x="504" y="467"/>
			<point x="447" y="503"/>
			<point x="379" y="503" type="curve" smooth="yes"/>
			<point x="202" y="503"/>
			<point x="33" y="322"/>
			<point x="33" y="140" type="curve" smooth="yes"/>
			<point x="33" y="55"/>
			<point x="90" y="-16"/>
		</contour>
		<contour>
			<point name="aboveLC" x="375" y="520" type="move"/>
		</contour>
		<contour>
			<point name="belowLC" x="204" y="-22" type="move"/>
		</contour>
		<contour>
			<point name="baseLC" x="212" y="0" type="move"/>
		</contour>
	</outline>
</glyph>
<glyph name="d" format="1">
	<unicode hex="0064"/>
	<advance width="608"/>
	<outline>
		<contour>
			<point x="327" y="143" type="line" smooth="yes"/>
			<point x="322" y="117"/>
			<point x="315" y="94"/>
			<point x="316" y="61" type="curve" smooth="yes"/>
			<point x="317" y="16"/>
			<point x="350" y="-16"/>
			<point x="403" y="-16" type="curve" smooth="yes"/>
			<point x="514" y="-16"/>
			<point x="571" y="53"/>
			<point x="614" y="134" type="curve"/>
			<point x="579" y="157" type="line"/>
			<point x="545" y="109"/>
			<point x="526" y="84"/>
			<point x="505" y="84" type="curve" smooth="yes"/>
			<point x="494" y="84"/>
			<point x="490" y="91"/>
			<point x="490" y="104" type="curve" smooth="yes"/>
			<point x="490" y="114"/>
			<point x="492" y="122"/>
			<point x="496" y="142" type="curve" smooth="yes"/>
			<point x="611" y="697" type="line"/>
			<point x="594" y="711" type="line"/>
			<point x="366" y="642" type="line"/>
			<point x="360" y="601" type="line"/>
			<point x="491" y="586" type="line"/>
			<point x="423" y="621" type="line"/>
		</contour>
		<contour>
			<point x="140" y="-16" type="curve" smooth="yes"/>
			<point x="207" y="-16"/>
			<point x="286" y="36"/>
			<point x="339" y="110" type="curve"/>
			<point x="334" y="140" type="line"/>
			<point x="314" y="122"/>
			<point x="283" y="100"/>
			<point x="255" y="100" type="curve" smooth="yes"/>
			<point x="222" y="100"/>
			<point x="202" y="124"/>
			<point x="202" y="188" type="curve" smooth="yes"/>
			<point x="202" y="249"/>
			<point x="231" y="354"/>
			<point x="277" y="396" type="curve" smooth="yes"/>
			<point x="287" y="405"/>
			<point x="293" y="409"/>
			<point x="311" y="409" type="curve" smooth="yes"/>
			<point x="347" y="409"/>
			<point x="371" y="401"/>
			<point x="394" y="386" type="curve"/>
			<point x="463" y="462" type="line"/>
			<point x="434" y="490"/>
			<point x="398" y="503"/>
			<point x="360" y="503" type="curve" smooth="yes"/>
			<point x="205" y="503"/>
			<point x="31" y="312"/>
			<point x="31" y="132" type="curve" smooth="yes"/>
			<point x="31" y="21"/>
			<point x="83" y="-16"/>
		</contour>
		<contour>
			<point name="aboveLC" x="525" y="710" type="move"/>
		</contour>
		<contour>
			<point name="belowLC" x="286" y="-22" type="move"/>
		</contour>
	</outline>
</glyph>
<glyph name="e" format="1">
	<unicode hex="0065"/>
	<advance width="467"/>
	<outline>
		<contour>
			<point x="178" y="-18" type="curve" smooth="yes"/>
			<point x="298" y="-18"/>
			<point x="393" y="65"/>
			<point x="440" y="147" type="curve"/>
			<point x="409" y="168" type="line"/>
			<point x="374" y="120"/>
			<point x="328" y="92"/>
			<point x="277" y="92" type="curve" smooth="yes"/>
			<point x="220" y="92"/>
			<point x="184" y="129"/>
			<point x="184" y="189" type="curve" smooth="yes"/>
			<point x="184" y="309"/>
			<point x="258" y="430"/>
			<point x="305" y="430" type="curve" smooth="yes"/>
			<point x="321" y="430"/>
			<point x="333" y="417"/>
			<point x="333" y="392" type="curve" smooth="yes"/>
			<point x="333" y="324"/>
			<point x="273" y="246"/>
			<point x="98" y="178" type="curve"/>
			<point x="103" y="142" type="line"/>
			<point x="334" y="212"/>
			<point x="474" y="298"/>
			<point x="474" y="401" type="curve" smooth="yes"/>
			<point x="474" y="459"/>
			<point x="430" y="505"/>
			<point x="352" y="505" type="curve" smooth="yes"/>
			<point x="185" y="505"/>
			<point x="12" y="299"/>
			<point x="12" y="137" type="curve" smooth="yes"/>
			<point x="12" y="39"/>
			<point x="73" y="-18"/>
		</contour>
	</outline>
</glyph>
<glyph name="f" format="1">
	<unicode hex="0066"/>
	<advance width="392"/>
	<outline>
		<contour>
			<point x="398" y="731" type="curve" smooth="yes"/>
			<point x="373" y="731"/>
			<point x="334" y="727"/>
			<point x="292" y="709" type="curve" smooth="yes"/>
			<point x="219" y="678"/>
			<point x="163" y="618"/>
			<point x="136" y="440" type="curve" smooth="yes"/>
			<point x="116" y="308"/>
			<point x="105" y="178"/>
			<point x="85" y="52" type="curve" smooth="yes"/>
			<point x="69" y="-49"/>
			<point x="48" y="-103"/>
			<point x="30" y="-135" type="curve" smooth="yes"/>
			<point x="11" y="-169"/>
			<point x="-12" y="-187"/>
			<point x="-37" y="-193" type="curve"/>
			<point x="20" y="-206" type="line"/>
			<point x="-18" y="-134" type="line" smooth="yes"/>
			<point x="-45" y="-83"/>
			<point x="-65" y="-71"/>
			<point x="-98" y="-71" type="curve" smooth="yes"/>
			<point x="-134" y="-71"/>
			<point x="-170" y="-108"/>
			<point x="-173" y="-143" type="curve"/>
			<point x="-146" y="-209"/>
			<point x="-96" y="-232"/>
			<point x="-37" y="-232" type="curve" smooth="yes"/>
			<point x="19" y="-232"/>
			<point x="72" y="-214"/>
			<point x="103" y="-192" type="curve" smooth="yes"/>
			<point x="167" y="-147"/>
			<point x="219" y="-87"/>
			<point x="240" y="33" type="curve" smooth="yes"/>
			<point x="269" y="193"/>
			<point x="282" y="353"/>
			<point x="312" y="513" type="curve" smooth="yes"/>
			<point x="335" y="638"/>
			<point x="348" y="681"/>
			<point x="375" y="700" type="curve" smooth="yes"/>
			<point x="389" y="710" type="line"/>
			<point x="339" y="690" type="line"/>
			<point x="379" y="631" type="line" smooth="yes"/>
			<point x="401" y="599"/>
			<point x="424" y="579"/>
			<point x="459" y="579" type="curve" smooth="yes"/>
			<point x="510" y="579"/>
			<point x="536" y="624"/>
			<point x="536" y="671" type="curve"/>
			<point x="518" y="705"/>
			<point x="450" y="731"/>
		</contour>
		<contour>
			<point x="48" y="427" type="line"/>
			<point x="184" y="427" type="line"/>
			<point x="405" y="421" type="line"/>
			<point x="418" y="487" type="line"/>
			<point x="192" y="487" type="line"/>
			<point x="192" y="493" type="line"/>
			<point x="58" y="478" type="line"/>
		</contour>
		<contour>
			<point name="aboveLC" x="386" y="740" type="move"/>
		</contour>
		<contour>
			<point name="belowLC" x="-59" y="-237" type="move"/>
		</contour>
	</outline>
</glyph>
<glyph name="g" format="1">
	<unicode hex="0067"/>
	<advance width="562"/>
	<outline>
		<contour>
			<point x="-39" y="-141" type="curve" smooth="yes"/>
			<point x="-39" y="-209"/>
			<point x="44" y="-232"/>
			<point x="169" y="-232" type="curve" smooth="yes"/>
			<point x="377" y="-232"/>
			<point x="502" y="-149"/>
			<point x="502" y="-41" type="curve" smooth="yes"/>
			<point x="502" y="25"/>
			<point x="467" y="74"/>
			<point x="350" y="85" type="curve" smooth="yes"/>
			<point x="188" y="100" type="line" smooth="yes"/>
			<point x="151" y="103"/>
			<point x="142" y="120"/>
			<point x="142" y="136" type="curve" smooth="yes"/>
			<point x="142" y="149"/>
			<point x="144" y="157"/>
			<point x="180" y="186" type="curve"/>
			<point x="157" y="206" type="line"/>
			<point x="70" y="158"/>
			<point x="14" y="119"/>
			<point x="14" y="50" type="curve" smooth="yes"/>
			<point x="14" y="4"/>
			<point x="51" y="-27"/>
			<point x="97" y="-32" type="curve" smooth="yes"/>
			<point x="264" y="-51" type="line" smooth="yes"/>
			<point x="323" y="-58"/>
			<point x="353" y="-73"/>
			<point x="353" y="-104" type="curve" smooth="yes"/>
			<point x="353" y="-145"/>
			<point x="306" y="-169"/>
			<point x="227" y="-169" type="curve" smooth="yes"/>
			<point x="142" y="-169"/>
			<point x="88" y="-150"/>
			<point x="88" y="-97" type="curve" smooth="yes"/>
			<point x="88" y="-61"/>
			<point x="122" y="-33"/>
			<point x="133" y="-22" type="curve"/>
			<point x="115" y="-12" type="line"/>
			<point x="42" y="-37"/>
			<point x="-39" y="-75"/>
		</contour>
		<contour>
			<point x="220" y="333" type="curve" smooth="yes"/>
			<point x="220" y="424"/>
			<point x="254" y="456"/>
			<point x="278" y="456" type="curve" smooth="yes"/>
			<point x="315" y="456"/>
			<point x="339" y="405"/>
			<point x="339" y="317" type="curve" smooth="yes"/>
			<point x="339" y="217"/>
			<point x="310" y="194"/>
			<point x="281" y="194" type="curve" smooth="yes"/>
			<point x="235" y="194"/>
			<point x="220" y="272"/>
		</contour>
		<contour>
			<point x="479" y="348" type="curve" smooth="yes"/>
			<point x="483" y="391"/>
			<point x="495" y="431"/>
			<point x="515" y="461" type="curve"/>
			<point x="466" y="437" type="line"/>
			<point x="496" y="410" type="line" smooth="yes"/>
			<point x="521" y="387"/>
			<point x="534" y="382"/>
			<point x="553" y="382" type="curve" smooth="yes"/>
			<point x="601" y="382"/>
			<point x="622" y="422"/>
			<point x="623" y="457" type="curve"/>
			<point x="613" y="498"/>
			<point x="585" y="523"/>
			<point x="553" y="523" type="curve" smooth="yes"/>
			<point x="490" y="523"/>
			<point x="450" y="467"/>
			<point x="448" y="372" type="curve"/>
			<point x="456" y="374" type="line"/>
			<point x="450" y="436"/>
			<point x="394" y="503"/>
			<point x="296" y="503" type="curve" smooth="yes"/>
			<point x="166" y="503"/>
			<point x="70" y="421"/>
			<point x="70" y="302" type="curve" smooth="yes"/>
			<point x="70" y="221"/>
			<point x="126" y="149"/>
			<point x="253" y="149" type="curve" smooth="yes"/>
			<point x="388" y="149"/>
			<point x="467" y="232"/>
		</contour>
		<contour>
			<point name="aboveLC" x="299" y="520" type="move"/>
		</contour>
		<contour>
			<point name="belowLC" x="166" y="-230" type="move"/>
		</contour>
	</outline>
</glyph>
<glyph name="h" format="1">
	<unicode hex="0068"/>
	<advance width="593"/>
	<outline>
		<contour>
			<point x="8" y="0" type="line"/>
			<point x="184" y="0" type="line"/>
			<point x="198" y="73"/>
			<point x="206" y="125"/>
			<point x="227" y="217" type="curve" smooth="yes"/>
			<point x="336" y="697" type="line"/>
			<point x="320" y="711" type="line"/>
			<point x="90" y="642" type="line"/>
			<point x="83" y="601" type="line"/>
			<point x="214" y="586" type="line"/>
			<point x="142" y="621" type="line"/>
			<point x="130" y="549"/>
			<point x="115" y="476"/>
			<point x="99" y="404" type="curve" smooth="yes"/>
		</contour>
		<contour>
			<point x="392" y="-18" type="curve" smooth="yes"/>
			<point x="503" y="-18"/>
			<point x="560" y="51"/>
			<point x="603" y="132" type="curve"/>
			<point x="568" y="155" type="line"/>
			<point x="534" y="107"/>
			<point x="515" y="82"/>
			<point x="494" y="82" type="curve" smooth="yes"/>
			<point x="483" y="82"/>
			<point x="478" y="89"/>
			<point x="478" y="102" type="curve" smooth="yes"/>
			<point x="478" y="112"/>
			<point x="481" y="123"/>
			<point x="485" y="139" type="curve" smooth="yes"/>
			<point x="537" y="333" type="line" smooth="yes"/>
			<point x="545" y="364"/>
			<point x="548" y="391"/>
			<point x="548" y="416" type="curve" smooth="yes"/>
			<point x="548" y="476"/>
			<point x="511" y="505"/>
			<point x="460" y="505" type="curve" smooth="yes"/>
			<point x="381" y="505"/>
			<point x="317" y="459"/>
			<point x="238" y="372" type="curve"/>
			<point x="277" y="387" type="line"/>
			<point x="224" y="387" type="line"/>
			<point x="220" y="325" type="line"/>
			<point x="240" y="325" type="line"/>
			<point x="281" y="370"/>
			<point x="319" y="389"/>
			<point x="350" y="389" type="curve" smooth="yes"/>
			<point x="363" y="389"/>
			<point x="371" y="382"/>
			<point x="371" y="365" type="curve" smooth="yes"/>
			<point x="371" y="349"/>
			<point x="367" y="324"/>
			<point x="359" y="294" type="curve" smooth="yes"/>
			<point x="316" y="141" type="line" smooth="yes"/>
			<point x="309" y="115"/>
			<point x="303" y="92"/>
			<point x="303" y="59" type="curve" smooth="yes"/>
			<point x="303" y="7"/>
			<point x="332" y="-18"/>
		</contour>
	</outline>
</glyph>
<glyph name="i" format="1">
	<unicode hex="0069"/>
	<advance width="333"/>
	<outline>
		<contour>
			<point x="47" y="83" type="curve" smooth="yes"/>
			<point x="47" y="26"/>
			<point x="74" y="-16"/>
			<point x="146" y="-16" type="curve" smooth="yes"/>
			<point x="239" y="-16"/>
			<point x="296" y="53"/>
			<point x="339" y="134" type="curve"/>
			<point x="304" y="157" type="line"/>
			<point x="270" y="109"/>
			<point x="251" y="84"/>
			<point x="230" y="84" type="curve" smooth="yes"/>
			<point x="219" y="84"/>
			<point x="214" y="91"/>
			<point x="214" y="104" type="curve" smooth="yes"/>
			<point x="214" y="114"/>
			<point x="217" y="122"/>
			<point x="221" y="142" type="curve" smooth="yes"/>
			<point x="298" y="490" type="line"/>
			<point x="281" y="505" type="line"/>
			<point x="51" y="436" type="line"/>
			<point x="44" y="395" type="line"/>
			<point x="175" y="380" type="line"/>
			<point x="108" y="415" type="line"/>
			<point x="57" y="165" type="line" smooth="yes"/>
			<point x="53" y="145"/>
			<point x="47" y="109"/>
		</contour>
		<contour>
			<point x="246" y="581" type="curve" smooth="yes"/>
			<point x="296" y="581"/>
			<point x="342" y="620"/>
			<point x="342" y="676" type="curve" smooth="yes"/>
			<point x="342" y="719"/>
			<point x="308" y="751"/>
			<point x="262" y="751" type="curve" smooth="yes"/>
			<point x="212" y="751"/>
			<point x="165" y="713"/>
			<point x="165" y="657" type="curve" smooth="yes"/>
			<point x="165" y="610"/>
			<point x="205" y="581"/>
		</contour>
		<contour>
			<point name="aboveLC" x="265" y="728" type="move"/>
		</contour>
		<contour>
			<point name="belowLC" x="134" y="-22" type="move"/>
		</contour>
		<contour>
			<point name="ogonek" x="198" y="0" type="move"/>
		</contour>
	</outline>
</glyph>
<glyph name="j" format="1">
	<unicode hex="006A"/>
	<advance width="311"/>
	<outline>
		<contour>
			<point x="-74" y="-232" type="line"/>
			<point x="20" y="-228"/>
			<point x="89" y="-190"/>
			<point x="131" y="-136" type="curve" smooth="yes"/>
			<point x="166" y="-92"/>
			<point x="194" y="-29"/>
			<point x="216" y="79" type="curve" smooth="yes"/>
			<point x="298" y="488" type="line"/>
			<point x="279" y="505" type="line"/>
			<point x="51" y="436" type="line"/>
			<point x="44" y="395" type="line"/>
			<point x="175" y="380" type="line"/>
			<point x="108" y="415" type="line"/>
			<point x="43" y="52" type="line" smooth="yes"/>
			<point x="25" y="-49"/>
			<point x="13" y="-109"/>
			<point x="-6" y="-139" type="curve" smooth="yes"/>
			<point x="-27" y="-172"/>
			<point x="-51" y="-186"/>
			<point x="-80" y="-197" type="curve"/>
		</contour>
		<contour>
			<point x="250" y="581" type="curve" smooth="yes"/>
			<point x="300" y="581"/>
			<point x="346" y="620"/>
			<point x="346" y="676" type="curve" smooth="yes"/>
			<point x="346" y="719"/>
			<point x="312" y="751"/>
			<point x="266" y="751" type="curve" smooth="yes"/>
			<point x="216" y="751"/>
			<point x="169" y="713"/>
			<point x="169" y="657" type="curve" smooth="yes"/>
			<point x="169" y="610"/>
			<point x="209" y="581"/>
		</contour>
		<contour>
			<point name="aboveLC" x="261" y="728" type="move"/>
		</contour>
		<contour>
			<point name="belowLC" x="-4" y="-249" type="move"/>
		</contour>
	</outline>
</glyph>
<glyph name="k" format="1">
	<unicode hex="006B"/>
	<advance width="550"/>
	<outline>
		<contour>
			<point x="24" y="5" type="line"/>
			<point x="40" y="-8" type="line"/>
			<point x="195" y="0" type="line"/>
			<point x="207" y="73"/>
			<point x="218" y="125"/>
			<point x="238" y="217" type="curve" smooth="yes"/>
			<point x="343" y="697" type="line"/>
			<point x="327" y="711" type="line"/>
			<point x="97" y="642" type="line"/>
			<point x="91" y="601" type="line"/>
			<point x="224" y="586" type="line"/>
			<point x="152" y="621" type="line"/>
			<point x="142" y="549"/>
			<point x="125" y="476"/>
			<point x="110" y="404" type="curve" smooth="yes"/>
		</contour>
		<contour>
			<point x="545" y="0" type="curve"/>
			<point x="551" y="36" type="line"/>
			<point x="531" y="40" type="line" smooth="yes"/>
			<point x="509" y="44"/>
			<point x="495" y="59"/>
			<point x="482" y="91" type="curve" smooth="yes"/>
			<point x="451" y="167" type="line" smooth="yes"/>
			<point x="425" y="231"/>
			<point x="374" y="265"/>
			<point x="306" y="269" type="curve" smooth="yes"/>
			<point x="240" y="273" type="line"/>
			<point x="236" y="265" type="line"/>
			<point x="454" y="319" type="line" smooth="yes"/>
			<point x="531" y="338"/>
			<point x="565" y="364"/>
			<point x="565" y="412" type="curve" smooth="yes"/>
			<point x="565" y="456"/>
			<point x="533" y="489"/>
			<point x="486" y="497" type="curve"/>
			<point x="221" y="267" type="line"/>
			<point x="219" y="258" type="line"/>
			<point x="226" y="255" type="line" smooth="yes"/>
			<point x="250" y="245"/>
			<point x="254" y="233"/>
			<point x="270" y="181" type="curve" smooth="yes"/>
			<point x="299" y="89" type="line" smooth="yes"/>
			<point x="324" y="8"/>
			<point x="371" y="-16"/>
			<point x="441" y="-16" type="curve" smooth="yes"/>
			<point x="481" y="-16"/>
			<point x="517" y="-10"/>
		</contour>
		<contour>
			<point name="aboveLC" x="244" y="710" type="move"/>
		</contour>
		<contour>
			<point name="belowLC" x="265" y="-22" type="move"/>
		</contour>
	</outline>
</glyph>
<glyph name="l" format="1">
	<unicode hex="006C"/>
	<advance width="323"/>
	<outline>
		<contour>
			<point x="141" y="-16" type="curve" smooth="yes"/>
			<point x="227" y="-16"/>
			<point x="288" y="60"/>
			<point x="329" y="134" type="curve"/>
			<point x="294" y="157" type="line"/>
			<point x="260" y="109"/>
			<point x="241" y="84"/>
			<point x="220" y="84" type="curve" smooth="yes"/>
			<point x="209" y="84"/>
			<point x="204" y="91"/>
			<point x="204" y="104" type="curve" smooth="yes"/>
			<point x="204" y="114"/>
			<point x="206" y="125"/>
			<point x="209" y="141" type="curve" smooth="yes"/>
			<point x="324" y="697" type="line"/>
			<point x="307" y="711" type="line"/>
			<point x="79" y="642" type="line"/>
			<point x="73" y="601" type="line"/>
			<point x="204" y="586" type="line"/>
			<point x="131" y="621" type="line"/>
			<point x="121" y="549"/>
			<point x="108" y="476"/>
			<point x="93" y="404" type="curve" smooth="yes"/>
			<point x="56" y="220" type="line" smooth="yes"/>
			<point x="45" y="164"/>
			<point x="38" y="117"/>
			<point x="38" y="89" type="curve" smooth="yes"/>
			<point x="38" y="24"/>
			<point x="73" y="-16"/>
		</contour>
		<contour>
			<point name="aboveLC" x="229" y="710" type="move"/>
		</contour>
		<contour>
			<point name="belowLC" x="125" y="-22" type="move"/>
		</contour>
	</outline>
</glyph>
<glyph name="m" format="1">
	<unicode hex="006D"/>
	<advance width="889"/>
	<outline>
		<contour>
			<point x="22" y="0" type="line"/>
			<point x="194" y="0" type="line"/>
			<point x="208" y="73"/>
			<point x="221" y="144"/>
			<point x="237" y="216" type="curve" smooth="yes"/>
			<point x="269" y="366" type="line"/>
			<point x="292" y="487" type="line"/>
			<point x="271" y="505" type="line"/>
			<point x="51" y="436" type="line"/>
			<point x="44" y="395" type="line"/>
			<point x="175" y="380" type="line"/>
			<point x="108" y="415" type="line"/>
		</contour>
		<contour>
			<point x="543" y="331" type="line" smooth="yes"/>
			<point x="549" y="362"/>
			<point x="554" y="389"/>
			<point x="554" y="414" type="curve" smooth="yes"/>
			<point x="554" y="474"/>
			<point x="517" y="503"/>
			<point x="466" y="503" type="curve" smooth="yes"/>
			<point x="387" y="503"/>
			<point x="323" y="459"/>
			<point x="244" y="372" type="curve"/>
			<point x="283" y="387" type="line"/>
			<point x="230" y="387" type="line"/>
			<point x="226" y="325" type="line"/>
			<point x="246" y="325" type="line"/>
			<point x="287" y="370"/>
			<point x="325" y="387"/>
			<point x="355" y="387" type="curve" smooth="yes"/>
			<point x="366" y="387"/>
			<point x="377" y="378"/>
			<point x="377" y="363" type="curve" smooth="yes"/>
			<point x="377" y="347"/>
			<point x="371" y="322"/>
			<point x="365" y="292" type="curve" smooth="yes"/>
			<point x="304" y="0" type="line"/>
			<point x="476" y="0" type="line"/>
			<point x="490" y="73"/>
			<point x="504" y="144"/>
			<point x="519" y="216" type="curve" smooth="yes"/>
		</contour>
		<contour>
			<point x="684" y="-16" type="curve" smooth="yes"/>
			<point x="795" y="-16"/>
			<point x="852" y="53"/>
			<point x="895" y="134" type="curve"/>
			<point x="860" y="157" type="line"/>
			<point x="826" y="109"/>
			<point x="807" y="84"/>
			<point x="786" y="84" type="curve" smooth="yes"/>
			<point x="775" y="84"/>
			<point x="770" y="91"/>
			<point x="770" y="104" type="curve" smooth="yes"/>
			<point x="770" y="114"/>
			<point x="773" y="125"/>
			<point x="777" y="141" type="curve" smooth="yes"/>
			<point x="825" y="331" type="line" smooth="yes"/>
			<point x="833" y="362"/>
			<point x="836" y="389"/>
			<point x="836" y="414" type="curve" smooth="yes"/>
			<point x="836" y="474"/>
			<point x="799" y="503"/>
			<point x="748" y="503" type="curve" smooth="yes"/>
			<point x="669" y="503"/>
			<point x="605" y="462"/>
			<point x="526" y="375" type="curve"/>
			<point x="565" y="385" type="line"/>
			<point x="512" y="385" type="line"/>
			<point x="508" y="323" type="line"/>
			<point x="528" y="323" type="line"/>
			<point x="569" y="368"/>
			<point x="607" y="387"/>
			<point x="637" y="387" type="curve" smooth="yes"/>
			<point x="648" y="387"/>
			<point x="659" y="378"/>
			<point x="659" y="363" type="curve" smooth="yes"/>
			<point x="659" y="347"/>
			<point x="655" y="322"/>
			<point x="647" y="292" type="curve" smooth="yes"/>
			<point x="608" y="143" type="line" smooth="yes"/>
			<point x="601" y="117"/>
			<point x="595" y="94"/>
			<point x="595" y="63" type="curve" smooth="yes"/>
			<point x="595" y="12"/>
			<point x="624" y="-16"/>
		</contour>
		<contour>
			<point name="aboveLC" x="496" y="520" type="move"/>
		</contour>
		<contour>
			<point name="belowLC" x="400" y="-22" type="move"/>
		</contour>
	</outline>
</glyph>
<glyph name="n" format="1">
	<unicode hex="006E"/>
	<advance width="605"/>
	<outline>
		<contour>
			<point x="404" y="-18" type="curve" smooth="yes"/>
			<point x="515" y="-18"/>
			<point x="572" y="51"/>
			<point x="615" y="132" type="curve"/>
			<point x="580" y="155" type="line"/>
			<point x="546" y="107"/>
			<point x="527" y="82"/>
			<point x="506" y="82" type="curve" smooth="yes"/>
			<point x="495" y="82"/>
			<point x="490" y="89"/>
			<point x="490" y="102" type="curve" smooth="yes"/>
			<point x="490" y="112"/>
			<point x="493" y="123"/>
			<point x="497" y="139" type="curve" smooth="yes"/>
			<point x="549" y="333" type="line" smooth="yes"/>
			<point x="557" y="364"/>
			<point x="560" y="391"/>
			<point x="560" y="416" type="curve" smooth="yes"/>
			<point x="560" y="476"/>
			<point x="523" y="505"/>
			<point x="472" y="505" type="curve" smooth="yes"/>
			<point x="393" y="505"/>
			<point x="329" y="459"/>
			<point x="250" y="372" type="curve"/>
			<point x="289" y="387" type="line"/>
			<point x="236" y="387" type="line"/>
			<point x="232" y="325" type="line"/>
			<point x="252" y="325" type="line"/>
			<point x="293" y="370"/>
			<point x="331" y="389"/>
			<point x="360" y="389" type="curve" smooth="yes"/>
			<point x="373" y="389"/>
			<point x="383" y="380"/>
			<point x="383" y="364" type="curve" smooth="yes"/>
			<point x="383" y="349"/>
			<point x="379" y="324"/>
			<point x="371" y="294" type="curve" smooth="yes"/>
			<point x="328" y="141" type="line" smooth="yes"/>
			<point x="321" y="115"/>
			<point x="315" y="92"/>
			<point x="315" y="59" type="curve" smooth="yes"/>
			<point x="315" y="7"/>
			<point x="344" y="-18"/>
		</contour>
		<contour>
			<point x="24" y="0" type="line"/>
			<point x="196" y="0" type="line"/>
			<point x="210" y="73"/>
			<point x="223" y="144"/>
			<point x="239" y="216" type="curve" smooth="yes"/>
			<point x="271" y="366" type="line"/>
			<point x="294" y="487" type="line"/>
			<point x="273" y="505" type="line"/>
			<point x="53" y="436" type="line"/>
			<point x="46" y="395" type="line"/>
			<point x="177" y="380" type="line"/>
			<point x="110" y="415" type="line"/>
		</contour>
	</outline>
</glyph>
<glyph name="o" format="1">
	<unicode hex="006F"/>
	<advance width="560"/>
	<outline>
		<contour>
			<point x="234" y="-18" type="curve" smooth="yes"/>
			<point x="420" y="-18"/>
			<point x="545" y="127"/>
			<point x="545" y="312" type="curve" smooth="yes"/>
			<point x="545" y="445"/>
			<point x="470" y="505"/>
			<point x="348" y="505" type="curve" smooth="yes"/>
			<point x="179" y="505"/>
			<point x="34" y="375"/>
			<point x="34" y="174" type="curve" smooth="yes"/>
			<point x="34" y="43"/>
			<point x="116" y="-18"/>
		</contour>
		<contour>
			<point x="252" y="42" type="curve" smooth="yes"/>
			<point x="229" y="42"/>
			<point x="208" y="54"/>
			<point x="208" y="97" type="curve" smooth="yes"/>
			<point x="208" y="239"/>
			<point x="271" y="445"/>
			<point x="332" y="445" type="curve" smooth="yes"/>
			<point x="351" y="445"/>
			<point x="370" y="433"/>
			<point x="370" y="390" type="curve" smooth="yes"/>
			<point x="370" y="256"/>
			<point x="310" y="42"/>
		</contour>
	</outline>
</glyph>
<glyph name="p" format="1">
	<unicode hex="0070"/>
	<advance width="569"/>
	<outline>
		<contour>
			<point x="-21" y="-222" type="line"/>
			<point x="154" y="-222" type="line"/>
			<point x="167" y="-149"/>
			<point x="180" y="-78"/>
			<point x="194" y="-6" type="curve" smooth="yes"/>
			<point x="292" y="487" type="line"/>
			<point x="271" y="505" type="line"/>
			<point x="51" y="436" type="line"/>
			<point x="45" y="395" type="line"/>
			<point x="176" y="380" type="line"/>
			<point x="109" y="415" type="line"/>
		</contour>
		<contour>
			<point x="125" y="25" type="line"/>
			<point x="154" y="-3"/>
			<point x="190" y="-16"/>
			<point x="228" y="-16" type="curve" smooth="yes"/>
			<point x="409" y="-16"/>
			<point x="557" y="151"/>
			<point x="557" y="344" type="curve" smooth="yes"/>
			<point x="557" y="466"/>
			<point x="505" y="503"/>
			<point x="448" y="503" type="curve" smooth="yes"/>
			<point x="381" y="503"/>
			<point x="302" y="451"/>
			<point x="249" y="377" type="curve"/>
			<point x="254" y="347" type="line"/>
			<point x="274" y="365"/>
			<point x="304" y="387"/>
			<point x="332" y="387" type="curve" smooth="yes"/>
			<point x="365" y="387"/>
			<point x="385" y="363"/>
			<point x="385" y="299" type="curve" smooth="yes"/>
			<point x="385" y="239"/>
			<point x="369" y="160"/>
			<point x="339" y="118" type="curve" smooth="yes"/>
			<point x="307" y="72"/>
			<point x="270" y="44"/>
			<point x="216" y="44" type="curve" smooth="yes"/>
			<point x="191" y="44"/>
			<point x="170" y="47"/>
			<point x="133" y="56" type="curve"/>
		</contour>
		<contour>
			<point x="-69" y="-222" type="line"/>
			<point x="217" y="-222" type="line"/>
			<point x="225" y="-181" type="line"/>
			<point x="101" y="-161" type="line"/>
			<point x="51" y="-161" type="line"/>
			<point x="-61" y="-181" type="line"/>
		</contour>
		<contour>
			<point name="aboveLC" x="336" y="520" type="move"/>
		</contour>
		<contour>
			<point name="belowLC" x="56" y="-240" type="move"/>
		</contour>
	</outline>
</glyph>
<glyph name="q" format="1">
	<unicode hex="0071"/>
	<advance width="580"/>
	<outline>
		<contour>
			<point x="142" y="-16" type="curve" smooth="yes"/>
			<point x="212" y="-16"/>
			<point x="297" y="35"/>
			<point x="351" y="110" type="curve"/>
			<point x="346" y="140" type="line"/>
			<point x="325" y="120"/>
			<point x="289" y="100"/>
			<point x="257" y="100" type="curve" smooth="yes"/>
			<point x="224" y="100"/>
			<point x="204" y="124"/>
			<point x="204" y="188" type="curve" smooth="yes"/>
			<point x="204" y="249"/>
			<point x="232" y="354"/>
			<point x="279" y="396" type="curve" smooth="yes"/>
			<point x="289" y="405"/>
			<point x="295" y="409"/>
			<point x="313" y="409" type="curve" smooth="yes"/>
			<point x="349" y="409"/>
			<point x="373" y="401"/>
			<point x="396" y="386" type="curve"/>
			<point x="485" y="462" type="line"/>
			<point x="456" y="490"/>
			<point x="420" y="503"/>
			<point x="382" y="503" type="curve" smooth="yes"/>
			<point x="227" y="503"/>
			<point x="33" y="312"/>
			<point x="33" y="132" type="curve" smooth="yes"/>
			<point x="33" y="21"/>
			<point x="85" y="-16"/>
		</contour>
		<contour>
			<point x="200" y="-222" type="line"/>
			<point x="486" y="-222" type="line"/>
			<point x="494" y="-181" type="line"/>
			<point x="374" y="-161" type="line"/>
			<point x="324" y="-161" type="line"/>
			<point x="208" y="-181" type="line"/>
		</contour>
		<contour>
			<point x="574" y="501" type="line"/>
			<point x="558" y="515" type="line"/>
			<point x="397" y="448" type="line"/>
			<point x="252" y="-222" type="line"/>
			<point x="427" y="-222" type="line"/>
			<point x="439" y="-154"/>
			<point x="451" y="-83"/>
			<point x="467" y="-6" type="curve" smooth="yes"/>
		</contour>
		<contour>
			<point name="aboveLC" x="399" y="520" type="move"/>
		</contour>
		<contour>
			<point name="belowLC" x="332" y="-240" type="move"/>
		</contour>
	</outline>
</glyph>
<glyph name="r" format="1">
	<unicode hex="0072"/>
	<advance width="484"/>
	<outline>
		<contour>
			<point x="32" y="0" type="line"/>
			<point x="204" y="0" type="line"/>
			<point x="218" y="73"/>
			<point x="233" y="144"/>
			<point x="247" y="216" type="curve" smooth="yes"/>
			<point x="263" y="301" type="line"/>
			<point x="255" y="302" type="line"/>
			<point x="287" y="487" type="line"/>
			<point x="266" y="505" type="line"/>
			<point x="61" y="436" type="line"/>
			<point x="54" y="395" type="line"/>
			<point x="185" y="380" type="line"/>
			<point x="118" y="415" type="line"/>
		</contour>
		<contour>
			<point x="207" y="231" type="line"/>
			<point x="247" y="219" type="line"/>
			<point x="274" y="289"/>
			<point x="313" y="351"/>
			<point x="357" y="398" type="curve"/>
			<point x="310" y="400" type="line"/>
			<point x="343" y="372" type="line" smooth="yes"/>
			<point x="380" y="341"/>
			<point x="397" y="325"/>
			<point x="431" y="325" type="curve" smooth="yes"/>
			<point x="478" y="325"/>
			<point x="515" y="379"/>
			<point x="515" y="425" type="curve"/>
			<point x="505" y="478"/>
			<point x="472" y="503"/>
			<point x="441" y="503" type="curve" smooth="yes"/>
			<point x="359" y="503"/>
			<point x="281" y="402"/>
			<point x="234" y="265" type="curve"/>
			<point x="252" y="269" type="line"/>
			<point x="219" y="269" type="line"/>
		</contour>
		<contour>
			<point name="aboveLC" x="329" y="520" type="move"/>
		</contour>
		<contour>
			<point name="belowLC" x="113" y="-22" type="move"/>
		</contour>
	</outline>
</glyph>
<glyph name="s" format="1">
	<unicode hex="0073"/>
	<advance width="417"/>
	<outline>
		<contour>
			<point x="188" y="18" type="line"/>
			<point x="140" y="84" type="line" smooth="yes"/>
			<point x="111" y="124"/>
			<point x="88" y="136"/>
			<point x="66" y="136" type="curve" smooth="yes"/>
			<point x="24" y="136"/>
			<point x="-12" y="96"/>
			<point x="-12" y="56" type="curve"/>
			<point x="22" y="-1"/>
			<point x="69" y="-18"/>
			<point x="153" y="-18" type="curve"/>
			<point x="272" y="-18"/>
			<point x="369" y="72"/>
			<point x="369" y="156" type="curve" smooth="yes"/>
			<point x="369" y="212"/>
			<point x="329" y="256"/>
			<point x="298" y="292" type="curve" smooth="yes"/>
			<point x="270" y="325"/>
			<point x="238" y="357"/>
			<point x="238" y="401" type="curve" smooth="yes"/>
			<point x="238" y="432"/>
			<point x="253" y="451"/>
			<point x="295" y="464" type="curve"/>
			<point x="325" y="466" type="line"/>
			<point x="259" y="484" type="line"/>
			<point x="297" y="414" type="line" smooth="yes"/>
			<point x="322" y="367"/>
			<point x="346" y="353"/>
			<point x="375" y="353" type="curve" smooth="yes"/>
			<point x="415" y="353"/>
			<point x="432" y="383"/>
			<point x="444" y="417" type="curve"/>
			<point x="430" y="467"/>
			<point x="384" y="505"/>
			<point x="297" y="505" type="curve" smooth="yes"/>
			<point x="205" y="505"/>
			<point x="85" y="435"/>
			<point x="85" y="325" type="curve" smooth="yes"/>
			<point x="85" y="269"/>
			<point x="117" y="225"/>
			<point x="151" y="189" type="curve" smooth="yes"/>
			<point x="181" y="153"/>
			<point x="205" y="115"/>
			<point x="205" y="91" type="curve"/>
			<point x="205" y="52"/>
			<point x="192" y="33"/>
			<point x="161" y="31" type="curve"/>
			<point x="100" y="22" type="line"/>
		</contour>
	</outline>
</glyph>
<glyph name="t" format="1">
	<unicode hex="0074"/>
	<advance width="370"/>
	<outline>
		<contour>
			<point x="33" y="426" type="line"/>
			<point x="169" y="426" type="line"/>
			<point x="380" y="420" type="line"/>
			<point x="393" y="486" type="line"/>
			<point x="177" y="486" type="line"/>
			<point x="177" y="492" type="line"/>
			<point x="43" y="477" type="line"/>
		</contour>
		<contour>
			<point x="54" y="141" type="line" smooth="yes"/>
			<point x="49" y="115"/>
			<point x="42" y="92"/>
			<point x="42" y="65" type="curve" smooth="yes"/>
			<point x="42" y="10"/>
			<point x="76" y="-18"/>
			<point x="128" y="-18" type="curve" smooth="yes"/>
			<point x="240" y="-18"/>
			<point x="295" y="53"/>
			<point x="338" y="134" type="curve"/>
			<point x="307" y="155" type="line"/>
			<point x="273" y="107"/>
			<point x="254" y="82"/>
			<point x="233" y="82" type="curve" smooth="yes"/>
			<point x="222" y="82"/>
			<point x="218" y="89"/>
			<point x="218" y="102" type="curve" smooth="yes"/>
			<point x="218" y="112"/>
			<point x="221" y="123"/>
			<point x="224" y="139" type="curve" smooth="yes"/>
			<point x="326" y="625" type="line"/>
			<point x="208" y="625" type="line"/>
			<point x="120" y="455" type="line"/>
		</contour>
	</outline>
</glyph>
<glyph name="u" format="1">
	<unicode hex="0075"/>
	<advance width="607"/>
	<outline>
		<contour>
			<point x="137" y="-18" type="curve" smooth="yes"/>
			<point x="209" y="-18"/>
			<point x="292" y="30"/>
			<point x="359" y="122" type="curve"/>
			<point x="351" y="156" type="line"/>
			<point x="314" y="114"/>
			<point x="281" y="98"/>
			<point x="253" y="98" type="curve" smooth="yes"/>
			<point x="235" y="98"/>
			<point x="219" y="107"/>
			<point x="219" y="137" type="curve" smooth="yes"/>
			<point x="219" y="156"/>
			<point x="224" y="174"/>
			<point x="229" y="194" type="curve" smooth="yes"/>
			<point x="299" y="487" type="line"/>
			<point x="280" y="505" type="line"/>
			<point x="53" y="436" type="line"/>
			<point x="46" y="395" type="line"/>
			<point x="177" y="380" type="line"/>
			<point x="114" y="415" type="line"/>
			<point x="54" y="154" type="line" smooth="yes"/>
			<point x="47" y="123"/>
			<point x="43" y="96"/>
			<point x="43" y="71" type="curve" smooth="yes"/>
			<point x="43" y="16"/>
			<point x="86" y="-18"/>
		</contour>
		<contour>
			<point x="330" y="141" type="line" smooth="yes"/>
			<point x="324" y="115"/>
			<point x="317" y="92"/>
			<point x="317" y="59" type="curve" smooth="yes"/>
			<point x="317" y="7"/>
			<point x="346" y="-18"/>
			<point x="406" y="-18" type="curve" smooth="yes"/>
			<point x="517" y="-18"/>
			<point x="574" y="51"/>
			<point x="617" y="132" type="curve"/>
			<point x="582" y="155" type="line"/>
			<point x="548" y="107"/>
			<point x="529" y="82"/>
			<point x="508" y="82" type="curve" smooth="yes"/>
			<point x="497" y="82"/>
			<point x="492" y="89"/>
			<point x="492" y="102" type="curve" smooth="yes"/>
			<point x="492" y="112"/>
			<point x="495" y="123"/>
			<point x="501" y="147" type="curve" smooth="yes"/>
			<point x="579" y="487" type="line"/>
			<point x="557" y="505" type="line"/>
			<point x="393" y="454" type="line"/>
			<point x="369" y="323" type="line"/>
		</contour>
	</outline>
</glyph>
<glyph name="v" format="1">
	<unicode hex="0076"/>
	<advance width="527"/>
	<outline>
		<contour>
			<point x="246" y="-10" type="line"/>
			<point x="348" y="93"/>
			<point x="439" y="212"/>
			<point x="489" y="300" type="curve" smooth="yes"/>
			<point x="521" y="356"/>
			<point x="530" y="388"/>
			<point x="530" y="420" type="curve" smooth="yes"/>
			<point x="530" y="457"/>
			<point x="526" y="474"/>
			<point x="512" y="493" type="curve"/>
			<point x="500" y="501"/>
			<point x="482" y="508"/>
			<point x="463" y="508" type="curve" smooth="yes"/>
			<point x="409" y="508"/>
			<point x="368" y="479"/>
			<point x="368" y="419" type="curve" smooth="yes"/>
			<point x="368" y="388"/>
			<point x="383" y="354"/>
			<point x="395" y="322" type="curve" smooth="yes"/>
			<point x="428" y="231" type="line"/>
			<point x="458" y="370" type="line"/>
			<point x="452" y="359"/>
			<point x="444" y="348"/>
			<point x="439" y="337" type="curve" smooth="yes"/>
			<point x="385" y="242"/>
			<point x="335" y="166"/>
			<point x="262" y="80" type="curve"/>
			<point x="297" y="87" type="line"/>
			<point x="267" y="399" type="line" smooth="yes"/>
			<point x="260" y="469"/>
			<point x="235" y="503"/>
			<point x="179" y="503" type="curve" smooth="yes"/>
			<point x="127" y="503"/>
			<point x="77" y="466"/>
			<point x="16" y="391" type="curve"/>
			<point x="35" y="360" type="line"/>
			<point x="49" y="367"/>
			<point x="69" y="376"/>
			<point x="78" y="376" type="curve" smooth="yes"/>
			<point x="89" y="376"/>
			<point x="97" y="370"/>
			<point x="100" y="346" type="curve" smooth="yes"/>
			<point x="150" y="-10" type="line"/>
		</contour>
		<contour>
			<point name="aboveLC" x="329" y="520" type="move"/>
		</contour>
		<contour>
			<point name="belowLC" x="180" y="-22" type="move"/>
		</contour>
	</outline>
</glyph>
<glyph name="w" format="1">
	<unicode hex="0077"/>
	<advance width="822"/>
	<outline>
		<contour>
			<point x="178" y="0" type="line"/>
			<point x="190" y="-10" type="line"/>
			<point x="292" y="0" type="line"/>
			<point x="440" y="303" type="line"/>
			<point x="419" y="302" type="line"/>
			<point x="467" y="0" type="line"/>
			<point x="479" y="-10" type="line"/>
			<point x="569" y="0" type="line"/>
			<point x="667" y="103"/>
			<point x="748" y="212"/>
			<point x="798" y="300" type="curve" smooth="yes"/>
			<point x="830" y="356"/>
			<point x="839" y="388"/>
			<point x="839" y="420" type="curve" smooth="yes"/>
			<point x="839" y="457"/>
			<point x="835" y="474"/>
			<point x="821" y="493" type="curve"/>
			<point x="809" y="501"/>
			<point x="791" y="508"/>
			<point x="772" y="508" type="curve" smooth="yes"/>
			<point x="718" y="508"/>
			<point x="677" y="479"/>
			<point x="677" y="419" type="curve" smooth="yes"/>
			<point x="677" y="388"/>
			<point x="692" y="354"/>
			<point x="704" y="322" type="curve" smooth="yes"/>
			<point x="737" y="231" type="line"/>
			<point x="761" y="370" type="line"/>
			<point x="755" y="359"/>
			<point x="750" y="346"/>
			<point x="745" y="335" type="curve" smooth="yes"/>
			<point x="697" y="251"/>
			<point x="653" y="178"/>
			<point x="598" y="103" type="curve"/>
			<point x="622" y="93" type="line"/>
			<point x="566" y="477" type="line"/>
			<point x="460" y="477" type="line"/>
			<point x="288" y="111" type="line"/>
			<point x="321" y="103" type="line"/>
			<point x="294" y="399" type="line" smooth="yes"/>
			<point x="288" y="469"/>
			<point x="262" y="503"/>
			<point x="206" y="503" type="curve" smooth="yes"/>
			<point x="154" y="503"/>
			<point x="104" y="466"/>
			<point x="43" y="391" type="curve"/>
			<point x="66" y="361" type="line"/>
			<point x="80" y="374"/>
			<point x="95" y="383"/>
			<point x="104" y="383" type="curve" smooth="yes"/>
			<point x="115" y="383"/>
			<point x="123" y="380"/>
			<point x="126" y="356" type="curve" smooth="yes"/>
		</contour>
		<contour>
			<point name="aboveLC" x="492" y="520" type="move"/>
		</contour>
		<contour>
			<point name="belowLC" x="347" y="-22" type="move"/>
		</contour>
	</outline>
</glyph>
<glyph name="x" format="1">
	<unicode hex="0078"/>
	<advance width="617"/>
	<outline>
		<contour>
			<point x="-3" y="71" type="curve"/>
			<point x="2" y="9"/>
			<point x="53" y="-16"/>
			<point x="97" y="-16" type="curve" smooth="yes"/>
			<point x="138" y="-16"/>
			<point x="166" y="5"/>
			<point x="189" y="34" type="curve" smooth="yes"/>
			<point x="235" y="91"/>
			<point x="271" y="153"/>
			<point x="324" y="244" type="curve"/>
			<point x="318" y="287" type="line"/>
			<point x="156" y="66" type="line" smooth="yes"/>
			<point x="148" y="55"/>
			<point x="137" y="47"/>
			<point x="128" y="37" type="curve"/>
			<point x="182" y="44" type="line"/>
			<point x="172" y="60" type="line" smooth="yes"/>
			<point x="138" y="114"/>
			<point x="114" y="138"/>
			<point x="82" y="138" type="curve" smooth="yes"/>
			<point x="40" y="138"/>
			<point x="11" y="116"/>
		</contour>
		<contour>
			<point x="294" y="66" type="line" smooth="yes"/>
			<point x="317" y="3"/>
			<point x="354" y="-20"/>
			<point x="406" y="-20" type="curve" smooth="yes"/>
			<point x="480" y="-20"/>
			<point x="533" y="36"/>
			<point x="574" y="114" type="curve"/>
			<point x="541" y="137" type="line"/>
			<point x="515" y="98"/>
			<point x="499" y="84"/>
			<point x="479" y="84" type="curve" smooth="yes"/>
			<point x="466" y="84"/>
			<point x="458" y="91"/>
			<point x="448" y="117" type="curve" smooth="yes"/>
			<point x="340" y="408" type="line" smooth="yes"/>
			<point x="318" y="468"/>
			<point x="297" y="503"/>
			<point x="235" y="503" type="curve" smooth="yes"/>
			<point x="181" y="503"/>
			<point x="133" y="465"/>
			<point x="73" y="391" type="curve"/>
			<point x="92" y="360" type="line"/>
			<point x="108" y="369"/>
			<point x="133" y="381"/>
			<point x="148" y="381" type="curve" smooth="yes"/>
			<point x="166" y="381"/>
			<point x="183" y="377"/>
			<point x="192" y="351" type="curve" smooth="yes"/>
		</contour>
		<contour>
			<point x="327" y="199" type="line"/>
			<point x="480" y="416" type="line" smooth="yes"/>
			<point x="489" y="429"/>
			<point x="502" y="436"/>
			<point x="514" y="445" type="curve"/>
			<point x="447" y="432" type="line"/>
			<point x="475" y="401" type="line" smooth="yes"/>
			<point x="500" y="373"/>
			<point x="532" y="350"/>
			<point x="563" y="350" type="curve" smooth="yes"/>
			<point x="600" y="350"/>
			<point x="634" y="388"/>
			<point x="637" y="438" type="curve"/>
			<point x="623" y="482"/>
			<point x="588" y="503"/>
			<point x="549" y="503" type="curve" smooth="yes"/>
			<point x="511" y="503"/>
			<point x="478" y="489"/>
			<point x="448" y="449" type="curve" smooth="yes"/>
			<point x="418" y="409"/>
			<point x="368" y="336"/>
			<point x="315" y="243" type="curve"/>
		</contour>
		<contour>
			<point name="aboveLC" x="389" y="520" type="move"/>
		</contour>
		<contour>
			<point name="belowLC" x="218" y="-22" type="move"/>
		</contour>
	</outline>
</glyph>
<glyph name="y" format="1">
	<unicode hex="0079"/>
	<advance width="559"/>
	<outline>
		<contour>
			<point x="-105" y="-142" type="curve" smooth="yes"/>
			<point x="-105" y="-193"/>
			<point x="-63" y="-232"/>
			<point x="-9" y="-232" type="curve" smooth="yes"/>
			<point x="58" y="-232"/>
			<point x="109" y="-201"/>
			<point x="155" y="-146" type="curve" smooth="yes"/>
			<point x="202" y="-90"/>
			<point x="227" y="-61"/>
			<point x="261" y="-16" type="curve" smooth="yes"/>
			<point x="322" y="65"/>
			<point x="385" y="138"/>
			<point x="426" y="195" type="curve" smooth="yes"/>
			<point x="459" y="241"/>
			<point x="495" y="289"/>
			<point x="520" y="324" type="curve" smooth="yes"/>
			<point x="549" y="365"/>
			<point x="572" y="400"/>
			<point x="572" y="439" type="curve" smooth="yes"/>
			<point x="572" y="482"/>
			<point x="541" y="503"/>
			<point x="505" y="503" type="curve" smooth="yes"/>
			<point x="451" y="503"/>
			<point x="426" y="472"/>
			<point x="390" y="340" type="curve" smooth="yes"/>
			<point x="349" y="188"/>
			<point x="321" y="132"/>
			<point x="286" y="64" type="curve"/>
			<point x="176" y="-61" type="line"/>
			<point x="142" y="-102"/>
			<point x="102" y="-145"/>
			<point x="60" y="-176" type="curve"/>
			<point x="88" y="-182" type="line"/>
			<point x="62" y="-136" type="line" smooth="yes"/>
			<point x="38" y="-94"/>
			<point x="11" y="-76"/>
			<point x="-24" y="-76" type="curve" smooth="yes"/>
			<point x="-51" y="-76"/>
			<point x="-83" y="-88"/>
			<point x="-99" y="-103" type="curve"/>
			<point x="-104" y="-119"/>
			<point x="-105" y="-130"/>
		</contour>
		<contour>
			<point x="298" y="68" type="line"/>
			<point x="262" y="399" type="line" smooth="yes"/>
			<point x="254" y="469"/>
			<point x="230" y="503"/>
			<point x="174" y="503" type="curve" smooth="yes"/>
			<point x="122" y="503"/>
			<point x="72" y="466"/>
			<point x="11" y="391" type="curve"/>
			<point x="30" y="360" type="line"/>
			<point x="44" y="367"/>
			<point x="64" y="376"/>
			<point x="76" y="376" type="curve" smooth="yes"/>
			<point x="86" y="376"/>
			<point x="96" y="370"/>
			<point x="100" y="346" type="curve" smooth="yes"/>
			<point x="175" y="-91" type="line"/>
		</contour>
		<contour>
			<point name="aboveLC" x="339" y="520" type="move"/>
		</contour>
		<contour>
			<point name="belowLC" x="-21" y="-240" type="move"/>
		</contour>
	</outline>
</glyph>
<glyph name="z" format="1">
	<unicode hex="007A"/>
	<advance width="535"/>
	<outline>
		<contour>
			<point x="427" y="380" type="line"/>
			<point x="370" y="441" type="line" smooth="yes"/>
			<point x="339" y="473"/>
			<point x="267" y="505"/>
			<point x="228" y="505" type="curve"/>
			<point x="183" y="505"/>
			<point x="47" y="382"/>
			<point x="47" y="293" type="curve" smooth="yes"/>
			<point x="47" y="270"/>
			<point x="49" y="258"/>
			<point x="57" y="238" type="curve"/>
			<point x="72" y="234"/>
			<point x="86" y="231"/>
			<point x="103" y="231" type="curve" smooth="yes"/>
			<point x="144" y="231"/>
			<point x="178" y="266"/>
			<point x="178" y="295" type="curve" smooth="yes"/>
			<point x="178" y="323"/>
			<point x="153" y="350"/>
			<point x="138" y="362" type="curve" smooth="yes"/>
			<point x="102" y="394" type="line"/>
			<point x="93" y="383" type="line"/>
			<point x="131" y="377"/>
			<point x="164" y="371"/>
			<point x="196" y="363" type="curve" smooth="yes"/>
			<point x="240" y="352"/>
			<point x="284" y="339"/>
			<point x="339" y="322" type="curve" smooth="yes"/>
			<point x="379" y="310" type="line"/>
		</contour>
		<contour>
			<point x="148" y="115" type="line"/>
			<point x="397" y="320" type="line" smooth="yes"/>
			<point x="468" y="379"/>
			<point x="524" y="427"/>
			<point x="545" y="489" type="curve"/>
			<point x="533" y="499" type="line"/>
			<point x="431" y="496" type="line"/>
			<point x="387" y="373" type="line"/>
			<point x="94" y="120" type="line" smooth="yes"/>
			<point x="41" y="74"/>
			<point x="7" y="46"/>
			<point x="-19" y="2" type="curve"/>
			<point x="5" y="-15" type="line"/>
			<point x="103" y="-9" type="line"/>
		</contour>
		<contour>
			<point x="99" y="83" type="line"/>
			<point x="164" y="29" type="line" smooth="yes"/>
			<point x="206" y="-6"/>
			<point x="267" y="-48"/>
			<point x="316" y="-48" type="curve" smooth="yes"/>
			<point x="383" y="-48"/>
			<point x="513" y="118"/>
			<point x="513" y="172" type="curve" smooth="yes"/>
			<point x="513" y="214"/>
			<point x="507" y="233"/>
			<point x="499" y="255" type="curve"/>
			<point x="483" y="265"/>
			<point x="468" y="273"/>
			<point x="451" y="273" type="curve" smooth="yes"/>
			<point x="412" y="273"/>
			<point x="384" y="234"/>
			<point x="384" y="203" type="curve" smooth="yes"/>
			<point x="383" y="167"/>
			<point x="409" y="148"/>
			<point x="431" y="130" type="curve" smooth="yes"/>
			<point x="459" y="108" type="line"/>
			<point x="470" y="129" type="line"/>
			<point x="449" y="120"/>
			<point x="409" y="116"/>
			<point x="367" y="116" type="curve" smooth="yes"/>
			<point x="301" y="116"/>
			<point x="257" y="135"/>
			<point x="194" y="155" type="curve" smooth="yes"/>
			<point x="156" y="167" type="line"/>
		</contour>
	</outline>
</glyph>
<glyph name="braceleft" format="1">
	<unicode hex="007B"/>
	<advance width="334"/>
	<outline>
		<contour>
			<point x="41" y="248" type="line"/>
			<point x="110" y="237"/>
			<point x="121" y="212"/>
			<point x="121" y="186" type="curve" smooth="yes"/>
			<point x="121" y="99"/>
			<point x="29" y="40"/>
			<point x="29" y="-55" type="curve" smooth="yes"/>
			<point x="29" y="-127"/>
			<point x="96" y="-159"/>
			<point x="191" y="-159" type="curve" smooth="yes"/>
			<point x="228" y="-159" type="line"/>
			<point x="240" y="-100" type="line"/>
			<point x="206" y="-97" type="line" smooth="yes"/>
			<point x="180" y="-95"/>
			<point x="163" y="-74"/>
			<point x="163" y="-44" type="curve" smooth="yes"/>
			<point x="163" y="17"/>
			<point x="221" y="94"/>
			<point x="221" y="173" type="curve" smooth="yes"/>
			<point x="221" y="236"/>
			<point x="176" y="281"/>
			<point x="81" y="288" type="curve"/>
			<point x="77" y="268" type="line"/>
			<point x="212" y="277"/>
			<point x="278" y="362"/>
			<point x="278" y="463" type="curve" smooth="yes"/>
			<point x="278" y="491"/>
			<point x="275" y="518"/>
			<point x="275" y="544" type="curve" smooth="yes"/>
			<point x="275" y="603"/>
			<point x="304" y="648"/>
			<point x="348" y="653" type="curve" smooth="yes"/>
			<point x="374" y="656" type="line"/>
			<point x="386" y="715" type="line"/>
			<point x="359" y="715" type="line" smooth="yes"/>
			<point x="244" y="715"/>
			<point x="143" y="666"/>
			<point x="143" y="552" type="curve" smooth="yes"/>
			<point x="143" y="502"/>
			<point x="166" y="463"/>
			<point x="166" y="415" type="curve" smooth="yes"/>
			<point x="166" y="365"/>
			<point x="153" y="323"/>
			<point x="53" y="308" type="curve"/>
		</contour>
	</outline>
</glyph>
<glyph name="asciitilde" format="1">
	<unicode hex="007E"/>
	<advance width="550"/>
	<outline>
		<contour>
			<point x="301" y="392" type="curve" smooth="yes"/>
			<point x="252" y="430"/>
			<point x="214" y="450"/>
			<point x="175" y="450" type="curve" smooth="yes"/>
			<point x="99" y="450"/>
			<point x="36" y="404"/>
			<point x="36" y="257" type="curve"/>
			<point x="123" y="249" type="line"/>
			<point x="127" y="323"/>
			<point x="145" y="346"/>
			<point x="172" y="346" type="curve" smooth="yes"/>
			<point x="188" y="346"/>
			<point x="198" y="338"/>
			<point x="249" y="298" type="curve" smooth="yes"/>
			<point x="298" y="260"/>
			<point x="336" y="240"/>
			<point x="374" y="240" type="curve" smooth="yes"/>
			<point x="447" y="240"/>
			<point x="514" y="286"/>
			<point x="514" y="433" type="curve"/>
			<point x="427" y="441" type="line"/>
			<point x="423" y="367"/>
			<point x="405" y="344"/>
			<point x="379" y="344" type="curve" smooth="yes"/>
			<point x="362" y="344"/>
			<point x="352" y="352"/>
		</contour>
	</outline>
</glyph>
<glyph name="cent" format="1">
	<unicode hex="00A2"/>
	<advance width="560"/>
	<outline>
		<contour>
			<point x="267" y="-115" type="line"/>
			<point x="439" y="731" type="line"/>
			<point x="371" y="731" type="line"/>
			<point x="199" y="-115" type="line"/>
		</contour>
		<component base="c" xOffset="34" yOffset="90"/>
	</outline>
</glyph>
<glyph name="yen" format="1">
	<unicode hex="00A5"/>
	<advance width="560"/>
	<outline>
		<contour>
			<point x="56" y="150" type="line"/>
			<point x="484" y="150" type="line"/>
			<point x="496" y="210" type="line"/>
			<point x="68" y="210" type="line"/>
		</contour>
		<contour>
			<point x="79" y="266" type="line"/>
			<point x="507" y="266" type="line"/>
			<point x="520" y="326" type="line"/>
			<point x="92" y="326" type="line"/>
		</contour>
		<contour>
			<point x="219" y="72" type="line"/>
			<point x="76" y="58" type="line"/>
			<point x="64" y="0" type="line"/>
			<point x="413" y="0" type="line"/>
			<point x="425" y="58" type="line"/>
			<point x="288" y="72" type="line"/>
		</contour>
		<contour>
			<point x="207" y="553" type="line"/>
			<point x="239" y="553" type="line"/>
			<point x="381" y="567" type="line"/>
			<point x="392" y="625" type="line"/>
			<point x="88" y="625" type="line"/>
			<point x="77" y="567" type="line"/>
		</contour>
		<contour>
			<point x="518" y="553" type="line"/>
			<point x="561" y="553" type="line"/>
			<point x="632" y="567" type="line"/>
			<point x="643" y="625" type="line"/>
			<point x="449" y="625" type="line"/>
			<point x="438" y="567" type="line"/>
		</contour>
		<contour>
			<point x="149" y="0" type="line"/>
			<point x="332" y="0" type="line"/>
			<point x="350" y="100"/>
			<point x="356" y="132"/>
			<point x="391" y="301" type="curve"/>
			<point x="211" y="301" type="line"/>
		</contour>
		<contour>
			<point x="358" y="245" type="line"/>
			<point x="625" y="625" type="line"/>
			<point x="540" y="625" type="line"/>
			<point x="331" y="309" type="line"/>
			<point x="363" y="309" type="line"/>
			<point x="287" y="625" type="line"/>
			<point x="102" y="625" type="line"/>
			<point x="221" y="245" type="line"/>
		</contour>
	</outline>
</glyph>
<glyph name="section" format="1">
	<unicode hex="00A7"/>
	<advance width="541"/>
	<outline>
		<contour>
			<point x="384" y="674" type="curve" smooth="yes"/>
			<point x="220" y="674"/>
			<point x="150" y="580"/>
			<point x="150" y="490" type="curve" smooth="yes"/>
			<point x="150" y="413"/>
			<point x="203" y="379"/>
			<point x="277" y="324" type="curve" smooth="yes"/>
			<point x="341" y="276"/>
			<point x="375" y="249"/>
			<point x="375" y="213" type="curve" smooth="yes"/>
			<point x="375" y="184"/>
			<point x="357" y="159"/>
			<point x="321" y="142" type="curve"/>
			<point x="353" y="105" type="line"/>
			<point x="484" y="128"/>
			<point x="536" y="195"/>
			<point x="536" y="271" type="curve" smooth="yes"/>
			<point x="536" y="334"/>
			<point x="501" y="375"/>
			<point x="425" y="429" type="curve" smooth="yes"/>
			<point x="356" y="478"/>
			<point x="302" y="507"/>
			<point x="302" y="559" type="curve" smooth="yes"/>
			<point x="302" y="592"/>
			<point x="316" y="626"/>
			<point x="391" y="627" type="curve" smooth="yes"/>
			<point x="455" y="628" type="line"/>
			<point x="379" y="643" type="line"/>
			<point x="403" y="582" type="line" smooth="yes"/>
			<point x="427" y="530"/>
			<point x="461" y="512"/>
			<point x="493" y="512" type="curve" smooth="yes"/>
			<point x="535" y="512"/>
			<point x="559" y="538"/>
			<point x="560" y="571" type="curve"/>
			<point x="547" y="629"/>
			<point x="502" y="674"/>
		</contour>
		<contour>
			<point x="181" y="-143" type="curve" smooth="yes"/>
			<point x="365" y="-143"/>
			<point x="433" y="-61"/>
			<point x="432" y="26" type="curve" smooth="yes"/>
			<point x="430" y="93"/>
			<point x="391" y="128"/>
			<point x="310" y="187" type="curve" smooth="yes"/>
			<point x="237" y="239"/>
			<point x="198" y="271"/>
			<point x="198" y="317" type="curve" smooth="yes"/>
			<point x="198" y="343"/>
			<point x="211" y="369"/>
			<point x="246" y="389" type="curve"/>
			<point x="209" y="423" type="line"/>
			<point x="86" y="400"/>
			<point x="46" y="322"/>
			<point x="46" y="246" type="curve" smooth="yes"/>
			<point x="46" y="168"/>
			<point x="92" y="129"/>
			<point x="163" y="76" type="curve" smooth="yes"/>
			<point x="231" y="25"/>
			<point x="270" y="5"/>
			<point x="271" y="-36" type="curve" smooth="yes"/>
			<point x="271" y="-69"/>
			<point x="252" y="-97"/>
			<point x="176" y="-97" type="curve" smooth="yes"/>
			<point x="148" y="-97"/>
			<point x="135" y="-96"/>
			<point x="92" y="-85" type="curve"/>
			<point x="172" y="-111" type="line"/>
			<point x="155" y="-53" type="line" smooth="yes"/>
			<point x="139" y="2"/>
			<point x="107" y="22"/>
			<point x="74" y="22" type="curve" smooth="yes"/>
			<point x="25" y="22"/>
			<point x="-2" y="-14"/>
			<point x="-1" y="-54" type="curve"/>
			<point x="17" y="-110"/>
			<point x="79" y="-143"/>
		</contour>
	</outline>
</glyph>
<glyph name="copyright" format="1">
	<unicode hex="00A9"/>
	<advance width="740"/>
	<outline>
		<contour>
			<point x="96" y="326" type="curve" smooth="yes"/>
			<point x="96" y="501"/>
			<point x="224" y="615"/>
			<point x="371" y="615" type="curve" smooth="yes"/>
			<point x="518" y="615"/>
			<point x="646" y="501"/>
			<point x="646" y="326" type="curve" smooth="yes"/>
			<point x="646" y="151"/>
			<point x="518" y="37"/>
			<point x="371" y="37" type="curve" smooth="yes"/>
			<point x="224" y="37"/>
			<point x="96" y="151"/>
		</contour>
		<contour>
			<point x="30" y="326" type="curve" smooth="yes"/>
			<point x="30" y="117"/>
			<point x="191" y="-20"/>
			<point x="371" y="-20" type="curve" smooth="yes"/>
			<point x="551" y="-20"/>
			<point x="711" y="117"/>
			<point x="711" y="326" type="curve" smooth="yes"/>
			<point x="711" y="536"/>
			<point x="551" y="672"/>
			<point x="371" y="672" type="curve" smooth="yes"/>
			<point x="191" y="672"/>
			<point x="30" y="536"/>
		</contour>
		<contour>
			<point x="417" y="166" type="curve" smooth="yes"/>
			<point x="361" y="166"/>
			<point x="310" y="219"/>
			<point x="310" y="327" type="curve" smooth="yes"/>
			<point x="310" y="435"/>
			<point x="361" y="490"/>
			<point x="419" y="490" type="curve" smooth="yes"/>
			<point x="444" y="490"/>
			<point x="464" y="478"/>
			<point x="489" y="456" type="curve"/>
			<point x="443" y="507" type="line"/>
			<point x="466" y="410" type="line"/>
			<point x="515" y="410" type="line"/>
			<point x="512" y="506" type="line"/>
			<point x="480" y="524"/>
			<point x="447" y="536"/>
			<point x="397" y="536" type="curve" smooth="yes"/>
			<point x="286" y="536"/>
			<point x="181" y="470"/>
			<point x="181" y="325" type="curve" smooth="yes"/>
			<point x="181" y="186"/>
			<point x="278" y="120"/>
			<point x="391" y="120" type="curve" smooth="yes"/>
			<point x="445" y="120"/>
			<point x="487" y="135"/>
			<point x="516" y="152" type="curve"/>
			<point x="518" y="246" type="line"/>
			<point x="469" y="246" type="line"/>
			<point x="447" y="150" type="line"/>
			<point x="493" y="199" type="line"/>
			<point x="469" y="180"/>
			<point x="444" y="166"/>
		</contour>
	</outline>
</glyph>
<glyph name="logicalnot" format="1">
	<unicode hex="00AC"/>
	<advance width="550"/>
	<outline>
		<contour>
			<point x="30" y="310" type="line"/>
			<point x="462" y="310" type="line"/>
			<point x="416" y="355" type="line"/>
			<point x="416" y="138" type="line"/>
			<point x="520" y="138" type="line"/>
			<point x="520" y="410" type="line"/>
			<point x="30" y="410" type="line"/>
		</contour>
	</outline>
</glyph>
<glyph name="registered" format="1">
	<unicode hex="00AE"/>
	<advance width="443"/>
	<outline>
		<contour>
			<point x="303" y="318" type="curve" smooth="yes"/>
			<point x="424" y="318"/>
			<point x="527" y="397"/>
			<point x="527" y="537" type="curve" smooth="yes"/>
			<point x="527" y="646"/>
			<point x="449" y="712"/>
			<point x="350" y="712" type="curve" smooth="yes"/>
			<point x="230" y="712"/>
			<point x="126" y="632"/>
			<point x="126" y="497" type="curve" smooth="yes"/>
			<point x="126" y="385"/>
			<point x="204" y="318"/>
		</contour>
		<contour>
			<point x="309" y="348" type="curve" smooth="yes"/>
			<point x="228" y="348"/>
			<point x="168" y="408"/>
			<point x="168" y="503" type="curve" smooth="yes"/>
			<point x="168" y="615"/>
			<point x="252" y="682"/>
			<point x="342" y="682" type="curve" smooth="yes"/>
			<point x="424" y="682"/>
			<point x="485" y="623"/>
			<point x="485" y="531" type="curve" smooth="yes"/>
			<point x="485" y="425"/>
			<point x="403" y="348"/>
		</contour>
		<contour>
			<point x="221" y="419" type="line"/>
			<point x="267" y="419" type="line"/>
			<point x="313" y="419" type="line"/>
			<point x="316" y="434" type="line"/>
			<point x="275" y="439" type="line"/>
			<point x="271" y="439" type="line"/>
			<point x="267" y="439" type="line"/>
			<point x="224" y="434" type="line"/>
		</contour>
		<contour>
			<point x="247" y="419" type="line"/>
			<point x="288" y="419" type="line"/>
			<point x="329" y="620" type="line"/>
			<point x="288" y="620" type="line"/>
		</contour>
		<contour>
			<point x="259" y="605" type="line"/>
			<point x="300" y="600" type="line"/>
			<point x="304" y="600" type="line"/>
			<point x="308" y="620" type="line"/>
			<point x="262" y="620" type="line"/>
		</contour>
		<contour>
			<point x="294" y="511" type="line"/>
			<point x="324" y="511" type="line" smooth="yes"/>
			<point x="385" y="511"/>
			<point x="413" y="534"/>
			<point x="413" y="570" type="curve" smooth="yes"/>
			<point x="413" y="603"/>
			<point x="388" y="620"/>
			<point x="349" y="620" type="curve" smooth="yes"/>
			<point x="316" y="620" type="line"/>
			<point x="313" y="603" type="line"/>
			<point x="348" y="603" type="line" smooth="yes"/>
			<point x="365" y="603"/>
			<point x="373" y="594"/>
			<point x="373" y="575" type="curve" smooth="yes"/>
			<point x="373" y="543"/>
			<point x="358" y="525"/>
			<point x="327" y="525" type="curve" smooth="yes"/>
			<point x="297" y="525" type="line"/>
		</contour>
		<contour>
			<point x="418" y="419" type="move"/>
			<point x="421" y="434" type="line"/>
			<point x="379" y="439" type="line"/>
			<point x="398" y="427" type="line"/>
			<point x="379" y="480" type="line" smooth="yes"/>
			<point x="370" y="505"/>
			<point x="357" y="517"/>
			<point x="334" y="517" type="curve" smooth="yes"/>
			<point x="297" y="517" type="line"/>
			<point x="295" y="508" type="line"/>
			<point x="315" y="508" type="line" smooth="yes"/>
			<point x="329" y="508"/>
			<point x="332" y="502"/>
			<point x="337" y="487" type="curve" smooth="yes"/>
			<point x="351" y="442" type="line" smooth="yes"/>
			<point x="357" y="421"/>
			<point x="365" y="416"/>
			<point x="387" y="416" type="curve" smooth="yes"/>
			<point x="397" y="416"/>
			<point x="405" y="416"/>
			<point x="418" y="419" type="curve"/>
		</contour>
	</outline>
</glyph>
<glyph name="degree" format="1">
	<unicode hex="00B0"/>
	<advance width="328"/>
	<outline>
		<contour>
			<point x="241" y="452" type="curve" smooth="yes"/>
			<point x="197" y="452"/>
			<point x="164" y="482"/>
			<point x="164" y="535" type="curve" smooth="yes"/>
			<point x="164" y="588"/>
			<point x="197" y="619"/>
			<point x="241" y="619" type="curve" smooth="yes"/>
			<point x="285" y="619"/>
			<point x="318" y="588"/>
			<point x="318" y="535" type="curve" smooth="yes"/>
			<point x="318" y="482"/>
			<point x="285" y="452"/>
		</contour>
		<contour>
			<point x="241" y="399" type="curve" smooth="yes"/>
			<point x="311" y="399"/>
			<point x="376" y="450"/>
			<point x="376" y="535" type="curve" smooth="yes"/>
			<point x="376" y="620"/>
			<point x="311" y="672"/>
			<point x="241" y="672" type="curve" smooth="yes"/>
			<point x="171" y="672"/>
			<point x="106" y="620"/>
			<point x="106" y="535" type="curve" smooth="yes"/>
			<point x="106" y="450"/>
			<point x="171" y="399"/>
		</contour>
	</outline>
</glyph>
<glyph name="plusminus" format="1">
	<unicode hex="00B1"/>
	<advance width="550"/>
	<outline>
		<contour>
			<point x="223" y="130" type="line"/>
			<point x="327" y="130" type="line"/>
			<point x="327" y="565" type="line"/>
			<point x="223" y="565" type="line"/>
		</contour>
		<contour>
			<point x="520" y="300" type="line"/>
			<point x="520" y="400" type="line"/>
			<point x="30" y="400" type="line"/>
			<point x="30" y="300" type="line"/>
		</contour>
		<contour>
			<point x="520" y="0" type="line"/>
			<point x="520" y="100" type="line"/>
			<point x="30" y="100" type="line"/>
			<point x="30" y="0" type="line"/>
		</contour>
	</outline>
</glyph>
<glyph name="AE" format="1">
	<unicode hex="00C6"/>
	<advance width="905"/>
	<outline>
		<contour>
			<point x="-29" y="0" type="line"/>
			<point x="202" y="0" type="line"/>
			<point x="214" y="59" type="line"/>
			<point x="113" y="74" type="line"/>
			<point x="80" y="74" type="line"/>
			<point x="-17" y="59" type="line"/>
		</contour>
		<contour>
			<point x="15" y="0" type="line"/>
			<point x="92" y="0" type="line"/>
			<point x="531" y="652" type="line"/>
			<point x="467" y="652" type="line"/>
		</contour>
		<contour>
			<point x="174" y="200" type="line"/>
			<point x="468" y="200" type="line"/>
			<point x="468" y="263" type="line"/>
			<point x="210" y="263" type="line"/>
		</contour>
		<contour>
			<point x="309" y="0" type="line"/>
			<point x="471" y="0" type="line"/>
			<point x="485" y="74" type="line"/>
			<point x="468" y="74" type="line"/>
			<point x="321" y="59" type="line"/>
		</contour>
		<contour>
			<point x="313" y="593" type="line"/>
			<point x="456" y="578" type="line"/>
			<point x="573" y="578" type="line"/>
			<point x="587" y="652" type="line"/>
			<point x="325" y="652" type="line"/>
		</contour>
		<contour>
			<point x="384" y="0" type="line"/>
			<point x="563" y="0" type="line"/>
			<point x="580" y="103"/>
			<point x="599" y="207"/>
			<point x="619" y="311" type="curve" smooth="yes"/>
			<point x="684" y="652" type="line"/>
			<point x="504" y="652" type="line"/>
			<point x="487" y="549"/>
			<point x="469" y="445"/>
			<point x="449" y="342" type="curve" smooth="yes"/>
		</contour>
		<contour>
			<point x="471" y="0" type="line"/>
			<point x="838" y="0" type="line"/>
			<point x="878" y="170" type="line"/>
			<point x="788" y="170" type="line"/>
			<point x="727" y="0" type="line"/>
			<point x="818" y="58" type="line"/>
			<point x="482" y="58" type="line"/>
		</contour>
		<contour>
			<point x="529" y="304" type="line"/>
			<point x="738" y="304" type="line"/>
			<point x="750" y="367" type="line"/>
			<point x="541" y="367" type="line"/>
		</contour>
		<contour>
			<point x="583" y="593" type="line"/>
			<point x="885" y="593" type="line"/>
			<point x="817" y="652" type="line"/>
			<point x="812" y="482" type="line"/>
			<point x="902" y="482" type="line"/>
			<point x="928" y="652" type="line"/>
			<point x="595" y="652" type="line"/>
		</contour>
		<contour>
			<point x="711" y="235" type="line"/>
			<point x="771" y="235" type="line"/>
			<point x="810" y="442" type="line"/>
			<point x="750" y="442" type="line"/>
			<point x="719" y="350" type="line"/>
			<point x="715" y="332" type="line"/>
		</contour>
		<contour>
			<point name="aboveUC" x="648" y="682" type="move"/>
		</contour>
	</outline>
</glyph>
<glyph name="multiply" format="1">
	<unicode hex="00D7"/>
	<advance width="550"/>
	<outline>
		<contour>
			<point x="440" y="82" type="line"/>
			<point x="513" y="155" type="line"/>
			<point x="110" y="558" type="line"/>
			<point x="37" y="485" type="line"/>
		</contour>
		<contour>
			<point x="513" y="485" type="line"/>
			<point x="440" y="558" type="line"/>
			<point x="37" y="155" type="line"/>
			<point x="110" y="82" type="line"/>
		</contour>
	</outline>
</glyph>
<glyph name="Oslash" format="1">
	<unicode hex="00D8"/>
	<advance width="672"/>
	<outline>
		<contour>
			<point x="12" y="13" type="line"/>
			<point x="49" y="-20" type="line"/>
			<point x="696" y="657" type="line"/>
			<point x="659" y="690" type="line"/>
		</contour>
		<component base="O"/>
		<contour>
			<point name="aboveUC" x="411" y="682" type="move"/>
		</contour>
	</outline>
</glyph>
<glyph name="Thorn" format="1">
	<unicode hex="00DE"/>
	<advance width="500"/>
	<outline>
		<contour>
			<point x="-84" y="-250" type="line"/>
			<point x="416" y="-250" type="line"/>
			<point x="604" y="750" type="line"/>
			<point x="105" y="750" type="line"/>
		</contour>
	</outline>
</glyph>
<glyph name="germandbls" format="1">
	<unicode hex="00DF"/>
	<advance width="516"/>
	<outline>
		<contour>
			<point x="385" y="715" type="curve" smooth="yes"/>
			<point x="424" y="715"/>
			<point x="459" y="685"/>
			<point x="459" y="628" type="curve" smooth="yes"/>
			<point x="459" y="589"/>
			<point x="439" y="558"/>
			<point x="394" y="515" type="curve" smooth="yes"/>
			<point x="330" y="455"/>
			<point x="291" y="408"/>
			<point x="291" y="352" type="curve" smooth="yes"/>
			<point x="291" y="296"/>
			<point x="328" y="249"/>
			<point x="373" y="210" type="curve" smooth="yes"/>
			<point x="424" y="165"/>
			<point x="435" y="137"/>
			<point x="435" y="106" type="curve" smooth="yes"/>
			<point x="435" y="62"/>
			<point x="400" y="23"/>
			<point x="343" y="23" type="curve" smooth="yes"/>
			<point x="317" y="23"/>
			<point x="303" y="25"/>
			<point x="282" y="31" type="curve"/>
			<point x="317" y="5" type="line"/>
			<point x="291" y="78" type="line" smooth="yes"/>
			<point x="279" y="113"/>
			<point x="262" y="123"/>
			<point x="244" y="123" type="curve" smooth="yes"/>
			<point x="223" y="123"/>
			<point x="203" y="110"/>
			<point x="199" y="86" type="curve"/>
			<point x="207" y="13"/>
			<point x="269" y="-15"/>
			<point x="334" y="-15" type="curve" smooth="yes"/>
			<point x="439" y="-15"/>
			<point x="505" y="53"/>
			<point x="505" y="129" type="curve" smooth="yes"/>
			<point x="505" y="170"/>
			<point x="488" y="211"/>
			<point x="426" y="266" type="curve" smooth="yes"/>
			<point x="391" y="298"/>
			<point x="358" y="334"/>
			<point x="358" y="374" type="curve" smooth="yes"/>
			<point x="358" y="424"/>
			<point x="398" y="453"/>
			<point x="428" y="481" type="curve" smooth="yes"/>
			<point x="480" y="530"/>
			<point x="524" y="567"/>
			<point x="524" y="630" type="curve" smooth="yes"/>
			<point x="524" y="695"/>
			<point x="491" y="750"/>
			<point x="390" y="750" type="curve" smooth="yes"/>
			<point x="347" y="750"/>
			<point x="302" y="734"/>
			<point x="261" y="701" type="curve" smooth="yes"/>
			<point x="202" y="654"/>
			<point x="173" y="601"/>
			<point x="149" y="460" type="curve" smooth="yes"/>
			<point x="82" y="49" type="line" smooth="yes"/>
			<point x="61" y="-75"/>
			<point x="36" y="-126"/>
			<point x="1" y="-165" type="curve" smooth="yes"/>
			<point x="-20" y="-188"/>
			<point x="-43" y="-206"/>
			<point x="-77" y="-218" type="curve"/>
			<point x="-28" y="-218" type="line"/>
			<point x="-51" y="-190" type="line" smooth="yes"/>
			<point x="-70" y="-166"/>
			<point x="-89" y="-156"/>
			<point x="-115" y="-156" type="curve" smooth="yes"/>
			<point x="-145" y="-156"/>
			<point x="-169" y="-173"/>
			<point x="-180" y="-197" type="curve"/>
			<point x="-173" y="-232"/>
			<point x="-144" y="-250"/>
			<point x="-93" y="-250" type="curve" smooth="yes"/>
			<point x="-51" y="-250"/>
			<point x="-15" y="-234"/>
			<point x="27" y="-200" type="curve" smooth="yes"/>
			<point x="90" y="-149"/>
			<point x="129" y="-72"/>
			<point x="145" y="20" type="curve" smooth="yes"/>
			<point x="229" y="498" type="line" smooth="yes"/>
			<point x="247" y="600"/>
			<point x="260" y="638"/>
			<point x="301" y="677" type="curve" smooth="yes"/>
			<point x="324" y="699"/>
			<point x="352" y="715"/>
		</contour>
	</outline>
</glyph>
<glyph name="ae" format="1">
	<unicode hex="00E6"/>
	<advance width="793"/>
	<outline>
		<contour>
			<point x="142" y="-16" type="curve" smooth="yes"/>
			<point x="209" y="-16"/>
			<point x="285" y="39"/>
			<point x="341" y="110" type="curve"/>
			<point x="336" y="140" type="line"/>
			<point x="316" y="122"/>
			<point x="285" y="100"/>
			<point x="257" y="100" type="curve" smooth="yes"/>
			<point x="224" y="100"/>
			<point x="204" y="124"/>
			<point x="204" y="188" type="curve" smooth="yes"/>
			<point x="204" y="249"/>
			<point x="232" y="354"/>
			<point x="279" y="396" type="curve" smooth="yes"/>
			<point x="289" y="405"/>
			<point x="295" y="409"/>
			<point x="313" y="409" type="curve" smooth="yes"/>
			<point x="367" y="409"/>
			<point x="400" y="390"/>
			<point x="437" y="366" type="curve"/>
			<point x="522" y="442" type="line"/>
			<point x="473" y="482"/>
			<point x="415" y="503"/>
			<point x="362" y="503" type="curve" smooth="yes"/>
			<point x="207" y="503"/>
			<point x="33" y="312"/>
			<point x="33" y="132" type="curve" smooth="yes"/>
			<point x="33" y="21"/>
			<point x="85" y="-16"/>
		</contour>
		<component base="e" xOffset="288"/>
		<contour>
			<point name="aboveLC" x="500" y="520" type="move"/>
		</contour>
		<contour>
			<point name="belowLC" x="339" y="-22" type="move"/>
		</contour>
	</outline>
</glyph>
<glyph name="eth" format="1">
	<unicode hex="00F0"/>
	<advance width="531"/>
	<outline>
		<contour>
			<point x="235" y="-16" type="curve" smooth="yes"/>
			<point x="415" y="-16"/>
			<point x="527" y="138"/>
			<point x="527" y="328" type="curve" smooth="yes"/>
			<point x="527" y="546"/>
			<point x="407" y="667"/>
			<point x="242" y="732" type="curve"/>
			<point x="203" y="679" type="line"/>
			<point x="312" y="617"/>
			<point x="357" y="520"/>
			<point x="385" y="404" type="curve"/>
			<point x="423" y="415" type="line"/>
			<point x="404" y="463"/>
			<point x="360" y="487"/>
			<point x="317" y="487" type="curve" smooth="yes"/>
			<point x="160" y="487"/>
			<point x="35" y="366"/>
			<point x="35" y="179" type="curve" smooth="yes"/>
			<point x="35" y="41"/>
			<point x="122" y="-16"/>
		</contour>
		<contour>
			<point x="250" y="44" type="curve" smooth="yes"/>
			<point x="225" y="44"/>
			<point x="205" y="60"/>
			<point x="205" y="140" type="curve" smooth="yes"/>
			<point x="205" y="279"/>
			<point x="253" y="427"/>
			<point x="319" y="427" type="curve" smooth="yes"/>
			<point x="346" y="427"/>
			<point x="365" y="410"/>
			<point x="365" y="338" type="curve" smooth="yes"/>
			<point x="365" y="205"/>
			<point x="319" y="44"/>
		</contour>
		<contour>
			<point x="192" y="493" type="line"/>
			<point x="566" y="680" type="line"/>
			<point x="542" y="732" type="line"/>
			<point x="169" y="546" type="line"/>
		</contour>
	</outline>
</glyph>
<glyph name="divide" format="1">
	<unicode hex="00F7"/>
	<advance width="550"/>
	<outline>
		<contour>
			<point x="275" y="65" type="curve" smooth="yes"/>
			<point x="318" y="65"/>
			<point x="351" y="96"/>
			<point x="351" y="137" type="curve" smooth="yes"/>
			<point x="351" y="177"/>
			<point x="318" y="210"/>
			<point x="275" y="210" type="curve" smooth="yes"/>
			<point x="232" y="210"/>
			<point x="199" y="177"/>
			<point x="199" y="137" type="curve" smooth="yes"/>
			<point x="199" y="96"/>
			<point x="232" y="65"/>
		</contour>
		<contour>
			<point x="275" y="430" type="curve" smooth="yes"/>
			<point x="318" y="430"/>
			<point x="351" y="462"/>
			<point x="351" y="503" type="curve" smooth="yes"/>
			<point x="351" y="543"/>
			<point x="318" y="575"/>
			<point x="275" y="575" type="curve" smooth="yes"/>
			<point x="232" y="575"/>
			<point x="199" y="543"/>
			<point x="199" y="503" type="curve" smooth="yes"/>
			<point x="199" y="462"/>
			<point x="232" y="430"/>
		</contour>
		<component base="minus"/>
	</outline>
</glyph>
<glyph name="thorn" format="1">
	<unicode hex="00FE"/>
	<advance width="485"/>
	<outline>
		<contour>
			<point x="-109" y="-240" type="line"/>
			<point x="147" y="-240" type="line"/>
			<point x="155" y="-205" type="line"/>
			<point x="35" y="-185" type="line"/>
			<point x="15" y="-185" type="line"/>
			<point x="-101" y="-205" type="line"/>
		</contour>
		<contour>
			<point x="-26" y="-240" type="curve"/>
			<point x="49" y="-240" type="line"/>
			<point x="63" y="-169"/>
			<point x="76" y="-101"/>
			<point x="91" y="-30" type="curve" smooth="yes"/>
			<point x="223" y="578" type="line"/>
			<point x="263" y="722" type="line"/>
			<point x="252" y="730" type="line"/>
			<point x="75" y="676" type="line"/>
			<point x="70" y="645" type="line"/>
			<point x="185" y="637" type="line"/>
			<point x="173" y="671" type="line"/>
			<point x="23" y="-30" type="line" smooth="yes"/>
			<point x="8" y="-100"/>
			<point x="-9" y="-170"/>
		</contour>
		<contour>
			<point x="55" y="48" type="line"/>
			<point x="89" y="4"/>
			<point x="112" y="-15"/>
			<point x="153" y="-15" type="curve" smooth="yes"/>
			<point x="291" y="-15"/>
			<point x="460" y="196"/>
			<point x="460" y="355" type="curve" smooth="yes"/>
			<point x="460" y="448"/>
			<point x="413" y="489"/>
			<point x="365" y="489" type="curve" smooth="yes"/>
			<point x="300" y="489"/>
			<point x="198" y="408"/>
			<point x="133" y="303" type="curve"/>
			<point x="142" y="280" type="line"/>
			<point x="236" y="386"/>
			<point x="287" y="420"/>
			<point x="327" y="420" type="curve" smooth="yes"/>
			<point x="370" y="420"/>
			<point x="384" y="392"/>
			<point x="384" y="334" type="curve" smooth="yes"/>
			<point x="384" y="169"/>
			<point x="282" y="54"/>
			<point x="189" y="54" type="curve" smooth="yes"/>
			<point x="160" y="54"/>
			<point x="132" y="65"/>
			<point x="97" y="101" type="curve"/>
		</contour>
	</outline>
</glyph>
<glyph name="aogonek" format="1">
	<unicode hex="0105"/>
	<advance width="568"/>
	<outline>
		<component base="a"/>
		<component base="ogonekcmb" xOffset="470"/>
		<contour>
			<point name="aboveLC" x="366" y="520" type="move"/>
		</contour>
	</outline>
</glyph>
<glyph name="dcroat" format="1">
	<unicode hex="0111"/>
	<advance width="581"/>
	<outline>
		<contour>
			<point x="299" y="519" type="line"/>
			<point x="666" y="519" type="line"/>
			<point x="678" y="579" type="line"/>
			<point x="311" y="579" type="line"/>
		</contour>
		<component base="d"/>
	</outline>
</glyph>
<glyph name="dotlessi" format="1">
	<unicode hex="0131"/>
	<advance width="323"/>
	<outline>
		<contour>
			<point x="37" y="59" type="curve" smooth="yes"/>
			<point x="37" y="7"/>
			<point x="66" y="-18"/>
			<point x="126" y="-18" type="curve" smooth="yes"/>
			<point x="235" y="-18"/>
			<point x="290" y="53"/>
			<point x="333" y="134" type="curve"/>
			<point x="302" y="155" type="line"/>
			<point x="268" y="107"/>
			<point x="249" y="82"/>
			<point x="228" y="82" type="curve" smooth="yes"/>
			<point x="217" y="82"/>
			<point x="212" y="89"/>
			<point x="212" y="102" type="curve" smooth="yes"/>
			<point x="212" y="112"/>
			<point x="214" y="120"/>
			<point x="219" y="140" type="curve" smooth="yes"/>
			<point x="300" y="490" type="line"/>
			<point x="283" y="505" type="line"/>
			<point x="53" y="436" type="line"/>
			<point x="46" y="395" type="line"/>
			<point x="177" y="380" type="line"/>
			<point x="110" y="415" type="line"/>
			<point x="50" y="141" type="line" smooth="yes"/>
			<point x="44" y="115"/>
			<point x="37" y="92"/>
		</contour>
		<contour>
			<point name="aboveLC" x="203" y="520" type="move"/>
		</contour>
		<contour>
			<point name="belowLC" x="148" y="-22" type="move"/>
		</contour>
		<contour>
			<point name="ogonek" x="182" y="0" type="move"/>
		</contour>
	</outline>
</glyph>
<glyph name="Lslash" format="1">
	<unicode hex="0141"/>
	<advance width="564"/>
	<outline>
		<contour>
			<point x="460" y="471" type="line"/>
			<point x="256" y="375" type="line"/>
			<point x="237" y="271" type="line"/>
			<point x="441" y="367" type="line"/>
		</contour>
		<contour>
			<point x="214" y="364" type="line"/>
			<point x="36" y="281" type="line"/>
			<point x="17" y="177" type="line"/>
			<point x="194" y="260" type="line"/>
		</contour>
		<component base="L"/>
	</outline>
</glyph>
<glyph name="lslash" format="1">
	<unicode hex="0142"/>
	<advance width="300"/>
	<outline>
		<contour>
			<point x="228" y="432" type="line"/>
			<point x="11" y="321" type="line"/>
			<point x="-8" y="227" type="line"/>
			<point x="209" y="338" type="line"/>
		</contour>
		<contour>
			<point x="352" y="486" type="line"/>
			<point x="129" y="372" type="line"/>
			<point x="110" y="278" type="line"/>
			<point x="333" y="392" type="line"/>
		</contour>
		<component base="l"/>
	</outline>
</glyph>
<glyph name="OE" format="1">
	<unicode hex="0152"/>
	<advance width="884"/>
	<outline>
		<contour>
			<point x="455" y="0" type="curve"/>
			<point x="454" y="58" type="line"/>
			<point x="417" y="45"/>
			<point x="376" y="40"/>
			<point x="356" y="40" type="curve" smooth="yes"/>
			<point x="282" y="40"/>
			<point x="220" y="101"/>
			<point x="220" y="222" type="curve" smooth="yes"/>
			<point x="220" y="454"/>
			<point x="319" y="612"/>
			<point x="457" y="612" type="curve" smooth="yes"/>
			<point x="501" y="612"/>
			<point x="516" y="606"/>
			<point x="569" y="593" type="curve"/>
			<point x="584" y="652" type="line"/>
			<point x="533" y="667"/>
			<point x="500" y="672"/>
			<point x="464" y="672" type="curve" smooth="yes"/>
			<point x="209" y="672"/>
			<point x="37" y="463"/>
			<point x="37" y="263" type="curve" smooth="yes"/>
			<point x="37" y="65"/>
			<point x="158" y="-20"/>
			<point x="340" y="-20" type="curve" smooth="yes"/>
			<point x="381" y="-20"/>
			<point x="412" y="-13"/>
		</contour>
		<contour>
			<point x="363" y="0" type="line"/>
			<point x="542" y="0" type="line"/>
			<point x="559" y="103"/>
			<point x="578" y="207"/>
			<point x="598" y="311" type="curve" smooth="yes"/>
			<point x="663" y="652" type="line"/>
			<point x="483" y="652" type="line"/>
			<point x="466" y="549"/>
			<point x="448" y="445"/>
			<point x="428" y="342" type="curve" smooth="yes"/>
		</contour>
		<contour>
			<point x="450" y="0" type="line"/>
			<point x="817" y="0" type="line"/>
			<point x="857" y="170" type="line"/>
			<point x="767" y="170" type="line"/>
			<point x="706" y="0" type="line"/>
			<point x="797" y="58" type="line"/>
			<point x="461" y="58" type="line"/>
		</contour>
		<contour>
			<point x="508" y="304" type="line"/>
			<point x="717" y="304" type="line"/>
			<point x="729" y="367" type="line"/>
			<point x="520" y="367" type="line"/>
		</contour>
		<contour>
			<point x="562" y="593" type="line"/>
			<point x="864" y="593" type="line"/>
			<point x="796" y="652" type="line"/>
			<point x="791" y="482" type="line"/>
			<point x="881" y="482" type="line"/>
			<point x="907" y="652" type="line"/>
			<point x="574" y="652" type="line"/>
		</contour>
		<contour>
			<point x="690" y="225" type="line"/>
			<point x="750" y="225" type="line"/>
			<point x="789" y="442" type="line"/>
			<point x="729" y="442" type="line"/>
			<point x="698" y="350" type="line"/>
			<point x="694" y="332" type="line"/>
		</contour>
	</outline>
</glyph>
<glyph name="oe" format="1">
	<unicode hex="0153"/>
	<advance width="803"/>
	<outline>
		<contour>
			<point x="224" y="-16" type="curve" smooth="yes"/>
			<point x="312" y="-16"/>
			<point x="370" y="23"/>
			<point x="425" y="115" type="curve"/>
			<point x="492" y="417" type="line"/>
			<point x="462" y="475"/>
			<point x="410" y="503"/>
			<point x="338" y="503" type="curve" smooth="yes"/>
			<point x="174" y="503"/>
			<point x="34" y="377"/>
			<point x="34" y="176" type="curve" smooth="yes"/>
			<point x="34" y="45"/>
			<point x="116" y="-16"/>
		</contour>
		<contour>
			<point x="252" y="44" type="curve" smooth="yes"/>
			<point x="229" y="44"/>
			<point x="208" y="56"/>
			<point x="208" y="99" type="curve" smooth="yes"/>
			<point x="208" y="241"/>
			<point x="271" y="443"/>
			<point x="332" y="443" type="curve" smooth="yes"/>
			<point x="351" y="443"/>
			<point x="370" y="431"/>
			<point x="370" y="388" type="curve" smooth="yes"/>
			<point x="370" y="254"/>
			<point x="310" y="44"/>
		</contour>
		<component base="e" xOffset="326"/>
	</outline>
</glyph>
<glyph name="longs" format="1">
	<unicode hex="017F"/>
	<advance width="392"/>
	<outline>
		<contour>
			<point x="401" y="731" type="curve" smooth="yes"/>
			<point x="375" y="731"/>
			<point x="335" y="727"/>
			<point x="292" y="709" type="curve" smooth="yes"/>
			<point x="219" y="678"/>
			<point x="155" y="620"/>
			<point x="136" y="440" type="curve" smooth="yes"/>
			<point x="122" y="309"/>
			<point x="108" y="177"/>
			<point x="95" y="52" type="curve" smooth="yes"/>
			<point x="84" y="-50"/>
			<point x="61" y="-103"/>
			<point x="43" y="-135" type="curve" smooth="yes"/>
			<point x="24" y="-169"/>
			<point x="1" y="-187"/>
			<point x="-24" y="-193" type="curve"/>
			<point x="33" y="-206" type="line"/>
			<point x="-5" y="-134" type="line" smooth="yes"/>
			<point x="-32" y="-83"/>
			<point x="-52" y="-71"/>
			<point x="-85" y="-71" type="curve" smooth="yes"/>
			<point x="-121" y="-71"/>
			<point x="-157" y="-108"/>
			<point x="-160" y="-143" type="curve"/>
			<point x="-142" y="-217"/>
			<point x="-83" y="-232"/>
			<point x="-24" y="-232" type="curve" smooth="yes"/>
			<point x="33" y="-232"/>
			<point x="88" y="-214"/>
			<point x="119" y="-192" type="curve" smooth="yes"/>
			<point x="183" y="-147"/>
			<point x="239" y="-88"/>
			<point x="256" y="33" type="curve" smooth="yes"/>
			<point x="278" y="192"/>
			<point x="291" y="354"/>
			<point x="315" y="513" type="curve" smooth="yes"/>
			<point x="334" y="639"/>
			<point x="351" y="681"/>
			<point x="378" y="700" type="curve" smooth="yes"/>
			<point x="392" y="710" type="line"/>
			<point x="342" y="690" type="line"/>
			<point x="382" y="631" type="line" smooth="yes"/>
			<point x="403" y="600"/>
			<point x="427" y="582"/>
			<point x="462" y="582" type="curve" smooth="yes"/>
			<point x="513" y="582"/>
			<point x="539" y="626"/>
			<point x="539" y="671" type="curve"/>
			<point x="505" y="717"/>
			<point x="453" y="731"/>
		</contour>
	</outline>
</glyph>
<glyph name="gravecmb" format="1">
	<unicode hex="0300"/>
	<outline>
		<contour>
			<point x="131" y="538" type="line"/>
			<point x="65" y="726" type="line" smooth="yes"/>
			<point x="56" y="751"/>
			<point x="45" y="764"/>
			<point x="19" y="764" type="curve" smooth="yes"/>
			<point x="1" y="764"/>
			<point x="-13" y="752"/>
			<point x="-13" y="733" type="curve" smooth="yes"/>
			<point x="-13" y="722"/>
			<point x="-8" y="710"/>
			<point x="-1" y="699" type="curve" smooth="yes"/>
			<point x="101" y="526" type="line"/>
		</contour>
	</outline>
</glyph>
<glyph name="acutecmb" format="1">
	<unicode hex="0301"/>
	<outline>
		<contour>
			<point x="61" y="563" type="curve"/>
			<point x="103" y="537" type="line"/>
			<point x="121" y="554"/>
			<point x="142" y="571"/>
			<point x="201" y="626" type="curve" smooth="yes"/>
			<point x="237" y="660"/>
			<point x="260" y="691"/>
			<point x="260" y="727" type="curve" smooth="yes"/>
			<point x="260" y="766"/>
			<point x="225" y="792"/>
			<point x="192" y="792" type="curve" smooth="yes"/>
			<point x="159" y="792"/>
			<point x="130" y="777"/>
			<point x="106" y="706" type="curve" smooth="yes"/>
			<point x="77" y="619"/>
			<point x="70" y="589"/>
		</contour>
		<contour>
			<point name="_aboveLC" x="74" y="520" type="move"/>
		</contour>
	</outline>
</glyph>
<glyph name="tildecmb" format="1">
	<unicode hex="0303"/>
	<outline>
		<contour>
			<point x="-55" y="589" type="curve"/>
			<point x="-11" y="569" type="line"/>
			<point x="4" y="597"/>
			<point x="24" y="619"/>
			<point x="53" y="619" type="curve" smooth="yes"/>
			<point x="79" y="619"/>
			<point x="107" y="605"/>
			<point x="125" y="594" type="curve" smooth="yes"/>
			<point x="149" y="582"/>
			<point x="179" y="570"/>
			<point x="207" y="570" type="curve" smooth="yes"/>
			<point x="266" y="570"/>
			<point x="318" y="622"/>
			<point x="329" y="714" type="curve"/>
			<point x="285" y="734" type="line"/>
			<point x="269" y="703"/>
			<point x="249" y="683"/>
			<point x="220" y="683" type="curve" smooth="yes"/>
			<point x="195" y="683"/>
			<point x="166" y="697"/>
			<point x="148" y="708" type="curve" smooth="yes"/>
			<point x="124" y="720"/>
			<point x="100" y="732"/>
			<point x="70" y="732" type="curve" smooth="yes"/>
			<point x="8" y="732"/>
			<point x="-44" y="682"/>
		</contour>
		<contour>
			<point name="_aboveLC" x="74" y="520" type="move"/>
		</contour>
	</outline>
</glyph>
<glyph name="dieresiscmb" format="1">
	<unicode hex="0308"/>
	<outline>
		<contour>
			<point x="-34" y="566" type="curve" smooth="yes"/>
			<point x="9" y="566"/>
			<point x="53" y="598"/>
			<point x="53" y="656" type="curve" smooth="yes"/>
			<point x="53" y="699"/>
			<point x="20" y="725"/>
			<point x="-20" y="725" type="curve" smooth="yes"/>
			<point x="-63" y="725"/>
			<point x="-108" y="693"/>
			<point x="-108" y="636" type="curve" smooth="yes"/>
			<point x="-108" y="591"/>
			<point x="-73" y="566"/>
		</contour>
		<contour>
			<point x="219" y="566" type="curve" smooth="yes"/>
			<point x="262" y="566"/>
			<point x="306" y="598"/>
			<point x="306" y="656" type="curve" smooth="yes"/>
			<point x="306" y="699"/>
			<point x="273" y="725"/>
			<point x="233" y="725" type="curve" smooth="yes"/>
			<point x="190" y="725"/>
			<point x="145" y="693"/>
			<point x="145" y="636" type="curve" smooth="yes"/>
			<point x="145" y="591"/>
			<point x="180" y="566"/>
		</contour>
		<contour>
			<point name="_aboveLC" x="74" y="520" type="move"/>
		</contour>
		<contour>
			<point name="aboveLC" x="118" y="730" type="move"/>
		</contour>
	</outline>
</glyph>
<glyph name="ringcmb" format="1">
	<unicode hex="030A"/>
	<outline>
		<contour>
			<point x="71" y="631" type="curve" smooth="yes"/>
			<point x="71" y="666"/>
			<point x="97" y="701"/>
			<point x="137" y="701" type="curve" smooth="yes"/>
			<point x="170" y="701"/>
			<point x="187" y="676"/>
			<point x="187" y="648" type="curve" smooth="yes"/>
			<point x="187" y="613"/>
			<point x="161" y="578"/>
			<point x="120" y="578" type="curve" smooth="yes"/>
			<point x="93" y="578"/>
			<point x="71" y="599"/>
		</contour>
		<contour>
			<point x="139" y="740" type="curve" smooth="yes"/>
			<point x="84" y="740"/>
			<point x="25" y="699"/>
			<point x="25" y="627" type="curve" smooth="yes"/>
			<point x="25" y="569"/>
			<point x="71" y="539"/>
			<point x="118" y="539" type="curve" smooth="yes"/>
			<point x="173" y="539"/>
			<point x="234" y="580"/>
			<point x="234" y="653" type="curve" smooth="yes"/>
			<point x="234" y="706"/>
			<point x="189" y="740"/>
		</contour>
	</outline>
</glyph>
<glyph name="commabelowcmb" format="1">
	<unicode hex="0326"/>
	<outline>
		<contour>
			<point x="-141" y="-273" type="line"/>
			<point x="-54" y="-244"/>
			<point x="16" y="-193"/>
			<point x="16" y="-126" type="curve" smooth="yes"/>
			<point x="16" y="-107"/>
			<point x="13" y="-90"/>
			<point x="6" y="-71" type="curve"/>
			<point x="-22" y="-54"/>
			<point x="-38" y="-49"/>
			<point x="-59" y="-49" type="curve" smooth="yes"/>
			<point x="-101" y="-49"/>
			<point x="-134" y="-76"/>
			<point x="-134" y="-116" type="curve" smooth="yes"/>
			<point x="-134" y="-152"/>
			<point x="-110" y="-181"/>
			<point x="-67" y="-198" type="curve"/>
			<point x="-48" y="-137" type="line"/>
			<point x="-74" y="-191"/>
			<point x="-103" y="-206"/>
			<point x="-158" y="-229" type="curve"/>
		</contour>
		<contour>
			<point name="_belowLC" x="-42" y="-22" type="move"/>
		</contour>
	</outline>
</glyph>
<glyph name="ogonekcmb" format="1">
	<unicode hex="0328"/>
	<outline>
		<contour>
			<point x="-148" y="-135" type="curve" smooth="yes"/>
			<point x="-148" y="-205"/>
			<point x="-103" y="-230"/>
			<point x="-27" y="-230" type="curve" smooth="yes"/>
			<point x="19" y="-230"/>
			<point x="44" y="-225"/>
			<point x="77" y="-209" type="curve"/>
			<point x="57" y="-116" type="line"/>
			<point x="39" y="-119"/>
			<point x="27" y="-119"/>
			<point x="12" y="-119" type="curve" smooth="yes"/>
			<point x="-23" y="-119"/>
			<point x="-48" y="-104"/>
			<point x="-48" y="-76" type="curve" smooth="yes"/>
			<point x="-48" y="-45"/>
			<point x="-21" y="-10"/>
			<point x="19" y="13" type="curve"/>
			<point x="-19" y="13" type="line"/>
			<point x="-92" y="-12"/>
			<point x="-148" y="-82"/>
		</contour>
		<contour>
			<point name="_ogonek" x="-21" y="0" type="move"/>
		</contour>
	</outline>
</glyph>
<glyph name="pi" format="1">
	<unicode hex="03C0"/>
	<advance width="605"/>
	<outline>
		<contour>
			<point x="472" y="419" type="line"/>
			<point x="448" y="308"/>
			<point x="431" y="235"/>
			<point x="420" y="185" type="curve" smooth="yes"/>
			<point x="402" y="102"/>
			<point x="397" y="83"/>
			<point x="397" y="57" type="curve" smooth="yes"/>
			<point x="397" y="15"/>
			<point x="418" y="-10"/>
			<point x="466" y="-10" type="curve" smooth="yes"/>
			<point x="498" y="-10"/>
			<point x="525" y="-2"/>
			<point x="559" y="25" type="curve"/>
			<point x="555" y="76" type="line"/>
			<point x="543" y="71" type="line" smooth="yes"/>
			<point x="530" y="66"/>
			<point x="514" y="62"/>
			<point x="501" y="62" type="curve" smooth="yes"/>
			<point x="481" y="62"/>
			<point x="469" y="74"/>
			<point x="469" y="100" type="curve" smooth="yes"/>
			<point x="469" y="116"/>
			<point x="471" y="119"/>
			<point x="481" y="180" type="curve" smooth="yes"/>
			<point x="489" y="220"/>
			<point x="503" y="289"/>
			<point x="532" y="419" type="curve"/>
		</contour>
		<contour>
			<point x="204" y="201" type="line"/>
			<point x="204" y="285" type="line"/>
			<point x="136" y="150" type="line" smooth="yes"/>
			<point x="117" y="113"/>
			<point x="93" y="72"/>
			<point x="93" y="31" type="curve" smooth="yes"/>
			<point x="93" y="-6"/>
			<point x="113" y="-15"/>
			<point x="132" y="-15" type="curve" smooth="yes"/>
			<point x="160" y="-15"/>
			<point x="176" y="-7"/>
			<point x="189" y="10" type="curve"/>
			<point x="220" y="163"/>
			<point x="240" y="261"/>
			<point x="277" y="418" type="curve"/>
			<point x="222" y="418" type="line"/>
			<point x="172" y="197" type="line"/>
		</contour>
		<contour>
			<point x="74" y="391" type="line"/>
			<point x="220" y="402" type="line"/>
			<point x="522" y="402" type="line" smooth="yes"/>
			<point x="585" y="402"/>
			<point x="634" y="411"/>
			<point x="662" y="432" type="curve"/>
			<point x="671" y="472" type="line"/>
			<point x="552" y="472" type="line"/>
			<point x="232" y="472" type="line" smooth="yes"/>
			<point x="176" y="472"/>
			<point x="113" y="452"/>
			<point x="82" y="431" type="curve"/>
		</contour>
	</outline>
</glyph>
<glyph name="Ze" format="1">
	<unicode hex="0417"/>
	<advance width="537"/>
	<outline>
		<contour>
			<point x="103" y="70" type="curve"/>
			<point x="162" y="9" type="line"/>
			<point x="154" y="117" type="line" smooth="yes"/>
			<point x="149" y="179"/>
			<point x="131" y="196"/>
			<point x="93" y="196" type="curve" smooth="yes"/>
			<point x="63" y="196"/>
			<point x="38" y="180"/>
			<point x="21" y="148" type="curve"/>
			<point x="32" y="39"/>
			<point x="81" y="-20"/>
			<point x="238" y="-20" type="curve" smooth="yes"/>
			<point x="410" y="-20"/>
			<point x="529" y="63"/>
			<point x="529" y="179" type="curve" smooth="yes"/>
			<point x="529" y="286"/>
			<point x="471" y="336"/>
			<point x="324" y="347" type="curve"/>
			<point x="322" y="334" type="line"/>
			<point x="518" y="356"/>
			<point x="544" y="448"/>
			<point x="544" y="518" type="curve" smooth="yes"/>
			<point x="544" y="614"/>
			<point x="463" y="672"/>
			<point x="343" y="672" type="curve" smooth="yes"/>
			<point x="251" y="672"/>
			<point x="188" y="658"/>
			<point x="134" y="632" type="curve"/>
			<point x="111" y="478" type="line"/>
			<point x="193" y="478" type="line"/>
			<point x="247" y="639" type="line"/>
			<point x="224" y="630" type="line"/>
			<point x="214" y="602" type="line"/>
			<point x="238" y="610"/>
			<point x="257" y="613"/>
			<point x="289" y="613" type="curve" smooth="yes"/>
			<point x="340" y="613"/>
			<point x="380" y="583"/>
			<point x="380" y="502" type="curve" smooth="yes"/>
			<point x="380" y="413"/>
			<point x="337" y="368"/>
			<point x="240" y="368" type="curve" smooth="yes"/>
			<point x="216" y="368" type="line"/>
			<point x="205" y="317" type="line"/>
			<point x="245" y="317" type="line" smooth="yes"/>
			<point x="319" y="317"/>
			<point x="356" y="277"/>
			<point x="356" y="188" type="curve" smooth="yes"/>
			<point x="356" y="81"/>
			<point x="288" y="43"/>
			<point x="218" y="43" type="curve" smooth="yes"/>
			<point x="168" y="43"/>
			<point x="136" y="55"/>
		</contour>
	</outline>
</glyph>
<glyph name="be" format="1">
	<unicode hex="0431"/>
	<advance width="555"/>
	<outline>
		<contour>
			<point x="249" y="-16" type="curve" smooth="yes"/>
			<point x="428" y="-16"/>
			<point x="558" y="131"/>
			<point x="558" y="288" type="curve" smooth="yes"/>
			<point x="558" y="401"/>
			<point x="491" y="462"/>
			<point x="354" y="462" type="curve" smooth="yes"/>
			<point x="275" y="462"/>
			<point x="147" y="410"/>
			<point x="99" y="273" type="curve"/>
			<point x="121" y="271" type="line"/>
			<point x="148" y="429"/>
			<point x="180" y="479"/>
			<point x="229" y="503" type="curve" smooth="yes"/>
			<point x="290" y="533"/>
			<point x="530" y="528"/>
			<point x="577" y="576" type="curve" smooth="yes"/>
			<point x="604" y="603"/>
			<point x="629" y="656"/>
			<point x="645" y="729" type="curve"/>
			<point x="599" y="741" type="line"/>
			<point x="579" y="711" type="line"/>
			<point x="429" y="692"/>
			<point x="295" y="700"/>
			<point x="209" y="636" type="curve" smooth="yes"/>
			<point x="127" y="576"/>
			<point x="50" y="382"/>
			<point x="50" y="190" type="curve" smooth="yes"/>
			<point x="50" y="30"/>
			<point x="147" y="-16"/>
		</contour>
		<contour>
			<point x="269" y="44" type="curve" smooth="yes"/>
			<point x="242" y="44"/>
			<point x="219" y="57"/>
			<point x="219" y="127" type="curve" smooth="yes"/>
			<point x="219" y="275"/>
			<point x="280" y="407"/>
			<point x="336" y="407" type="curve" smooth="yes"/>
			<point x="367" y="407"/>
			<point x="384" y="388"/>
			<point x="384" y="331" type="curve" smooth="yes"/>
			<point x="384" y="180"/>
			<point x="326" y="44"/>
		</contour>
	</outline>
</glyph>
<glyph name="ve" format="1">
	<unicode hex="0432"/>
	<advance width="530"/>
	<outline>
		<contour>
			<point x="248" y="-16" type="curve" smooth="yes"/>
			<point x="419" y="-16"/>
			<point x="506" y="58"/>
			<point x="506" y="144" type="curve" smooth="yes"/>
			<point x="506" y="205"/>
			<point x="467" y="251"/>
			<point x="306" y="257" type="curve"/>
			<point x="306" y="243" type="line"/>
			<point x="480" y="270"/>
			<point x="530" y="307"/>
			<point x="530" y="380" type="curve" smooth="yes"/>
			<point x="530" y="446"/>
			<point x="470" y="503"/>
			<point x="348" y="503" type="curve" smooth="yes"/>
			<point x="242" y="503"/>
			<point x="151" y="460"/>
			<point x="95" y="362" type="curve" smooth="yes"/>
			<point x="60" y="301"/>
			<point x="39" y="238"/>
			<point x="39" y="167" type="curve" smooth="yes"/>
			<point x="39" y="43"/>
			<point x="132" y="-16"/>
		</contour>
		<contour>
			<point x="275" y="44" type="curve" smooth="yes"/>
			<point x="236" y="44"/>
			<point x="203" y="66"/>
			<point x="203" y="128" type="curve" smooth="yes"/>
			<point x="203" y="216"/>
			<point x="233" y="320"/>
			<point x="251" y="373" type="curve" smooth="yes"/>
			<point x="270" y="428"/>
			<point x="302" y="443"/>
			<point x="334" y="443" type="curve" smooth="yes"/>
			<point x="372" y="443"/>
			<point x="387" y="414"/>
			<point x="387" y="377" type="curve" smooth="yes"/>
			<point x="387" y="323"/>
			<point x="355" y="283"/>
			<point x="281" y="276" type="curve" smooth="yes"/>
			<point x="191" y="267" type="line"/>
			<point x="183" y="212" type="line"/>
			<point x="215" y="220"/>
			<point x="243" y="222"/>
			<point x="274" y="222" type="curve" smooth="yes"/>
			<point x="344" y="223"/>
			<point x="361" y="184"/>
			<point x="361" y="136" type="curve" smooth="yes"/>
			<point x="361" y="85"/>
			<point x="328" y="44"/>
		</contour>
	</outline>
</glyph>
<glyph name="ghe" format="1">
	<unicode hex="0433"/>
	<advance width="465"/>
	<outline>
		<contour>
			<point x="203" y="-16" type="curve" smooth="yes"/>
			<point x="347" y="-16"/>
			<point x="401" y="69"/>
			<point x="448" y="149" type="curve"/>
			<point x="418" y="171" type="line"/>
			<point x="371" y="119"/>
			<point x="325" y="89"/>
			<point x="282" y="89" type="curve" smooth="yes"/>
			<point x="236" y="89"/>
			<point x="212" y="115"/>
			<point x="212" y="147" type="curve" smooth="yes"/>
			<point x="212" y="176"/>
			<point x="224" y="203"/>
			<point x="303" y="231" type="curve" smooth="yes"/>
			<point x="416" y="271"/>
			<point x="460" y="295"/>
			<point x="460" y="380" type="curve" smooth="yes"/>
			<point x="460" y="446"/>
			<point x="401" y="502"/>
			<point x="304" y="502" type="curve" smooth="yes"/>
			<point x="177" y="502"/>
			<point x="115" y="442"/>
			<point x="60" y="368" type="curve"/>
			<point x="87" y="343" type="line"/>
			<point x="135" y="381"/>
			<point x="182" y="397"/>
			<point x="230" y="397" type="curve" smooth="yes"/>
			<point x="274" y="397"/>
			<point x="294" y="370"/>
			<point x="294" y="342" type="curve" smooth="yes"/>
			<point x="294" y="303"/>
			<point x="280" y="277"/>
			<point x="202" y="254" type="curve" smooth="yes"/>
			<point x="74" y="217"/>
			<point x="43" y="170"/>
			<point x="43" y="100" type="curve" smooth="yes"/>
			<point x="43" y="23"/>
			<point x="115" y="-16"/>
		</contour>
	</outline>
</glyph>
<glyph name="de" format="1">
	<unicode hex="0434"/>
	<advance width="545"/>
	<outline>
		<contour>
			<point x="245" y="-15" type="curve" smooth="yes"/>
			<point x="401" y="-15"/>
			<point x="541" y="104"/>
			<point x="541" y="332" type="curve" smooth="yes"/>
			<point x="541" y="538"/>
			<point x="417" y="683"/>
			<point x="153" y="729" type="curve"/>
			<point x="135" y="680" type="line"/>
			<point x="333" y="595"/>
			<point x="387" y="485"/>
			<point x="405" y="351" type="curve"/>
			<point x="505" y="424" type="line"/>
			<point x="468" y="468"/>
			<point x="412" y="483"/>
			<point x="352" y="483" type="curve" smooth="yes"/>
			<point x="163" y="483"/>
			<point x="44" y="340"/>
			<point x="44" y="165" type="curve" smooth="yes"/>
			<point x="44" y="57"/>
			<point x="112" y="-15"/>
		</contour>
		<contour>
			<point x="264" y="45" type="curve" smooth="yes"/>
			<point x="238" y="45"/>
			<point x="215" y="57"/>
			<point x="215" y="128" type="curve" smooth="yes"/>
			<point x="215" y="284"/>
			<point x="271" y="423"/>
			<point x="330" y="423" type="curve" smooth="yes"/>
			<point x="357" y="423"/>
			<point x="378" y="411"/>
			<point x="378" y="333" type="curve" smooth="yes"/>
			<point x="378" y="186"/>
			<point x="319" y="45"/>
		</contour>
	</outline>
</glyph>
<glyph name="ka" format="1">
	<unicode hex="043A"/>
	<advance width="577"/>
	<outline>
		<contour>
			<point x="36" y="5" type="line"/>
			<point x="52" y="-8" type="line"/>
			<point x="207" y="0" type="line"/>
			<point x="221" y="73"/>
			<point x="234" y="144"/>
			<point x="250" y="216" type="curve" smooth="yes"/>
			<point x="282" y="364" type="line"/>
			<point x="305" y="487" type="line"/>
			<point x="284" y="505" type="line"/>
			<point x="64" y="436" type="line"/>
			<point x="57" y="395" type="line"/>
			<point x="188" y="380" type="line"/>
			<point x="121" y="415" type="line"/>
		</contour>
		<contour>
			<point x="422" y="-16" type="curve" smooth="yes"/>
			<point x="496" y="-16"/>
			<point x="554" y="37"/>
			<point x="600" y="121" type="curve"/>
			<point x="567" y="142" type="line"/>
			<point x="537" y="102"/>
			<point x="517" y="84"/>
			<point x="503" y="84" type="curve" smooth="yes"/>
			<point x="494" y="84"/>
			<point x="490" y="91"/>
			<point x="487" y="104" type="curve" smooth="yes"/>
			<point x="482" y="129" type="line" smooth="yes"/>
			<point x="465" y="212"/>
			<point x="438" y="250"/>
			<point x="295" y="259" type="curve"/>
			<point x="289" y="236" type="line"/>
			<point x="365" y="252"/>
			<point x="382" y="288"/>
			<point x="423" y="338" type="curve" smooth="yes"/>
			<point x="445" y="362"/>
			<point x="461" y="395"/>
			<point x="489" y="431" type="curve"/>
			<point x="402" y="380" type="line"/>
			<point x="423" y="360"/>
			<point x="455" y="336"/>
			<point x="497" y="336" type="curve" smooth="yes"/>
			<point x="539" y="336"/>
			<point x="587" y="362"/>
			<point x="587" y="420" type="curve" smooth="yes"/>
			<point x="587" y="467"/>
			<point x="560" y="492"/>
			<point x="508" y="504" type="curve"/>
			<point x="473" y="497"/>
			<point x="435" y="467"/>
			<point x="383" y="373" type="curve" smooth="yes"/>
			<point x="351" y="315"/>
			<point x="327" y="278"/>
			<point x="289" y="278" type="curve" smooth="yes"/>
			<point x="184" y="278" type="line"/>
			<point x="172" y="221" type="line"/>
			<point x="259" y="221" type="line" smooth="yes"/>
			<point x="305" y="221"/>
			<point x="312" y="204"/>
			<point x="319" y="169" type="curve" smooth="yes"/>
			<point x="341" y="64" type="line" smooth="yes"/>
			<point x="352" y="11"/>
			<point x="371" y="-16"/>
		</contour>
	</outline>
</glyph>
<glyph name="el" format="1">
	<unicode hex="043B"/>
	<advance width="597"/>
	<outline>
		<contour>
			<point x="99" y="-16" type="curve" smooth="yes"/>
			<point x="139" y="-16"/>
			<point x="165" y="-1"/>
			<point x="191" y="36" type="curve" smooth="yes"/>
			<point x="227" y="88"/>
			<point x="256" y="205"/>
			<point x="282" y="290" type="curve" smooth="yes"/>
			<point x="315" y="401"/>
			<point x="354" y="452"/>
			<point x="435" y="452" type="curve" smooth="yes"/>
			<point x="464" y="452"/>
			<point x="500" y="446"/>
			<point x="527" y="441" type="curve"/>
			<point x="421" y="477" type="line"/>
			<point x="411" y="424"/>
			<point x="402" y="372"/>
			<point x="390" y="321" type="curve" smooth="yes"/>
			<point x="354" y="165" type="line" smooth="yes"/>
			<point x="349" y="142"/>
			<point x="344" y="121"/>
			<point x="344" y="88" type="curve" smooth="yes"/>
			<point x="344" y="20"/>
			<point x="377" y="-16"/>
			<point x="431" y="-16" type="curve" smooth="yes"/>
			<point x="518" y="-16"/>
			<point x="583" y="53"/>
			<point x="620" y="121" type="curve"/>
			<point x="587" y="142" type="line"/>
			<point x="557" y="102"/>
			<point x="540" y="84"/>
			<point x="526" y="84" type="curve" smooth="yes"/>
			<point x="517" y="84"/>
			<point x="511" y="91"/>
			<point x="511" y="104" type="curve" smooth="yes"/>
			<point x="511" y="114"/>
			<point x="513" y="125"/>
			<point x="517" y="141" type="curve" smooth="yes"/>
			<point x="594" y="473" type="line"/>
			<point x="583" y="487" type="line"/>
			<point x="522" y="496"/>
			<point x="498" y="499"/>
			<point x="440" y="499" type="curve" smooth="yes"/>
			<point x="316" y="499"/>
			<point x="254" y="414"/>
			<point x="223" y="297" type="curve" smooth="yes"/>
			<point x="197" y="206"/>
			<point x="179" y="138"/>
			<point x="144" y="76" type="curve" smooth="yes"/>
			<point x="138" y="64"/>
			<point x="131" y="52"/>
			<point x="123" y="41" type="curve"/>
			<point x="219" y="107" type="line"/>
			<point x="192" y="129" type="line" smooth="yes"/>
			<point x="170" y="147"/>
			<point x="145" y="159"/>
			<point x="108" y="159" type="curve" smooth="yes"/>
			<point x="67" y="159"/>
			<point x="28" y="131"/>
			<point x="12" y="81" type="curve"/>
			<point x="12" y="12"/>
			<point x="57" y="-16"/>
		</contour>
	</outline>
</glyph>
<glyph name="em" format="1">
	<unicode hex="043C"/>
	<advance width="792"/>
	<outline>
		<contour>
			<point x="14" y="81" type="curve"/>
			<point x="18" y="13"/>
			<point x="54" y="-16"/>
			<point x="104" y="-16" type="curve" smooth="yes"/>
			<point x="142" y="-16"/>
			<point x="168" y="-1"/>
			<point x="194" y="36" type="curve" smooth="yes"/>
			<point x="230" y="88"/>
			<point x="250" y="170"/>
			<point x="274" y="255" type="curve" smooth="yes"/>
			<point x="286" y="300"/>
			<point x="299" y="344"/>
			<point x="311" y="389" type="curve"/>
			<point x="291" y="388" type="line"/>
			<point x="326" y="10" type="line"/>
			<point x="340" y="-1" type="line"/>
			<point x="395" y="10" type="line"/>
			<point x="639" y="446" type="line"/>
			<point x="602" y="446" type="line"/>
			<point x="542" y="165" type="line" smooth="yes"/>
			<point x="537" y="142"/>
			<point x="530" y="121"/>
			<point x="530" y="80" type="curve" smooth="yes"/>
			<point x="530" y="23"/>
			<point x="566" y="-16"/>
			<point x="614" y="-16" type="curve" smooth="yes"/>
			<point x="701" y="-16"/>
			<point x="766" y="53"/>
			<point x="803" y="121" type="curve"/>
			<point x="770" y="142" type="line"/>
			<point x="740" y="102"/>
			<point x="723" y="84"/>
			<point x="709" y="84" type="curve" smooth="yes"/>
			<point x="700" y="84"/>
			<point x="694" y="91"/>
			<point x="694" y="104" type="curve" smooth="yes"/>
			<point x="694" y="114"/>
			<point x="696" y="125"/>
			<point x="700" y="141" type="curve" smooth="yes"/>
			<point x="779" y="487" type="line"/>
			<point x="757" y="505" type="line"/>
			<point x="605" y="487" type="line"/>
			<point x="432" y="204" type="line"/>
			<point x="464" y="208" type="line"/>
			<point x="429" y="487" type="line"/>
			<point x="413" y="502" type="line"/>
			<point x="277" y="487" type="line"/>
			<point x="257" y="411"/>
			<point x="236" y="336"/>
			<point x="216" y="262" type="curve" smooth="yes"/>
			<point x="195" y="183"/>
			<point x="181" y="139"/>
			<point x="147" y="76" type="curve" smooth="yes"/>
			<point x="140" y="64"/>
			<point x="134" y="52"/>
			<point x="126" y="41" type="curve"/>
			<point x="222" y="107" type="line"/>
			<point x="195" y="129" type="line" smooth="yes"/>
			<point x="173" y="147"/>
			<point x="148" y="159"/>
			<point x="111" y="159" type="curve" smooth="yes"/>
			<point x="70" y="159"/>
			<point x="31" y="135"/>
		</contour>
	</outline>
</glyph>
<glyph name="en" format="1">
	<unicode hex="043D"/>
	<advance width="599"/>
	<outline>
		<contour>
			<point x="36" y="5" type="line"/>
			<point x="52" y="-8" type="line"/>
			<point x="207" y="0" type="line"/>
			<point x="221" y="73"/>
			<point x="234" y="144"/>
			<point x="250" y="216" type="curve" smooth="yes"/>
			<point x="282" y="364" type="line"/>
			<point x="305" y="487" type="line"/>
			<point x="284" y="505" type="line"/>
			<point x="64" y="436" type="line"/>
			<point x="57" y="395" type="line"/>
			<point x="188" y="380" type="line"/>
			<point x="121" y="415" type="line"/>
		</contour>
		<contour>
			<point x="124" y="233" type="line"/>
			<point x="514" y="233" type="line"/>
			<point x="514" y="288" type="line"/>
			<point x="124" y="288" type="line"/>
		</contour>
		<contour>
			<point x="348" y="91" type="curve" smooth="yes"/>
			<point x="348" y="23"/>
			<point x="384" y="-16"/>
			<point x="435" y="-16" type="curve" smooth="yes"/>
			<point x="522" y="-16"/>
			<point x="587" y="53"/>
			<point x="624" y="121" type="curve"/>
			<point x="591" y="142" type="line"/>
			<point x="561" y="102"/>
			<point x="544" y="84"/>
			<point x="530" y="84" type="curve" smooth="yes"/>
			<point x="521" y="84"/>
			<point x="515" y="91"/>
			<point x="515" y="104" type="curve" smooth="yes"/>
			<point x="515" y="114"/>
			<point x="517" y="125"/>
			<point x="521" y="141" type="curve" smooth="yes"/>
			<point x="600" y="487" type="line"/>
			<point x="578" y="505" type="line"/>
			<point x="417" y="454" type="line"/>
			<point x="409" y="409"/>
			<point x="401" y="366"/>
			<point x="392" y="323" type="curve" smooth="yes"/>
			<point x="358" y="165" type="line" smooth="yes"/>
			<point x="353" y="142"/>
			<point x="348" y="121"/>
		</contour>
	</outline>
</glyph>
<glyph name="ef" format="1">
	<unicode hex="0444"/>
	<advance width="772"/>
	<outline>
		<contour>
			<point x="44" y="181" type="curve" smooth="yes"/>
			<point x="44" y="43"/>
			<point x="132" y="-16"/>
			<point x="289" y="-16" type="curve"/>
			<point x="301" y="34" type="line"/>
			<point x="241" y="44"/>
			<point x="204" y="70"/>
			<point x="204" y="165" type="curve" smooth="yes"/>
			<point x="204" y="279"/>
			<point x="244" y="453"/>
			<point x="385" y="453" type="curve"/>
			<point x="399" y="503" type="line"/>
			<point x="163" y="503"/>
			<point x="44" y="343"/>
		</contour>
		<contour>
			<point x="188" y="-181" type="line"/>
			<point x="180" y="-222" type="line"/>
			<point x="466" y="-222" type="line"/>
			<point x="474" y="-181" type="line"/>
			<point x="354" y="-161" type="line"/>
			<point x="304" y="-161" type="line"/>
		</contour>
		<contour>
			<point x="224" y="-222" type="line"/>
			<point x="396" y="-222" type="line"/>
			<point x="409" y="-149"/>
			<point x="421" y="-78"/>
			<point x="440" y="10" type="curve" smooth="yes"/>
			<point x="586" y="697" type="line"/>
			<point x="568" y="711" type="line"/>
			<point x="342" y="642" type="line"/>
			<point x="336" y="601" type="line"/>
			<point x="467" y="586" type="line"/>
			<point x="400" y="621" type="line"/>
			<point x="390" y="549"/>
			<point x="373" y="476"/>
			<point x="350" y="369" type="curve" smooth="yes"/>
		</contour>
		<contour>
			<point x="772" y="306" type="curve" smooth="yes"/>
			<point x="772" y="445"/>
			<point x="686" y="503"/>
			<point x="529" y="503" type="curve"/>
			<point x="515" y="453" type="line"/>
			<point x="572" y="444"/>
			<point x="612" y="413"/>
			<point x="612" y="321" type="curve" smooth="yes"/>
			<point x="612" y="202"/>
			<point x="569" y="34"/>
			<point x="431" y="34" type="curve"/>
			<point x="419" y="-16" type="line"/>
			<point x="654" y="-16"/>
			<point x="772" y="142"/>
		</contour>
	</outline>
</glyph>
<glyph name="sha" format="1">
	<unicode hex="0448"/>
	<advance width="830"/>
	<outline>
		<contour>
			<point x="147" y="-16" type="curve" smooth="yes"/>
			<point x="213" y="-16"/>
			<point x="287" y="29"/>
			<point x="349" y="114" type="curve"/>
			<point x="341" y="148" type="line"/>
			<point x="310" y="113"/>
			<point x="285" y="100"/>
			<point x="263" y="100" type="curve" smooth="yes"/>
			<point x="245" y="100"/>
			<point x="229" y="109"/>
			<point x="229" y="139" type="curve" smooth="yes"/>
			<point x="229" y="158"/>
			<point x="234" y="176"/>
			<point x="239" y="196" type="curve" smooth="yes"/>
			<point x="309" y="487" type="line"/>
			<point x="290" y="505" type="line"/>
			<point x="63" y="436" type="line"/>
			<point x="56" y="395" type="line"/>
			<point x="187" y="380" type="line"/>
			<point x="124" y="415" type="line"/>
			<point x="64" y="156" type="line" smooth="yes"/>
			<point x="57" y="125"/>
			<point x="53" y="98"/>
			<point x="53" y="73" type="curve" smooth="yes"/>
			<point x="53" y="18"/>
			<point x="96" y="-16"/>
		</contour>
		<contour>
			<point x="666" y="-16" type="curve" smooth="yes"/>
			<point x="753" y="-16"/>
			<point x="818" y="53"/>
			<point x="855" y="121" type="curve"/>
			<point x="822" y="142" type="line"/>
			<point x="792" y="102"/>
			<point x="775" y="84"/>
			<point x="761" y="84" type="curve" smooth="yes"/>
			<point x="752" y="84"/>
			<point x="746" y="91"/>
			<point x="746" y="104" type="curve" smooth="yes"/>
			<point x="746" y="114"/>
			<point x="748" y="125"/>
			<point x="752" y="141" type="curve" smooth="yes"/>
			<point x="831" y="487" type="line"/>
			<point x="809" y="505" type="line"/>
			<point x="648" y="454" type="line"/>
			<point x="640" y="409"/>
			<point x="632" y="366"/>
			<point x="623" y="323" type="curve" smooth="yes"/>
			<point x="589" y="165" type="line" smooth="yes"/>
			<point x="584" y="142"/>
			<point x="579" y="121"/>
			<point x="579" y="91" type="curve" smooth="yes"/>
			<point x="579" y="23"/>
			<point x="615" y="-16"/>
		</contour>
		<contour>
			<point x="501" y="196" type="curve" smooth="yes"/>
			<point x="569" y="487" type="line"/>
			<point x="547" y="505" type="line"/>
			<point x="386" y="454" type="line"/>
			<point x="378" y="409"/>
			<point x="370" y="366"/>
			<point x="361" y="323" type="curve" smooth="yes"/>
			<point x="326" y="156" type="line" smooth="yes"/>
			<point x="319" y="125"/>
			<point x="315" y="98"/>
			<point x="315" y="73" type="curve" smooth="yes"/>
			<point x="315" y="18"/>
			<point x="358" y="-16"/>
			<point x="409" y="-16" type="curve" smooth="yes"/>
			<point x="475" y="-16"/>
			<point x="549" y="29"/>
			<point x="611" y="114" type="curve"/>
			<point x="603" y="148" type="line"/>
			<point x="572" y="113"/>
			<point x="547" y="100"/>
			<point x="525" y="100" type="curve" smooth="yes"/>
			<point x="507" y="100"/>
			<point x="491" y="109"/>
			<point x="491" y="139" type="curve" smooth="yes"/>
			<point x="491" y="158"/>
			<point x="496" y="176"/>
		</contour>
	</outline>
</glyph>
<glyph name="hard" format="1">
	<unicode hex="044A"/>
	<advance width="619"/>
	<outline>
		<contour>
			<point x="65" y="277" type="line"/>
			<point x="118" y="269" type="line"/>
			<point x="162" y="418" type="line"/>
			<point x="101" y="371" type="line"/>
			<point x="299" y="371" type="line"/>
			<point x="388" y="455" type="line"/>
			<point x="169" y="504" type="line"/>
			<point x="72" y="426" type="line"/>
		</contour>
		<contour>
			<point x="137" y="137" type="curve" smooth="yes"/>
			<point x="137" y="44"/>
			<point x="198" y="-16"/>
			<point x="343" y="-16" type="curve" smooth="yes"/>
			<point x="516" y="-16"/>
			<point x="596" y="62"/>
			<point x="596" y="154" type="curve" smooth="yes"/>
			<point x="596" y="234"/>
			<point x="544" y="309"/>
			<point x="396" y="309" type="curve" smooth="yes"/>
			<point x="358" y="309"/>
			<point x="320" y="305"/>
			<point x="296" y="301" type="curve"/>
			<point x="287" y="245" type="line"/>
			<point x="316" y="251"/>
			<point x="338" y="254"/>
			<point x="364" y="254" type="curve" smooth="yes"/>
			<point x="418" y="254"/>
			<point x="444" y="203"/>
			<point x="444" y="146" type="curve" smooth="yes"/>
			<point x="444" y="98"/>
			<point x="417" y="44"/>
			<point x="369" y="44" type="curve" smooth="yes"/>
			<point x="335" y="44"/>
			<point x="313" y="66"/>
			<point x="313" y="145" type="curve" smooth="yes"/>
			<point x="313" y="245"/>
			<point x="341" y="332"/>
			<point x="474" y="470" type="curve"/>
			<point x="438" y="505" type="line"/>
			<point x="267" y="389"/>
			<point x="137" y="286"/>
		</contour>
	</outline>
</glyph>
<glyph name="yeru" format="1">
	<unicode hex="044B"/>
	<advance width="814"/>
	<outline>
		<contour>
			<point x="561" y="91" type="curve" smooth="yes"/>
			<point x="561" y="23"/>
			<point x="597" y="-16"/>
			<point x="648" y="-16" type="curve" smooth="yes"/>
			<point x="735" y="-16"/>
			<point x="800" y="53"/>
			<point x="837" y="121" type="curve"/>
			<point x="804" y="142" type="line"/>
			<point x="774" y="102"/>
			<point x="757" y="84"/>
			<point x="743" y="84" type="curve" smooth="yes"/>
			<point x="734" y="84"/>
			<point x="728" y="91"/>
			<point x="728" y="104" type="curve" smooth="yes"/>
			<point x="728" y="114"/>
			<point x="730" y="125"/>
			<point x="734" y="141" type="curve" smooth="yes"/>
			<point x="813" y="487" type="line"/>
			<point x="791" y="505" type="line"/>
			<point x="630" y="454" type="line"/>
			<point x="622" y="409"/>
			<point x="614" y="366"/>
			<point x="605" y="323" type="curve" smooth="yes"/>
			<point x="571" y="165" type="line" smooth="yes"/>
			<point x="566" y="142"/>
			<point x="561" y="121"/>
		</contour>
		<component base="soft"/>
	</outline>
</glyph>
<glyph name="soft" format="1">
	<unicode hex="044C"/>
	<advance width="552"/>
	<outline>
		<contour>
			<point x="52" y="76"/>
			<point x="101" y="-16"/>
			<point x="276" y="-16" type="curve" smooth="yes"/>
			<point x="449" y="-16"/>
			<point x="536" y="72"/>
			<point x="536" y="161" type="curve" smooth="yes"/>
			<point x="536" y="254"/>
			<point x="489" y="309"/>
			<point x="340" y="309" type="curve" smooth="yes"/>
			<point x="289" y="309"/>
			<point x="242" y="301"/>
			<point x="207" y="285" type="curve"/>
			<point x="203" y="232" type="line"/>
			<point x="238" y="248"/>
			<point x="266" y="254"/>
			<point x="298" y="254" type="curve" smooth="yes"/>
			<point x="344" y="254"/>
			<point x="373" y="217"/>
			<point x="373" y="154" type="curve" smooth="yes"/>
			<point x="373" y="91"/>
			<point x="348" y="44"/>
			<point x="299" y="44" type="curve" smooth="yes"/>
			<point x="267" y="44"/>
			<point x="233" y="58"/>
			<point x="246" y="160" type="curve" smooth="yes"/>
			<point x="256" y="237"/>
			<point x="285" y="371"/>
			<point x="315" y="487" type="curve"/>
			<point x="294" y="505" type="line"/>
			<point x="64" y="436" type="line"/>
			<point x="57" y="395" type="line"/>
			<point x="188" y="380" type="line"/>
			<point x="121" y="415" type="line"/>
			<point x="107" y="355"/>
			<point x="83" y="245"/>
			<point x="72" y="187" type="curve" smooth="yes"/>
		</contour>
	</outline>
</glyph>
<glyph name="ecyr" format="1">
	<unicode hex="044D"/>
	<advance width="468"/>
	<outline>
		<contour>
			<point x="130" y="221" type="line"/>
			<point x="375" y="227" type="line"/>
			<point x="385" y="278" type="line"/>
			<point x="142" y="282" type="line"/>
		</contour>
		<contour>
			<point x="151" y="-16" type="curve" smooth="yes"/>
			<point x="318" y="-16"/>
			<point x="472" y="91"/>
			<point x="472" y="304" type="curve" smooth="yes"/>
			<point x="472" y="449"/>
			<point x="393" y="502"/>
			<point x="308" y="502" type="curve" smooth="yes"/>
			<point x="203" y="502"/>
			<point x="128" y="450"/>
			<point x="77" y="382" type="curve"/>
			<point x="105" y="357" type="line"/>
			<point x="153" y="396"/>
			<point x="200" y="411"/>
			<point x="239" y="411" type="curve" smooth="yes"/>
			<point x="283" y="411"/>
			<point x="319" y="378"/>
			<point x="319" y="285" type="curve" smooth="yes"/>
			<point x="319" y="107"/>
			<point x="236" y="31"/>
			<point x="151" y="31" type="curve" smooth="yes"/>
			<point x="81" y="31" type="line"/>
			<point x="178" y="10" type="line"/>
			<point x="162" y="84" type="line" smooth="yes"/>
			<point x="151" y="137"/>
			<point x="119" y="155"/>
			<point x="81" y="155" type="curve" smooth="yes"/>
			<point x="41" y="155"/>
			<point x="21" y="131"/>
			<point x="15" y="93" type="curve"/>
			<point x="27" y="21"/>
			<point x="76" y="-16"/>
		</contour>
	</outline>
</glyph>
<glyph name="yu" format="1">
	<unicode hex="044E"/>
	<advance width="800"/>
	<outline>
		<contour>
			<point x="36" y="5" type="line"/>
			<point x="52" y="-8" type="line"/>
			<point x="207" y="0" type="line"/>
			<point x="221" y="73"/>
			<point x="234" y="144"/>
			<point x="250" y="216" type="curve" smooth="yes"/>
			<point x="282" y="364" type="line"/>
			<point x="305" y="487" type="line"/>
			<point x="284" y="505" type="line"/>
			<point x="64" y="436" type="line"/>
			<point x="57" y="395" type="line"/>
			<point x="188" y="380" type="line"/>
			<point x="121" y="415" type="line"/>
		</contour>
		<contour>
			<point x="124" y="233" type="line"/>
			<point x="404" y="233" type="line"/>
			<point x="404" y="288" type="line"/>
			<point x="124" y="288" type="line"/>
		</contour>
		<contour>
			<point x="514" y="-16" type="curve" smooth="yes"/>
			<point x="681" y="-16"/>
			<point x="806" y="145"/>
			<point x="806" y="308" type="curve" smooth="yes"/>
			<point x="806" y="447"/>
			<point x="723" y="503"/>
			<point x="614" y="503" type="curve" smooth="yes"/>
			<point x="446" y="503"/>
			<point x="321" y="340"/>
			<point x="321" y="179" type="curve" smooth="yes"/>
			<point x="321" y="41"/>
			<point x="404" y="-16"/>
		</contour>
		<contour>
			<point x="526" y="44" type="curve" smooth="yes"/>
			<point x="501" y="44"/>
			<point x="482" y="62"/>
			<point x="482" y="138" type="curve" smooth="yes"/>
			<point x="482" y="268"/>
			<point x="531" y="443"/>
			<point x="600" y="443" type="curve" smooth="yes"/>
			<point x="627" y="443"/>
			<point x="644" y="424"/>
			<point x="644" y="355" type="curve" smooth="yes"/>
			<point x="644" y="212"/>
			<point x="593" y="44"/>
		</contour>
	</outline>
</glyph>
<glyph name="quoteleft" format="1">
	<unicode hex="2018"/>
	<advance width="218"/>
	<outline>
		<contour>
			<point x="92" y="544" type="curve" smooth="yes"/>
			<point x="86" y="514"/>
			<point x="88" y="482"/>
			<point x="99" y="454" type="curve"/>
			<point x="113" y="440"/>
			<point x="131" y="421"/>
			<point x="164" y="418" type="curve" smooth="yes"/>
			<point x="206" y="414"/>
			<point x="254" y="446"/>
			<point x="262" y="492" type="curve" smooth="yes"/>
			<point x="268" y="520"/>
			<point x="265" y="545"/>
			<point x="238" y="569" type="curve" smooth="yes"/>
			<point x="177" y="624" type="line"/>
			<point x="151" y="535" type="line"/>
			<point x="175" y="603"/>
			<point x="251" y="661"/>
			<point x="298" y="680" type="curve"/>
			<point x="288" y="723" type="line"/>
			<point x="186" y="698"/>
			<point x="109" y="631"/>
		</contour>
	</outline>
</glyph>
<glyph name="dagger" format="1">
	<unicode hex="2020"/>
	<advance width="470"/>
	<outline>
		<contour>
			<point x="107" y="473" type="curve" smooth="yes"/>
			<point x="107" y="456"/>
			<point x="117" y="447"/>
			<point x="142" y="447" type="curve" smooth="yes"/>
			<point x="167" y="447"/>
			<point x="223" y="458"/>
			<point x="260" y="462" type="curve" smooth="yes"/>
			<point x="331" y="469" type="line"/>
			<point x="336" y="495" type="line"/>
			<point x="268" y="503" type="line" smooth="yes"/>
			<point x="233" y="507"/>
			<point x="181" y="517"/>
			<point x="156" y="517" type="curve" smooth="yes"/>
			<point x="126" y="517"/>
			<point x="107" y="505"/>
		</contour>
		<contour>
			<point x="208" y="-70" type="curve"/>
			<point x="234" y="-70" type="line"/>
			<point x="291" y="152"/>
			<point x="315" y="252"/>
			<point x="326" y="310" type="curve" smooth="yes"/>
			<point x="331" y="336"/>
			<point x="334" y="355"/>
			<point x="336" y="377" type="curve" smooth="yes"/>
			<point x="339" y="403"/>
			<point x="342" y="433"/>
			<point x="346" y="482" type="curve"/>
			<point x="320" y="482" type="line"/>
			<point x="298" y="404"/>
			<point x="282" y="369"/>
			<point x="270" y="310" type="curve" smooth="yes"/>
			<point x="262" y="270"/>
			<point x="240" y="141"/>
		</contour>
		<contour>
			<point x="559" y="492" type="curve" smooth="yes"/>
			<point x="559" y="508"/>
			<point x="548" y="517"/>
			<point x="524" y="517" type="curve" smooth="yes"/>
			<point x="499" y="517"/>
			<point x="443" y="506"/>
			<point x="406" y="502" type="curve" smooth="yes"/>
			<point x="336" y="495" type="line"/>
			<point x="331" y="469" type="line"/>
			<point x="398" y="461" type="line" smooth="yes"/>
			<point x="433" y="457"/>
			<point x="485" y="447"/>
			<point x="510" y="447" type="curve" smooth="yes"/>
			<point x="542" y="447"/>
			<point x="559" y="465"/>
		</contour>
		<contour>
			<point x="381" y="717" type="curve" smooth="yes"/>
			<point x="356" y="717"/>
			<point x="343" y="701"/>
			<point x="338" y="676" type="curve" smooth="yes"/>
			<point x="331" y="644"/>
			<point x="331" y="598"/>
			<point x="326" y="551" type="curve" smooth="yes"/>
			<point x="320" y="482" type="line"/>
			<point x="346" y="482" type="line"/>
			<point x="367" y="551" type="line" smooth="yes"/>
			<point x="381" y="597"/>
			<point x="410" y="666"/>
			<point x="410" y="690" type="curve" smooth="yes"/>
			<point x="410" y="709"/>
			<point x="399" y="717"/>
		</contour>
	</outline>
</glyph>
<glyph name="bullet" format="1">
	<unicode hex="2022"/>
	<advance width="340"/>
	<outline>
		<contour>
			<point x="189" y="183" type="curve" smooth="yes"/>
			<point x="273" y="183"/>
			<point x="341" y="246"/>
			<point x="341" y="331" type="curve" smooth="yes"/>
			<point x="341" y="398"/>
			<point x="288" y="456"/>
			<point x="213" y="456" type="curve" smooth="yes"/>
			<point x="133" y="456"/>
			<point x="61" y="390"/>
			<point x="61" y="305" type="curve" smooth="yes"/>
			<point x="61" y="241"/>
			<point x="113" y="183"/>
		</contour>
	</outline>
</glyph>
<glyph name="guilsinglleft" format="1">
	<unicode hex="2039"/>
	<advance width="354"/>
	<outline>
		<contour>
			<point x="270" y="22" type="line"/>
			<point x="316" y="61" type="line"/>
			<point x="143" y="297" type="line"/>
			<point x="126" y="208" type="line"/>
			<point x="367" y="444" type="line"/>
			<point x="335" y="483" type="line"/>
			<point x="64" y="288" type="line"/>
			<point x="51" y="217" type="line"/>
		</contour>
	</outline>
</glyph>
<glyph name="trademark" format="1">
	<unicode hex="2122"/>
	<advance width="803"/>
	<outline>
		<contour>
			<point x="395" y="652" type="line"/>
			<point x="391" y="355" type="line"/>
			<point x="427" y="355" type="line"/>
			<point x="429" y="652" type="line"/>
		</contour>
		<contour>
			<point x="363" y="652" type="line"/>
			<point x="363" y="618" type="line"/>
			<point x="430" y="612" type="line"/>
			<point x="389" y="647" type="line"/>
			<point x="504" y="355" type="line"/>
			<point x="537" y="355" type="line"/>
			<point x="651" y="652" type="line"/>
			<point x="612" y="652" type="line"/>
			<point x="546" y="465" type="line"/>
			<point x="576" y="461" type="line"/>
			<point x="497" y="652" type="line"/>
		</contour>
		<contour>
			<point x="651" y="611" type="line"/>
			<point x="675" y="611" type="line"/>
			<point x="751" y="618" type="line"/>
			<point x="751" y="652" type="line"/>
			<point x="651" y="652" type="line"/>
		</contour>
		<contour>
			<point x="612" y="355" type="line"/>
			<point x="724" y="355" type="line"/>
			<point x="724" y="652" type="line"/>
			<point x="641" y="652" type="line"/>
			<point x="612" y="598" type="line"/>
		</contour>
		<contour>
			<point x="658" y="396" type="line"/>
			<point x="582" y="389" type="line"/>
			<point x="582" y="355" type="line"/>
			<point x="751" y="355" type="line"/>
			<point x="751" y="389" type="line"/>
			<point x="675" y="396" type="line"/>
		</contour>
		<contour>
			<point x="396" y="396" type="line"/>
			<point x="345" y="389" type="line"/>
			<point x="345" y="355" type="line"/>
			<point x="471" y="355" type="line"/>
			<point x="471" y="389" type="line"/>
			<point x="421" y="396" type="line"/>
		</contour>
		<contour>
			<point x="181" y="396" type="line"/>
			<point x="109" y="389" type="line"/>
			<point x="109" y="355" type="line"/>
			<point x="285" y="355" type="line"/>
			<point x="285" y="389" type="line"/>
			<point x="211" y="396" type="line"/>
		</contour>
		<contour>
			<point x="140" y="355" type="line"/>
			<point x="253" y="355" type="line"/>
			<point x="253" y="652" type="line"/>
			<point x="140" y="652" type="line"/>
		</contour>
		<contour>
			<point x="326" y="619" type="line"/>
			<point x="282" y="652" type="line"/>
			<point x="291" y="563" type="line"/>
			<point x="341" y="563" type="line"/>
			<point x="342" y="652" type="line"/>
			<point x="52" y="652" type="line"/>
			<point x="52" y="563" type="line"/>
			<point x="102" y="563" type="line"/>
			<point x="112" y="652" type="line"/>
			<point x="67" y="619" type="line"/>
		</contour>
	</outline>
</glyph>
<glyph name="partialdiff" format="1">
	<unicode hex="2202"/>
	<advance width="576"/>
	<outline>
		<contour>
			<point x="30" y="192" type="curve" smooth="yes"/>
			<point x="30" y="59"/>
			<point x="97" y="-16"/>
			<point x="231" y="-16" type="curve" smooth="yes"/>
			<point x="424" y="-16"/>
			<point x="546" y="117"/>
			<point x="546" y="360" type="curve" smooth="yes"/>
			<point x="546" y="570"/>
			<point x="424" y="640"/>
			<point x="306" y="640" type="curve" smooth="yes"/>
			<point x="216" y="640"/>
			<point x="146" y="607"/>
			<point x="103" y="552" type="curve"/>
			<point x="139" y="507" type="line"/>
			<point x="186" y="552"/>
			<point x="233" y="573"/>
			<point x="274" y="573" type="curve" smooth="yes"/>
			<point x="335" y="573"/>
			<point x="366" y="530"/>
			<point x="366" y="397" type="curve" smooth="yes"/>
			<point x="366" y="104"/>
			<point x="281" y="39"/>
			<point x="249" y="39" type="curve" smooth="yes"/>
			<point x="211" y="39"/>
			<point x="196" y="77"/>
			<point x="196" y="150" type="curve" smooth="yes"/>
			<point x="196" y="270"/>
			<point x="261" y="341"/>
			<point x="317" y="341" type="curve" smooth="yes"/>
			<point x="353" y="341"/>
			<point x="378" y="318"/>
			<point x="397" y="288" type="curve"/>
			<point x="413" y="340" type="line"/>
			<point x="384" y="392"/>
			<point x="344" y="415"/>
			<point x="279" y="415" type="curve" smooth="yes"/>
			<point x="141" y="415"/>
			<point x="30" y="332"/>
		</contour>
	</outline>
</glyph>
<glyph name="product" format="1">
	<unicode hex="220F"/>
	<advance width="752"/>
	<outline>
		<contour>
			<point x="557" y="589" type="line"/>
			<point x="557" y="652" type="line"/>
			<point x="195" y="652" type="line"/>
			<point x="195" y="589" type="line"/>
		</contour>
		<contour>
			<point x="172" y="-46" type="line"/>
			<point x="28" y="-61" type="line"/>
			<point x="28" y="-120" type="line"/>
			<point x="357" y="-120" type="line"/>
			<point x="357" y="-61" type="line"/>
			<point x="205" y="-46" type="line"/>
		</contour>
		<contour>
			<point x="96" y="190" type="line" smooth="yes"/>
			<point x="96" y="85"/>
			<point x="96" y="-19"/>
			<point x="93" y="-120" type="curve"/>
			<point x="297" y="-120" type="line"/>
			<point x="294" y="-17"/>
			<point x="294" y="87"/>
			<point x="294" y="191" type="curve" smooth="yes"/>
			<point x="294" y="342" type="line" smooth="yes"/>
			<point x="294" y="447"/>
			<point x="294" y="551"/>
			<point x="297" y="652" type="curve"/>
			<point x="93" y="652" type="line"/>
			<point x="96" y="549"/>
			<point x="96" y="445"/>
			<point x="96" y="342" type="curve" smooth="yes"/>
		</contour>
		<contour>
			<point x="557" y="578" type="line"/>
			<point x="575" y="578" type="line"/>
			<point x="724" y="593" type="line"/>
			<point x="724" y="652" type="line"/>
			<point x="557" y="652" type="line"/>
		</contour>
		<contour>
			<point x="458" y="191" type="line" smooth="yes"/>
			<point x="458" y="85"/>
			<point x="458" y="-19"/>
			<point x="455" y="-120" type="curve"/>
			<point x="659" y="-120" type="line"/>
			<point x="656" y="-17"/>
			<point x="656" y="87"/>
			<point x="656" y="190" type="curve" smooth="yes"/>
			<point x="656" y="342" type="line" smooth="yes"/>
			<point x="656" y="447"/>
			<point x="656" y="551"/>
			<point x="659" y="652" type="curve"/>
			<point x="455" y="652" type="line"/>
			<point x="458" y="549"/>
			<point x="458" y="445"/>
			<point x="458" y="342" type="curve" smooth="yes"/>
		</contour>
		<contour>
			<point x="544" y="-46" type="line"/>
			<point x="395" y="-61" type="line"/>
			<point x="395" y="-120" type="line"/>
			<point x="724" y="-120" type="line"/>
			<point x="724" y="-61" type="line"/>
			<point x="575" y="-46" type="line"/>
		</contour>
		<contour>
			<point x="172" y="578" type="line"/>
			<point x="195" y="578" type="line"/>
			<point x="195" y="652" type="line"/>
			<point x="28" y="652" type="line"/>
			<point x="28" y="593" type="line"/>
		</contour>
	</outline>
</glyph>
<glyph name="summation" format="1">
	<unicode hex="2211"/>
	<advance width="581"/>
	<outline>
		<contour>
			<point x="466" y="463" type="line"/>
			<point x="552" y="463" type="line"/>
			<point x="544" y="652" type="line"/>
			<point x="121" y="652" type="line"/>
			<point x="121" y="592" type="line"/>
			<point x="510" y="592" type="line"/>
			<point x="428" y="652" type="line"/>
		</contour>
		<contour>
			<point x="20" y="-120" type="line"/>
			<point x="554" y="-120" type="line"/>
			<point x="562" y="139" type="line"/>
			<point x="474" y="139" type="line"/>
			<point x="437" y="-50" type="line"/>
			<point x="521" y="10" type="line"/>
			<point x="95" y="10" type="line"/>
			<point x="132" y="-14" type="line"/>
			<point x="386" y="329" type="line"/>
			<point x="213" y="652" type="line"/>
			<point x="22" y="652" type="line"/>
			<point x="22" y="602" type="line"/>
			<point x="250" y="195" type="line"/>
			<point x="272" y="318" type="line"/>
			<point x="20" y="-25" type="line"/>
		</contour>
	</outline>
</glyph>
<glyph name="radical" format="1">
	<unicode hex="221A"/>
	<advance width="580"/>
	<outline>
		<contour>
			<point x="133" y="323" type="line"/>
			<point x="273" y="-110" type="line"/>
			<point x="383" y="-110" type="line"/>
			<point x="600" y="772" type="line"/>
			<point x="482" y="772" type="line"/>
			<point x="313" y="-61" type="line"/>
			<point x="357" y="-27" type="line"/>
			<point x="250" y="370" type="line"/>
			<point x="30" y="370" type="line"/>
			<point x="30" y="270" type="line"/>
			<point x="162" y="270" type="line"/>
		</contour>
	</outline>
</glyph>
<glyph name="infinity" format="1">
	<unicode hex="221E"/>
	<advance width="790"/>
	<outline>
		<contour>
			<point x="329" y="260" type="curve" smooth="yes"/>
			<point x="387" y="174"/>
			<point x="457" y="111"/>
			<point x="568" y="111" type="curve" smooth="yes"/>
			<point x="689" y="111"/>
			<point x="761" y="206"/>
			<point x="761" y="330" type="curve" smooth="yes"/>
			<point x="761" y="454"/>
			<point x="697" y="528"/>
			<point x="608" y="528" type="curve" smooth="yes"/>
			<point x="526" y="528"/>
			<point x="463" y="477"/>
			<point x="405" y="348" type="curve"/>
			<point x="426" y="317" type="line"/>
			<point x="490" y="396"/>
			<point x="537" y="419"/>
			<point x="590" y="419" type="curve" smooth="yes"/>
			<point x="654" y="419"/>
			<point x="696" y="390"/>
			<point x="696" y="334" type="curve" smooth="yes"/>
			<point x="696" y="281"/>
			<point x="662" y="253"/>
			<point x="619" y="253" type="curve" smooth="yes"/>
			<point x="565" y="253"/>
			<point x="519" y="294"/>
			<point x="462" y="379" type="curve" smooth="yes"/>
			<point x="404" y="465"/>
			<point x="334" y="528"/>
			<point x="223" y="528" type="curve" smooth="yes"/>
			<point x="102" y="528"/>
			<point x="30" y="433"/>
			<point x="30" y="309" type="curve" smooth="yes"/>
			<point x="30" y="185"/>
			<point x="94" y="111"/>
			<point x="183" y="111" type="curve" smooth="yes"/>
			<point x="265" y="111"/>
			<point x="328" y="162"/>
			<point x="386" y="291" type="curve"/>
			<point x="365" y="322" type="line"/>
			<point x="301" y="243"/>
			<point x="254" y="220"/>
			<point x="201" y="220" type="curve" smooth="yes"/>
			<point x="137" y="220"/>
			<point x="95" y="249"/>
			<point x="95" y="305" type="curve" smooth="yes"/>
			<point x="95" y="358"/>
			<point x="129" y="386"/>
			<point x="172" y="386" type="curve" smooth="yes"/>
			<point x="226" y="386"/>
			<point x="272" y="345"/>
		</contour>
	</outline>
</glyph>
<glyph name="integral" format="1">
	<unicode hex="222B"/>
	<advance width="383"/>
	<outline>
		<contour>
			<point x="99" y="273" type="curve" smooth="yes"/>
			<point x="117" y="115"/>
			<point x="127" y="78"/>
			<point x="127" y="16" type="curve" smooth="yes"/>
			<point x="127" y="-27"/>
			<point x="125" y="-70"/>
			<point x="95" y="-112" type="curve" smooth="yes"/>
			<point x="72" y="-143"/>
			<point x="54" y="-154"/>
			<point x="8" y="-163" type="curve"/>
			<point x="68" y="-174" type="line"/>
			<point x="48" y="-108" type="line" smooth="yes"/>
			<point x="31" y="-51"/>
			<point x="6" y="-42"/>
			<point x="-22" y="-42" type="curve" smooth="yes"/>
			<point x="-59" y="-42"/>
			<point x="-80" y="-70"/>
			<point x="-80" y="-119" type="curve"/>
			<point x="-58" y="-173"/>
			<point x="-18" y="-202"/>
			<point x="52" y="-202" type="curve" smooth="yes"/>
			<point x="85" y="-202"/>
			<point x="163" y="-191"/>
			<point x="218" y="-140" type="curve" smooth="yes"/>
			<point x="270" y="-93"/>
			<point x="299" y="-22"/>
			<point x="299" y="77" type="curve" smooth="yes"/>
			<point x="299" y="119"/>
			<point x="296" y="179"/>
			<point x="284" y="284" type="curve" smooth="yes"/>
			<point x="267" y="442"/>
			<point x="256" y="479"/>
			<point x="256" y="541" type="curve" smooth="yes"/>
			<point x="256" y="584"/>
			<point x="258" y="627"/>
			<point x="288" y="669" type="curve" smooth="yes"/>
			<point x="311" y="700"/>
			<point x="329" y="711"/>
			<point x="375" y="720" type="curve"/>
			<point x="315" y="731" type="line"/>
			<point x="335" y="665" type="line" smooth="yes"/>
			<point x="352" y="608"/>
			<point x="377" y="599"/>
			<point x="405" y="599" type="curve" smooth="yes"/>
			<point x="442" y="599"/>
			<point x="463" y="627"/>
			<point x="463" y="676" type="curve"/>
			<point x="441" y="730"/>
			<point x="401" y="759"/>
			<point x="331" y="759" type="curve" smooth="yes"/>
			<point x="298" y="759"/>
			<point x="220" y="748"/>
			<point x="165" y="697" type="curve" smooth="yes"/>
			<point x="113" y="650"/>
			<point x="84" y="579"/>
			<point x="84" y="480" type="curve" smooth="yes"/>
			<point x="84" y="438"/>
			<point x="88" y="378"/>
		</contour>
	</outline>
</glyph>
<glyph name="notequal" format="1">
	<unicode hex="2260"/>
	<advance width="550"/>
	<outline>
		<contour>
			<point x="143" y="20" type="line"/>
			<point x="463" y="587" type="line"/>
			<point x="407" y="620" type="line"/>
			<point x="87" y="53" type="line"/>
		</contour>
		<component base="equal"/>
	</outline>
</glyph>
<glyph name="lessequal" format="1">
	<unicode hex="2264"/>
	<advance width="550"/>
	<outline>
		<contour>
			<point x="520" y="0" type="line"/>
			<point x="520" y="100" type="line"/>
			<point x="30" y="100" type="line"/>
			<point x="30" y="0" type="line"/>
		</contour>
		<contour>
			<point x="40" y="312" type="line"/>
			<point x="461" y="122" type="line"/>
			<point x="500" y="214" type="line"/>
			<point x="95" y="390" type="line"/>
			<point x="95" y="311" type="line"/>
			<point x="500" y="487" type="line"/>
			<point x="461" y="579" type="line"/>
			<point x="40" y="389" type="line"/>
		</contour>
	</outline>
</glyph>
<glyph name="lozenge" format="1">
	<unicode hex="25CA"/>
	<advance width="620"/>
	<outline>
		<contour>
			<point x="518" y="325" type="line"/>
			<point x="344" y="63" type="line"/>
			<point x="168" y="325" type="line"/>
			<point x="344" y="591" type="line"/>
		</contour>
		<contour>
			<point x="649" y="325" type="line"/>
			<point x="367" y="729" type="line"/>
			<point x="318" y="729" type="line"/>
			<point x="37" y="325" type="line"/>
			<point x="318" y="-74" type="line"/>
			<point x="367" y="-74" type="line"/>
		</contour>
	</outline>
</glyph>
<glyph name="Be" format="1">
	<advance width="639"/>
	<outline>
		<contour>
			<point x="-9" y="0" type="line"/>
			<point x="154" y="0" type="line"/>
			<point x="168" y="74" type="line"/>
			<point x="150" y="74" type="line"/>
			<point x="3" y="59" type="line"/>
		</contour>
		<contour>
			<point x="66" y="0" type="line"/>
			<point x="245" y="0" type="line"/>
			<point x="262" y="103"/>
			<point x="281" y="207"/>
			<point x="301" y="311" type="curve" smooth="yes"/>
			<point x="366" y="652" type="line"/>
			<point x="186" y="652" type="line"/>
			<point x="169" y="549"/>
			<point x="151" y="445"/>
			<point x="131" y="342" type="curve" smooth="yes"/>
		</contour>
		<contour>
			<point x="103" y="593" type="line"/>
			<point x="246" y="578" type="line"/>
			<point x="263" y="578" type="line"/>
			<point x="277" y="652" type="line"/>
			<point x="115" y="652" type="line"/>
		</contour>
		<contour>
			<point x="227" y="371" type="line"/>
			<point x="217" y="315" type="line"/>
			<point x="338" y="315" type="line" smooth="yes"/>
			<point x="407" y="315"/>
			<point x="442" y="276"/>
			<point x="442" y="203" type="curve" smooth="yes"/>
			<point x="442" y="114"/>
			<point x="382" y="60"/>
			<point x="292" y="60" type="curve" smooth="yes"/>
			<point x="169" y="60" type="line"/>
			<point x="157" y="0" type="line"/>
			<point x="317" y="0" type="line" smooth="yes"/>
			<point x="559" y="0"/>
			<point x="615" y="102"/>
			<point x="615" y="191" type="curve" smooth="yes"/>
			<point x="615" y="279"/>
			<point x="558" y="371"/>
			<point x="363" y="371" type="curve" smooth="yes"/>
		</contour>
		<contour>
			<point x="265" y="593" type="line"/>
			<point x="565" y="593" type="line"/>
			<point x="497" y="652" type="line"/>
			<point x="492" y="453" type="line"/>
			<point x="582" y="453" type="line"/>
			<point x="609" y="652" type="line"/>
			<point x="277" y="652" type="line"/>
		</contour>
	</outline>
</glyph>
<glyph name="acutecmb.cap" format="1">
	<outline>
		<contour>
			<point x="0" y="735" type="curve"/>
			<point x="28" y="689" type="line"/>
			<point x="85" y="710"/>
			<point x="139" y="728"/>
			<point x="198" y="750" type="curve" smooth="yes"/>
			<point x="250" y="768"/>
			<point x="262" y="798"/>
			<point x="262" y="823" type="curve" smooth="yes"/>
			<point x="262" y="850"/>
			<point x="242" y="879"/>
			<point x="204" y="879" type="curve" smooth="yes"/>
			<point x="176" y="879"/>
			<point x="155" y="872"/>
			<point x="120" y="842" type="curve" smooth="yes"/>
			<point x="81" y="808"/>
			<point x="40" y="771"/>
		</contour>
		<contour>
			<point name="_aboveUC" x="108" y="682" type="move"/>
		</contour>
	</outline>
</glyph>
<glyph name="caron.alt" format="1">
	<advance width="16"/>
	<outline>
		<contour>
			<point x="145" y="731" type="curve" smooth="yes"/>
			<point x="126" y="731"/>
			<point x="112" y="728"/>
			<point x="91" y="718" type="curve"/>
			<point x="43" y="490" type="line"/>
			<point x="97" y="485" type="line"/>
			<point x="147" y="572" type="line" smooth="yes"/>
			<point x="174" y="620"/>
			<point x="197" y="657"/>
			<point x="197" y="692" type="curve" smooth="yes"/>
			<point x="197" y="712"/>
			<point x="181" y="731"/>
		</contour>
	</outline>
</glyph>
<glyph name="caroncmb.cap" format="1">
	<outline>
		<contour>
			<point x="2" y="892" type="line"/>
			<point x="-42" y="855" type="line"/>
			<point x="69" y="696" type="line"/>
			<point x="159" y="696" type="line"/>
			<point x="328" y="855" type="line"/>
			<point x="297" y="892" type="line"/>
			<point x="80" y="763" type="line"/>
			<point x="168" y="763" type="line"/>
		</contour>
		<contour>
			<point name="_aboveUC" x="108" y="682" type="move"/>
		</contour>
	</outline>
</glyph>
<glyph name="che" format="1">
	<advance width="582"/>
	<outline>
		<contour>
			<point x="181" y="170" type="curve" smooth="yes"/>
			<point x="250" y="170"/>
			<point x="363" y="222"/>
			<point x="458" y="270" type="curve"/>
			<point x="459" y="300" type="line"/>
			<point x="380" y="289"/>
			<point x="325" y="284"/>
			<point x="305" y="284" type="curve" smooth="yes"/>
			<point x="279" y="284"/>
			<point x="262" y="295"/>
			<point x="262" y="325" type="curve" smooth="yes"/>
			<point x="262" y="344"/>
			<point x="269" y="383"/>
			<point x="293" y="487" type="curve"/>
			<point x="272" y="505" type="line"/>
			<point x="56" y="436" type="line"/>
			<point x="49" y="395" type="line"/>
			<point x="180" y="380" type="line"/>
			<point x="113" y="415" type="line"/>
			<point x="92" y="311"/>
			<point x="87" y="284"/>
			<point x="87" y="259" type="curve" smooth="yes"/>
			<point x="87" y="204"/>
			<point x="130" y="170"/>
		</contour>
		<contour>
			<point x="331" y="91" type="curve" smooth="yes"/>
			<point x="331" y="23"/>
			<point x="367" y="-16"/>
			<point x="418" y="-16" type="curve" smooth="yes"/>
			<point x="505" y="-16"/>
			<point x="570" y="53"/>
			<point x="607" y="121" type="curve"/>
			<point x="574" y="142" type="line"/>
			<point x="544" y="102"/>
			<point x="527" y="84"/>
			<point x="513" y="84" type="curve" smooth="yes"/>
			<point x="504" y="84"/>
			<point x="498" y="91"/>
			<point x="498" y="104" type="curve" smooth="yes"/>
			<point x="498" y="114"/>
			<point x="500" y="125"/>
			<point x="504" y="141" type="curve" smooth="yes"/>
			<point x="583" y="487" type="line"/>
			<point x="561" y="505" type="line"/>
			<point x="400" y="454" type="line"/>
			<point x="392" y="409"/>
			<point x="384" y="366"/>
			<point x="375" y="323" type="curve" smooth="yes"/>
			<point x="341" y="165" type="line" smooth="yes"/>
			<point x="336" y="142"/>
			<point x="331" y="121"/>
		</contour>
	</outline>
</glyph>
<glyph name="colon.sups" format="1">
	<advance width="232"/>
	<outline>
		<contour>
			<point x="168" y="407" type="curve" smooth="yes"/>
			<point x="208" y="407"/>
			<point x="242" y="437"/>
			<point x="242" y="474" type="curve" smooth="yes"/>
			<point x="242" y="506"/>
			<point x="222" y="528"/>
			<point x="185" y="528" type="curve" smooth="yes"/>
			<point x="147" y="528"/>
			<point x="114" y="495"/>
			<point x="114" y="459" type="curve" smooth="yes"/>
			<point x="114" y="430"/>
			<point x="134" y="407"/>
		</contour>
		<contour>
			<point x="212" y="610" type="curve" smooth="yes"/>
			<point x="252" y="610"/>
			<point x="286" y="640"/>
			<point x="286" y="677" type="curve" smooth="yes"/>
			<point x="286" y="709"/>
			<point x="266" y="731"/>
			<point x="229" y="731" type="curve" smooth="yes"/>
			<point x="191" y="731"/>
			<point x="158" y="698"/>
			<point x="158" y="662" type="curve" smooth="yes"/>
			<point x="158" y="633"/>
			<point x="178" y="610"/>
		</contour>
	</outline>
</glyph>
<glyph name="comma.sups" format="1">
	<advance width="232"/>
	<outline>
		<contour>
			<point x="93" y="299" type="line"/>
			<point x="166" y="318"/>
			<point x="240" y="390"/>
			<point x="240" y="472" type="curve" smooth="yes"/>
			<point x="240" y="484"/>
			<point x="239" y="493"/>
			<point x="236" y="504" type="curve"/>
			<point x="222" y="520"/>
			<point x="205" y="528"/>
			<point x="182" y="528" type="curve" smooth="yes"/>
			<point x="144" y="528"/>
			<point x="116" y="497"/>
			<point x="116" y="468" type="curve" smooth="yes"/>
			<point x="116" y="444"/>
			<point x="130" y="434"/>
			<point x="152" y="419" type="curve" smooth="yes"/>
			<point x="193" y="392" type="line"/>
			<point x="178" y="416" type="line"/>
			<point x="152" y="378"/>
			<point x="125" y="353"/>
			<point x="83" y="330" type="curve"/>
		</contour>
	</outline>
</glyph>
<glyph name="commabelowcmb.alt" format="1">
	<outline>
		<component base="commabelowcmb" xScale="-1" yScale="-1" xOffset="25" yOffset="512"/>
		<contour>
			<point name="_aboveLC" x="74" y="520" type="move"/>
		</contour>
	</outline>
</glyph>
<glyph name="eight.lf" format="1">
	<advance width="540"/>
	<outline>
		<contour>
			<point x="234" y="-15" type="curve" smooth="yes"/>
			<point x="386" y="-15"/>
			<point x="509" y="60"/>
			<point x="509" y="193" type="curve" smooth="yes"/>
			<point x="509" y="265"/>
			<point x="484" y="314"/>
			<point x="391" y="370" type="curve" smooth="yes"/>
			<point x="288" y="433"/>
			<point x="269" y="455"/>
			<point x="269" y="496" type="curve" smooth="yes"/>
			<point x="269" y="551"/>
			<point x="313" y="584"/>
			<point x="349" y="584" type="curve" smooth="yes"/>
			<point x="397" y="584"/>
			<point x="411" y="562"/>
			<point x="411" y="519" type="curve" smooth="yes"/>
			<point x="411" y="470"/>
			<point x="394" y="424"/>
			<point x="337" y="361" type="curve"/>
			<point x="356" y="347" type="line"/>
			<point x="489" y="387"/>
			<point x="552" y="440"/>
			<point x="552" y="520" type="curve" smooth="yes"/>
			<point x="552" y="578"/>
			<point x="505" y="639"/>
			<point x="375" y="639" type="curve" smooth="yes"/>
			<point x="240" y="639"/>
			<point x="110" y="559"/>
			<point x="110" y="426" type="curve" smooth="yes"/>
			<point x="110" y="358"/>
			<point x="152" y="312"/>
			<point x="224" y="268" type="curve" smooth="yes"/>
			<point x="318" y="211"/>
			<point x="344" y="182"/>
			<point x="344" y="134" type="curve" smooth="yes"/>
			<point x="344" y="82"/>
			<point x="306" y="40"/>
			<point x="260" y="40" type="curve" smooth="yes"/>
			<point x="203" y="40"/>
			<point x="189" y="71"/>
			<point x="189" y="118" type="curve" smooth="yes"/>
			<point x="189" y="183"/>
			<point x="220" y="229"/>
			<point x="283" y="285" type="curve"/>
			<point x="262" y="298" type="line"/>
			<point x="135" y="268"/>
			<point x="40" y="206"/>
			<point x="40" y="108" type="curve" smooth="yes"/>
			<point x="40" y="47"/>
			<point x="82" y="-15"/>
		</contour>
	</outline>
</glyph>
<glyph name="eight.osf" format="1">
	<advance width="543"/>
	<outline>
		<contour>
			<point x="240" y="-12" type="curve" smooth="yes"/>
			<point x="396" y="-12"/>
			<point x="519" y="56"/>
			<point x="519" y="189" type="curve" smooth="yes"/>
			<point x="519" y="265"/>
			<point x="485" y="294"/>
			<point x="389" y="366" type="curve" smooth="yes"/>
			<point x="289" y="439"/>
			<point x="259" y="459"/>
			<point x="259" y="505" type="curve" smooth="yes"/>
			<point x="259" y="555"/>
			<point x="306" y="587"/>
			<point x="348" y="587" type="curve" smooth="yes"/>
			<point x="399" y="587"/>
			<point x="423" y="560"/>
			<point x="423" y="518" type="curve" smooth="yes"/>
			<point x="423" y="468"/>
			<point x="406" y="426"/>
			<point x="347" y="363" type="curve"/>
			<point x="367" y="349" type="line"/>
			<point x="506" y="381"/>
			<point x="561" y="440"/>
			<point x="561" y="521" type="curve" smooth="yes"/>
			<point x="561" y="579"/>
			<point x="511" y="642"/>
			<point x="355" y="642" type="curve" smooth="yes"/>
			<point x="219" y="642"/>
			<point x="99" y="567"/>
			<point x="99" y="447" type="curve" smooth="yes"/>
			<point x="99" y="373"/>
			<point x="142" y="344"/>
			<point x="225" y="283" type="curve" smooth="yes"/>
			<point x="317" y="216"/>
			<point x="353" y="184"/>
			<point x="353" y="132" type="curve" smooth="yes"/>
			<point x="353" y="84"/>
			<point x="311" y="43"/>
			<point x="259" y="43" type="curve" smooth="yes"/>
			<point x="199" y="43"/>
			<point x="175" y="75"/>
			<point x="175" y="125" type="curve" smooth="yes"/>
			<point x="175" y="187"/>
			<point x="205" y="233"/>
			<point x="272" y="288" type="curve"/>
			<point x="249" y="302" type="line"/>
			<point x="115" y="281"/>
			<point x="29" y="211"/>
			<point x="29" y="113" type="curve" smooth="yes"/>
			<point x="29" y="52"/>
			<point x="73" y="-12"/>
		</contour>
	</outline>
</glyph>
<glyph name="emdash.sups" format="1">
	<advance width="584"/>
	<outline>
		<contour>
			<point x="129" y="533" type="line"/>
			<point x="621" y="533" type="line"/>
			<point x="621" y="595" type="line"/>
			<point x="129" y="595" type="line"/>
		</contour>
	</outline>
</glyph>
<glyph name="f_i" format="1">
	<advance width="625"/>
	<outline>
		<contour>
			<point x="423" y="731" type="curve" smooth="yes"/>
			<point x="398" y="731"/>
			<point x="359" y="727"/>
			<point x="317" y="709" type="curve" smooth="yes"/>
			<point x="234" y="674"/>
			<point x="163" y="619"/>
			<point x="135" y="440" type="curve" smooth="yes"/>
			<point x="74" y="52" type="line" smooth="yes"/>
			<point x="58" y="-49"/>
			<point x="37" y="-103"/>
			<point x="19" y="-135" type="curve" smooth="yes"/>
			<point x="0" y="-169"/>
			<point x="-23" y="-187"/>
			<point x="-48" y="-193" type="curve"/>
			<point x="9" y="-206" type="line"/>
			<point x="-29" y="-134" type="line" smooth="yes"/>
			<point x="-56" y="-83"/>
			<point x="-76" y="-71"/>
			<point x="-109" y="-71" type="curve" smooth="yes"/>
			<point x="-145" y="-71"/>
			<point x="-181" y="-108"/>
			<point x="-184" y="-143" type="curve"/>
			<point x="-157" y="-209"/>
			<point x="-107" y="-232"/>
			<point x="-48" y="-232" type="curve" smooth="yes"/>
			<point x="6" y="-232"/>
			<point x="56" y="-213"/>
			<point x="86" y="-192" type="curve" smooth="yes"/>
			<point x="150" y="-147"/>
			<point x="201" y="-87"/>
			<point x="223" y="33" type="curve" smooth="yes"/>
			<point x="311" y="513" type="line" smooth="yes"/>
			<point x="334" y="640"/>
			<point x="361" y="677"/>
			<point x="394" y="700" type="curve" smooth="yes"/>
			<point x="408" y="710" type="line"/>
			<point x="358" y="690" type="line"/>
			<point x="406" y="621" type="line" smooth="yes"/>
			<point x="429" y="588"/>
			<point x="452" y="569"/>
			<point x="488" y="569" type="curve" smooth="yes"/>
			<point x="539" y="569"/>
			<point x="565" y="614"/>
			<point x="565" y="661" type="curve"/>
			<point x="530" y="713"/>
			<point x="493" y="731"/>
		</contour>
		<contour>
			<point x="47" y="427" type="line"/>
			<point x="183" y="427" type="line"/>
			<point x="518" y="421" type="line"/>
			<point x="531" y="487" type="line"/>
			<point x="191" y="487" type="line"/>
			<point x="191" y="493" type="line"/>
			<point x="57" y="478" type="line"/>
		</contour>
		<contour>
			<point x="336" y="59" type="curve" smooth="yes"/>
			<point x="336" y="7"/>
			<point x="365" y="-18"/>
			<point x="425" y="-18" type="curve" smooth="yes"/>
			<point x="534" y="-18"/>
			<point x="589" y="53"/>
			<point x="632" y="134" type="curve"/>
			<point x="601" y="155" type="line"/>
			<point x="567" y="107"/>
			<point x="548" y="82"/>
			<point x="527" y="82" type="curve" smooth="yes"/>
			<point x="516" y="82"/>
			<point x="511" y="89"/>
			<point x="511" y="102" type="curve" smooth="yes"/>
			<point x="511" y="112"/>
			<point x="513" y="120"/>
			<point x="518" y="140" type="curve" smooth="yes"/>
			<point x="599" y="490" type="line"/>
			<point x="582" y="505" type="line"/>
			<point x="352" y="478" type="line"/>
			<point x="345" y="437" type="line"/>
			<point x="476" y="422" type="line"/>
			<point x="416" y="445" type="line"/>
			<point x="350" y="144" type="line" smooth="yes"/>
			<point x="343" y="115"/>
			<point x="336" y="92"/>
		</contour>
	</outline>
</glyph>
<glyph name="fita" format="1">
	<advance width="541"/>
	<outline>
		<contour>
			<point x="67" y="233" type="line"/>
			<point x="457" y="233" type="line"/>
			<point x="457" y="288" type="line"/>
			<point x="67" y="288" type="line"/>
		</contour>
		<component base="ocyr"/>
	</outline>
</glyph>
